<svg width="130" height="57" viewBox="0 0 130 57" fill="none" xmlns="http://www.w3.org/2000/svg">
<path d="M19.15 45.6C15.8833 45.6 12.8833 45.1166 10.15 44.15C7.45 43.1833 5.26667 41.7666 3.6 39.9C1.93334 38 1.01667 35.6666 0.850003 32.9C0.783337 31.7666 0.96667 30.5166 1.4 29.15C1.83334 27.7833 2.43334 26.4333 3.2 25.1C4 23.7333 4.93334 22.5166 6 21.45C7.1 20.35 8.26667 19.5166 9.5 18.95C9.6 18.8833 9.75 18.8333 9.95 18.8C10.1833 18.7666 10.35 18.75 10.45 18.75C10.65 18.75 10.75 18.8 10.75 18.9C10.75 19.0666 10.5 19.3333 10 19.7C8.6 20.8 7.45 22.0666 6.55 23.5C5.61667 24.9333 4.91667 26.4666 4.45 28.1C3.98334 29.7333 3.75 31.3833 3.75 33.05C3.75 35.0166 4.16667 36.7166 5 38.15C5.86667 39.55 7.01667 40.7 8.45 41.6C9.88334 42.5333 11.5167 43.2166 13.35 43.65C15.1833 44.0833 17.1 44.3 19.1 44.3C21.3333 44.3 23.5333 44.05 25.7 43.55C27.9 43.05 29.9 42.3333 31.7 41.4C34.4667 39.9333 36.65 38.1166 38.25 35.95C39.8833 33.7833 40.7 31.6333 40.7 29.5C40.7 28.3666 40.45 27.2833 39.95 26.25C39.4833 25.2166 38.7167 24.2833 37.65 23.45C36.85 22.8166 35.8667 22.2166 34.7 21.65C33.5667 21.0833 32.35 20.5333 31.05 20C29.7833 19.4666 28.5333 18.9333 27.3 18.4C26.0667 17.8333 24.9833 17.2333 24.05 16.6C22.7167 15.7 21.7333 14.7333 21.1 13.7C20.5 12.6666 20.2 11.6333 20.2 10.6C20.2 9.36664 20.55 8.16664 21.25 6.99998C21.9833 5.83331 22.9667 4.78331 24.2 3.84997C25.4667 2.88331 26.8833 2.13331 28.45 1.59997C29.8167 1.13331 31.3 0.766641 32.9 0.499973C34.5333 0.233308 36.1333 0.0999756 37.7 0.0999756C39 0.0999756 40.2333 0.199974 41.4 0.399974C42.6 0.56664 43.65 0.883307 44.55 1.34997C45.6833 1.88331 46.55 2.59997 47.15 3.49997C47.75 4.36664 48.05 5.28331 48.05 6.24997C48.05 7.58331 47.45 8.74998 46.25 9.74998C45.8167 10.0833 45.3333 10.4 44.8 10.7C44.2667 10.9666 43.6333 11.2 42.9 11.4C42.7667 11.4333 42.6167 11.45 42.45 11.45C42.05 11.45 41.85 11.3333 41.85 11.1C41.85 10.9666 41.95 10.8333 42.15 10.7C42.3833 10.5333 42.7167 10.4333 43.15 10.4C44.15 10.2666 44.9 9.88331 45.4 9.24997C45.9333 8.61664 46.2 7.88331 46.2 7.04998C46.2 6.18331 45.9 5.33331 45.3 4.49998C44.7333 3.63331 43.85 2.91664 42.65 2.34997C41.45 1.74997 39.9167 1.44998 38.05 1.44998C36.9833 1.44998 35.8 1.56664 34.5 1.79997C33.2333 2.03331 31.85 2.41664 30.35 2.94997C28.5167 3.58331 26.9833 4.51664 25.75 5.74997C24.55 6.98331 23.95 8.29997 23.95 9.69997C23.95 10.5666 24.2333 11.45 24.8 12.35C25.4 13.2166 26.35 14.05 27.65 14.85C28.75 15.5166 30 16.1833 31.4 16.85C32.8 17.4833 34.2167 18.1333 35.65 18.8C37.0833 19.4333 38.3833 20.1166 39.55 20.85C41.3833 21.9833 42.7 23.2 43.5 24.5C44.3 25.8 44.7 27.1333 44.7 28.5C44.7 30.1 44.2167 31.7166 43.25 33.35C42.3167 34.95 41.0833 36.4666 39.55 37.9C38.0167 39.3 36.3333 40.55 34.5 41.65C32.3667 42.9166 29.95 43.8833 27.25 44.55C24.5833 45.25 21.8833 45.6 19.15 45.6Z" fill="black"/>
<path d="M52.6625 41.2C51.4292 41.2 50.3125 40.8 49.3125 40C48.3458 39.2 47.8625 37.9833 47.8625 36.35C47.8625 34.85 48.2292 33.25 48.9625 31.55C49.6958 29.8166 50.6292 28.3 51.7625 27C52.7292 25.8666 53.8125 24.9333 55.0125 24.2C56.2125 23.4666 57.3458 23.1 58.4125 23.1C59.1458 23.1 59.7792 23.3 60.3125 23.7C60.8792 24.1333 61.1625 24.75 61.1625 25.55C61.1625 26.3833 60.8458 27.3 60.2125 28.3C59.5792 29.3 58.6792 30.2333 57.5125 31.1C57.0125 31.4666 56.3792 31.8166 55.6125 32.15C54.8458 32.4833 54.0792 32.7666 53.3125 33C52.5458 33.2 51.9125 33.3 51.4125 33.3C51.2458 33.7 51.0792 34.2333 50.9125 34.9C50.7792 35.5666 50.7125 36.25 50.7125 36.95C50.7125 37.7833 50.8792 38.5333 51.2125 39.2C51.5458 39.8666 52.1625 40.2 53.0625 40.2C54.1625 40.2 55.1625 39.8833 56.0625 39.25C56.9625 38.6166 57.7625 37.8333 58.4625 36.9C59.1625 35.9333 59.7458 34.9666 60.2125 34C60.7125 33.0333 61.1125 32.2166 61.4125 31.55C61.6125 31.0833 61.8792 30.85 62.2125 30.85C62.3792 30.85 62.4625 30.9333 62.4625 31.1C62.4625 31.2333 62.4125 31.4 62.3125 31.6C61.8458 32.6 61.3458 33.6666 60.8125 34.8C60.2792 35.9 59.6458 36.95 58.9125 37.95C58.1792 38.9166 57.2958 39.7 56.2625 40.3C55.2625 40.9 54.0625 41.2 52.6625 41.2ZM51.7625 32.4C52.2292 32.4 53.0125 32.2333 54.1125 31.9C55.2125 31.5333 56.2125 30.9666 57.1125 30.2C57.9792 29.4333 58.6458 28.6 59.1125 27.7C59.5792 26.7666 59.8125 25.9833 59.8125 25.35C59.8125 24.6166 59.5458 24.25 59.0125 24.25C58.6125 24.25 58.0625 24.5166 57.3625 25.05C56.6625 25.5833 55.7958 26.4833 54.7625 27.75C54.1292 28.55 53.5292 29.4166 52.9625 30.35C52.3958 31.2833 51.9958 31.9666 51.7625 32.4Z" fill="black"/>
<path d="M67.4648 41.05C66.8315 41.05 66.1982 40.8 65.5648 40.3C64.9315 39.7666 64.6148 38.9166 64.6148 37.75C64.6148 36.85 64.8315 35.8166 65.2648 34.65C65.6648 33.5166 66.1982 32.4166 66.8648 31.35C67.5648 30.2833 68.0648 29.4166 68.3648 28.75C68.4648 28.4833 68.5148 28.25 68.5148 28.05C68.5148 27.45 68.1315 27.0166 67.3648 26.75C66.6315 26.4833 65.6648 26.3333 64.4648 26.3L63.8648 27.95C63.4982 29.0166 62.9815 30.2666 62.3148 31.7C61.6815 33.1333 60.9648 34.5166 60.1648 35.85C59.3982 37.1833 58.5982 38.25 57.7648 39.05C57.6982 39.1166 57.6148 39.15 57.5148 39.15C57.3815 39.15 57.2982 39.0666 57.2648 38.9C57.1982 38.7333 57.2648 38.5333 57.4648 38.3C58.7648 36.5666 59.9315 34.65 60.9648 32.55C61.9982 30.4166 62.8648 28.25 63.5648 26.05C64.2982 23.85 64.8315 21.8166 65.1648 19.95C65.2648 19.4166 65.4482 19.0333 65.7148 18.8C65.9815 18.5333 66.2648 18.4 66.5648 18.4C66.9982 18.4 67.3982 18.6166 67.7648 19.05C68.1315 19.45 68.3148 20.0333 68.3148 20.8C68.3148 20.9333 68.2982 21.0833 68.2648 21.25C68.2648 21.4166 68.2482 21.5833 68.2148 21.75C68.0815 22.45 67.6815 23.1166 67.0148 23.75C66.3815 24.35 65.8648 24.8 65.4648 25.1C65.7982 25.1333 66.1482 25.1666 66.5148 25.2C66.8815 25.2 67.2815 25.2 67.7148 25.2C69.2815 25.2 70.8315 25.1 72.3648 24.9C72.4315 25.1 72.4648 25.25 72.4648 25.35C72.4648 25.7833 72.3315 26.3333 72.0648 27C71.8315 27.6666 71.5815 28.2666 71.3148 28.8C71.1815 29.1 70.9148 29.65 70.5148 30.45C70.1148 31.2166 69.6815 32.1 69.2148 33.1C68.7482 34.0666 68.3482 35.0333 68.0148 36C67.7148 36.9333 67.5648 37.7333 67.5648 38.4C67.5648 39.2666 67.8982 39.7 68.5648 39.7C69.0648 39.7 69.6148 39.3833 70.2148 38.75C70.8148 38.0833 71.3982 37.2833 71.9648 36.35C72.5648 35.3833 73.0982 34.45 73.5648 33.55C74.0648 32.6166 74.4482 31.8833 74.7148 31.35C74.8482 31.0166 75.0315 30.85 75.2648 30.85C75.3982 30.85 75.4648 30.9666 75.4648 31.2C75.4648 31.3333 75.4148 31.5333 75.3148 31.8C74.9482 32.5666 74.5148 33.4333 74.0148 34.4C73.5148 35.3666 72.9482 36.3166 72.3148 37.25C71.7148 38.1833 71.0482 39 70.3148 39.7C69.6148 40.3666 68.8482 40.8 68.0148 41C67.9148 41.0333 67.7315 41.05 67.4648 41.05Z" fill="black"/>
<path d="M71.152 56.95C67.9853 56.95 66.402 55.65 66.402 53.05C66.402 51.8166 66.8353 50.7166 67.702 49.75C68.5686 48.7833 69.602 47.95 70.802 47.25C72.4686 46.25 74.0853 45.45 75.652 44.85C77.2186 44.25 78.702 43.7166 80.102 43.25C81.5353 42.8166 82.8853 42.3333 84.152 41.8C84.752 40.0333 85.152 38.1833 85.352 36.25C85.452 35.25 85.502 34.3833 85.502 33.65C85.502 32.8833 85.452 32.3833 85.352 32.15C84.9853 32.85 84.502 33.7 83.902 34.7C83.302 35.7 82.6186 36.6833 81.852 37.65C81.0853 38.5833 80.252 39.3666 79.352 40C78.4853 40.6333 77.5853 40.95 76.652 40.95C76.3186 40.95 76.002 40.9 75.702 40.8C74.7686 40.4 74.0853 39.8333 73.652 39.1C73.252 38.3666 73.052 37.5333 73.052 36.6C73.052 35.1 73.4853 33.4833 74.352 31.75C75.2186 30.0166 76.2519 28.4333 77.452 27C78.4186 25.8333 79.552 24.9 80.852 24.2C82.152 23.5 83.4686 23.15 84.802 23.15C86.3353 23.15 87.7686 23.6666 89.102 24.7C89.602 25.1 89.852 25.5333 89.852 26C89.852 26.5 89.652 26.75 89.252 26.75C88.9186 26.75 88.6853 26.5333 88.552 26.1C88.0853 24.8666 87.3353 24.25 86.302 24.25C85.4686 24.25 84.5186 24.6166 83.452 25.35C82.3853 26.05 81.3853 26.9333 80.452 28C79.6519 28.9 78.8686 29.9333 78.102 31.1C77.3686 32.2666 76.752 33.4166 76.252 34.55C75.7853 35.6833 75.552 36.6666 75.552 37.5C75.552 38.0666 75.6853 38.55 75.952 38.95C76.2186 39.35 76.6353 39.55 77.202 39.55C77.9686 39.55 78.7686 39.1833 79.602 38.45C80.4686 37.7166 81.2853 36.8166 82.052 35.75C82.852 34.6833 83.5353 33.6 84.102 32.5C84.702 31.4 85.1186 30.4833 85.352 29.75C85.5853 28.9833 85.902 28.5166 86.302 28.35C86.702 28.15 87.102 28.05 87.502 28.05C87.902 28.05 88.2353 27.95 88.502 27.75C88.6353 28.4833 88.7186 29.2333 88.752 30C88.8186 30.7333 88.852 31.4833 88.852 32.25C88.852 34.8166 88.5186 37.4 87.852 40C88.452 39.5333 89.0686 39.0333 89.702 38.5C90.3686 37.9333 90.9353 37.3333 91.402 36.7C92.2353 35.5666 92.852 34.5333 93.252 33.6C93.6853 32.6333 94.0186 31.8833 94.252 31.35C94.452 31.0166 94.6686 30.85 94.902 30.85C95.102 30.85 95.202 30.95 95.202 31.15C95.202 31.3166 95.1353 31.5166 95.002 31.75C94.1686 33.5166 93.402 35.0333 92.702 36.3C92.002 37.5333 91.2353 38.5833 90.402 39.45C89.5686 40.2833 88.5353 41 87.302 41.6C86.7686 43.2 85.9686 44.8833 84.902 46.65C83.8353 48.4166 82.5853 50.0833 81.152 51.65C79.7186 53.2166 78.152 54.4833 76.452 55.45C74.752 56.45 72.9853 56.95 71.152 56.95ZM69.952 55.95C70.6853 55.95 71.452 55.7833 72.252 55.45C73.0853 55.15 73.8686 54.7833 74.602 54.35C75.3353 53.9166 75.902 53.55 76.302 53.25C77.0686 52.65 77.852 51.9 78.652 51C79.452 50.1 80.152 49.2333 80.752 48.4C81.3186 47.6 81.852 46.75 82.352 45.85C82.8853 44.9833 83.3353 44.1166 83.702 43.25C83.4353 43.35 83.1019 43.4666 82.702 43.6C82.3353 43.7333 82.0686 43.8333 81.902 43.9C80.802 44.2666 79.5853 44.6833 78.252 45.15C76.952 45.65 75.652 46.1833 74.352 46.75C73.052 47.35 71.8686 48 70.802 48.7C69.8686 49.3333 69.102 50.1666 68.502 51.2C67.8686 52.2333 67.552 53.1333 67.552 53.9C67.552 54.4666 67.752 54.95 68.152 55.35C68.5186 55.75 69.1186 55.95 69.952 55.95Z" fill="black"/>
<path d="M97.7797 41.2C96.5464 41.2 95.4297 40.8 94.4297 40C93.463 39.2 92.9797 37.9833 92.9797 36.35C92.9797 34.85 93.3464 33.25 94.0797 31.55C94.813 29.8166 95.7464 28.3 96.8797 27C97.8464 25.8666 98.9297 24.9333 100.13 24.2C101.33 23.4666 102.463 23.1 103.53 23.1C104.263 23.1 104.896 23.3 105.43 23.7C105.996 24.1333 106.28 24.75 106.28 25.55C106.28 26.3833 105.963 27.3 105.33 28.3C104.696 29.3 103.796 30.2333 102.63 31.1C102.13 31.4666 101.496 31.8166 100.73 32.15C99.963 32.4833 99.1964 32.7666 98.4297 33C97.663 33.2 97.0297 33.3 96.5297 33.3C96.363 33.7 96.1964 34.2333 96.0297 34.9C95.8964 35.5666 95.8297 36.25 95.8297 36.95C95.8297 37.7833 95.9964 38.5333 96.3297 39.2C96.663 39.8666 97.2797 40.2 98.1797 40.2C99.2797 40.2 100.28 39.8833 101.18 39.25C102.08 38.6166 102.88 37.8333 103.58 36.9C104.28 35.9333 104.863 34.9666 105.33 34C105.83 33.0333 106.23 32.2166 106.53 31.55C106.73 31.0833 106.996 30.85 107.33 30.85C107.496 30.85 107.58 30.9333 107.58 31.1C107.58 31.2333 107.53 31.4 107.43 31.6C106.963 32.6 106.463 33.6666 105.93 34.8C105.396 35.9 104.763 36.95 104.03 37.95C103.296 38.9166 102.413 39.7 101.38 40.3C100.38 40.9 99.1797 41.2 97.7797 41.2ZM96.8797 32.4C97.3464 32.4 98.1297 32.2333 99.2297 31.9C100.33 31.5333 101.33 30.9666 102.23 30.2C103.096 29.4333 103.763 28.6 104.23 27.7C104.696 26.7666 104.93 25.9833 104.93 25.35C104.93 24.6166 104.663 24.25 104.13 24.25C103.73 24.25 103.18 24.5166 102.48 25.05C101.78 25.5833 100.913 26.4833 99.8797 27.75C99.2464 28.55 98.6464 29.4166 98.0797 30.35C97.513 31.2833 97.113 31.9666 96.8797 32.4Z" fill="black"/>
<path d="M111.982 22.1C111.482 22.1 111.065 21.9333 110.732 21.6C110.432 21.2333 110.282 20.8 110.282 20.3C110.282 19.6666 110.532 19.1166 111.032 18.65C111.532 18.1833 112.082 17.95 112.682 17.95C113.215 17.95 113.649 18.1166 113.982 18.45C114.315 18.7833 114.482 19.1833 114.482 19.65C114.482 20.2833 114.232 20.85 113.732 21.35C113.232 21.85 112.649 22.1 111.982 22.1ZM88.732 56.95C86.9987 56.95 85.782 56.6 85.082 55.9C84.3487 55.2333 83.982 54.4333 83.982 53.5C83.982 52.6 84.232 51.7 84.732 50.8C85.1987 49.8333 85.8487 49 86.682 48.3C87.5154 47.6333 88.432 47.0666 89.432 46.6C91.132 45.8 93.0987 45.15 95.332 44.65C97.532 44.15 99.6487 43.6 101.682 43C101.949 42.5333 102.232 42.05 102.532 41.55C102.799 41.05 103.049 40.5666 103.282 40.1C103.949 38.7666 104.549 37.5666 105.082 36.5C105.615 35.4 106.182 34.2 106.782 32.9C106.682 32.9 106.565 32.8666 106.432 32.8C106.332 32.7333 106.282 32.6333 106.282 32.5C106.282 32.3666 106.315 32.2333 106.382 32.1L108.982 26.3C109.015 26.2333 109.049 26.15 109.082 26.05C109.115 25.9166 109.132 25.7833 109.132 25.65C109.132 25.3166 109.049 25.0166 108.882 24.75C108.715 24.4833 108.599 24.3 108.532 24.2L111.282 24.1C111.782 24.0666 112.132 24.1333 112.332 24.3C112.565 24.4333 112.682 24.6 112.682 24.8C112.682 25 112.565 25.3666 112.332 25.9L108.332 35.3C107.865 36.4 107.365 37.5 106.832 38.6C106.299 39.7 105.749 40.8166 105.182 41.95C106.182 41.55 107.099 41.1666 107.932 40.8C108.765 40.4 109.565 39.9 110.332 39.3C111.099 38.6666 111.865 37.8 112.632 36.7C113.299 35.7333 113.899 34.7166 114.432 33.65C114.965 32.5833 115.349 31.8333 115.582 31.4C115.715 31.1333 115.832 30.9666 115.932 30.9C116.065 30.8333 116.149 30.8 116.182 30.8C116.382 30.8 116.482 30.9166 116.482 31.15C116.482 31.3166 116.415 31.5166 116.282 31.75C115.449 33.5166 114.682 35.0166 113.982 36.25C113.282 37.45 112.532 38.4833 111.732 39.35C110.965 40.1833 109.999 40.9166 108.832 41.55C107.665 42.2166 106.182 42.8833 104.382 43.55C103.582 44.9833 102.665 46.4666 101.632 48C100.599 49.5666 99.432 51.0166 98.132 52.35C96.832 53.7166 95.4154 54.8166 93.882 55.65C92.3154 56.5166 90.5987 56.95 88.732 56.95ZM87.532 55.95C88.632 55.95 89.782 55.6166 90.982 54.95C92.1487 54.2833 93.282 53.4333 94.382 52.4C95.482 51.4 96.4987 50.3666 97.432 49.3C98.332 48.2333 99.0654 47.3 99.632 46.5C99.832 46.2333 100.015 45.9333 100.182 45.6C100.349 45.2666 100.515 44.9333 100.682 44.6C99.082 45.0333 97.3154 45.5 95.382 46C93.4487 46.5333 91.7487 47.1166 90.282 47.75C88.682 48.4166 87.432 49.35 86.532 50.55C85.632 51.7833 85.182 52.8833 85.182 53.85C85.182 54.4833 85.382 54.9833 85.782 55.35C86.1487 55.75 86.732 55.95 87.532 55.95Z" fill="black"/>
<path d="M116.669 41.2C115.035 41.2 113.869 40.7833 113.169 39.95C112.502 39.0833 112.169 38.1833 112.169 37.25C112.169 36.4833 112.352 35.7833 112.719 35.15C113.119 34.5166 113.585 34.1833 114.119 34.15C114.785 32.85 115.502 31.4333 116.269 29.9C117.069 28.3666 117.802 26.8833 118.469 25.45C118.935 24.4833 119.519 23.55 120.219 22.65C120.952 21.75 121.752 21.2333 122.619 21.1H123.119C123.385 21.1 123.619 21.1166 123.819 21.15C124.052 21.1833 124.285 21.25 124.519 21.35C124.885 21.5166 125.069 21.7666 125.069 22.1C125.069 22.3 124.952 22.4 124.719 22.4C124.619 22.4 124.485 22.35 124.319 22.25C123.919 22.0833 123.569 22 123.269 22C123.069 22 122.885 22.05 122.719 22.15C122.085 22.4833 121.635 22.95 121.369 23.55C121.135 24.15 121.019 24.7833 121.019 25.45C121.019 25.9833 121.069 26.5333 121.169 27.1C121.302 27.6333 121.452 28.1166 121.619 28.55C121.985 29.4833 122.369 30.4 122.769 31.3C123.202 32.2 123.419 33.1666 123.419 34.2C123.419 35.2 123.085 36.2666 122.419 37.4C121.752 38.5 120.902 39.3833 119.869 40.05L120.219 40.1C120.385 40.1333 120.502 40.15 120.569 40.15C120.635 40.15 120.685 40.15 120.719 40.15C121.485 40.15 122.202 39.9333 122.869 39.5C123.569 39.0333 124.185 38.4666 124.719 37.8C125.252 37.1333 125.852 36.2 126.519 35C127.219 33.8 127.885 32.5333 128.519 31.2C128.619 31.0333 128.735 30.95 128.869 30.95C129.035 30.95 129.152 31.0166 129.219 31.15C129.319 31.25 129.335 31.3833 129.269 31.55C128.835 32.4833 128.335 33.5 127.769 34.6C127.235 35.6666 126.619 36.7 125.919 37.7C125.219 38.6666 124.402 39.4666 123.469 40.1C122.569 40.7 121.552 41 120.419 41C120.152 41 119.869 40.9833 119.569 40.95C119.269 40.9166 118.969 40.85 118.669 40.75C118.335 40.8833 117.985 40.9833 117.619 41.05C117.285 41.15 116.969 41.2 116.669 41.2ZM118.169 39.7C118.735 39.2333 119.235 38.55 119.669 37.65C120.135 36.75 120.369 35.5666 120.369 34.1C120.369 32.8 120.235 31.4166 119.969 29.95C119.702 28.4833 119.569 27.1833 119.569 26.05C119.569 25.8166 119.569 25.6166 119.569 25.45C119.602 25.25 119.635 25.0666 119.669 24.9C119.235 25.8 118.735 26.85 118.169 28.05C117.602 29.2166 117.035 30.35 116.469 31.45C115.902 32.55 115.419 33.4833 115.019 34.25C115.019 34.25 115.102 34.2666 115.269 34.3C115.469 34.3 115.652 34.4166 115.819 34.65C115.985 34.85 116.052 35.2666 116.019 35.9C115.985 36.7333 116.169 37.5166 116.569 38.25C117.002 38.95 117.535 39.4333 118.169 39.7ZM116.269 40.4C116.469 40.4 116.652 40.3833 116.819 40.35C116.985 40.2833 117.135 40.2333 117.269 40.2C116.769 39.8333 116.319 39.35 115.919 38.75C115.552 38.1166 115.335 37.3166 115.269 36.35C114.669 36.9833 114.369 37.6666 114.369 38.4C114.369 38.9333 114.535 39.4 114.869 39.8C115.202 40.2 115.669 40.4 116.269 40.4Z" fill="black"/>
</svg>
