<svg width="575" height="306" viewBox="0 0 575 306" fill="none" xmlns="http://www.w3.org/2000/svg">
<g clip-path="url(#clip0)">
<path opacity="0.1" d="M530.914 241.97C530.273 243.351 529.635 244.713 528.998 246.056C528.004 248.144 527.023 250.19 526.055 252.197C525.624 253.086 525.193 253.958 524.774 254.831C520.025 264.532 515.591 273.113 511.825 280.17C508.408 286.564 503.334 291.922 497.135 295.681C490.936 299.441 483.84 301.464 476.59 301.539L392.851 302.45H391.968L384.789 302.528L378.649 302.594L359.82 302.798H359.058L349.472 302.903H349.179L290.095 303.544L237.356 304.096L231.222 304.162L193.121 304.576H193.077L168.367 304.841H168.101L89.9675 305.686L66.5935 305.94C61.6055 305.996 56.6385 305.285 51.8668 303.831C43.5631 301.322 36.1005 296.598 30.2819 290.164C20.2432 279.104 12.9268 266.2 8.01235 252.197C7.30187 250.176 6.63925 248.129 6.02449 246.056C-10.9883 188.547 9.75174 114.351 47.0794 64.6994C48.6439 62.6232 50.2342 60.5986 51.8502 58.6254L51.8889 58.5813C63.3688 44.4897 76.2402 32.7173 89.9509 24.3463C114.247 9.48721 141.166 5.30171 167.643 17.7754C190.045 28.333 210.962 33.2971 231.238 34.6444C233.287 34.7769 235.335 34.8763 237.373 34.937C283.883 36.4003 327.473 19.6417 378.66 8.82459C380.698 8.3939 382.741 7.96872 384.8 7.56563C421.316 0.298979 461.825 -3.53313 509.997 4.52314C515.002 5.34073 519.94 6.52183 524.774 8.05707C526.898 8.74177 528.944 9.478 530.914 10.2658C553.907 19.6197 566.447 36.9028 571.775 58.5592C572.28 60.5691 572.716 62.614 573.084 64.6939C582.532 116.786 554.862 190.679 530.914 241.97Z" fill="#00BFB8"/>
<g opacity="0.1">
<path opacity="0.1" d="M89.9508 24.3455V305.746L66.5768 306C61.5888 306.056 56.6218 305.345 51.8501 303.891V58.5805H51.8887C63.3686 44.4724 76.2401 32.7 89.9508 24.3455Z" fill="#00BFB8"/>
<path opacity="0.1" d="M573.112 64.6986H47.0793C48.6439 62.6224 50.2342 60.5978 51.8502 58.6247V58.5805H571.803C572.307 60.5794 572.744 62.6188 573.112 64.6986Z" fill="#00BFB8"/>
<path opacity="0.1" d="M530.914 10.2705V246.05H528.998C528.004 248.137 527.023 250.184 526.055 252.19C525.624 253.079 525.193 253.952 524.773 254.824V8.03973C526.898 8.72443 528.944 9.46803 530.914 10.2705Z" fill="#00BFB8"/>
<path opacity="0.1" d="M384.8 7.54828V302.549L378.66 302.615V8.80724C380.698 8.37654 382.741 7.95137 384.8 7.54828Z" fill="#00BFB8"/>
<path opacity="0.1" d="M237.373 34.9197V304.15L231.238 304.217V34.6271C233.287 34.7596 235.335 34.8369 237.373 34.9197Z" fill="#00BFB8"/>
<path opacity="0.1" d="M528.998 246.056C528.004 248.143 527.023 250.19 526.055 252.196H8.01227C7.3018 250.175 6.63918 248.128 6.02441 246.056H528.998Z" fill="#00BFB8"/>
</g>
<path d="M127.334 146.785H116.842V178.624H127.334V146.785Z" fill="#3F3D56"/>
<path d="M409.682 145.129H399.19V178.812H409.682V145.129Z" fill="#3F3D56"/>
<path d="M476.59 294.669V301.848L392.702 302.621L391.808 302.637L359.924 302.93L359.162 302.941L349.472 303.024H349.184L290.112 303.57L193.143 304.47H193.06L168.405 304.702L168.14 304.708L58.5867 305.713V297.43L84.346 281.969L136.03 281.539L137.135 281.533L137.499 281.527L138.604 281.511L163.419 281.307L164.529 281.301L164.882 281.296L165.986 281.29L173.943 281.224L174.153 281.218L193.783 281.053H193.943L347.119 279.761L350.869 279.733H351.244L354.104 279.705L374.894 279.534L375.998 279.518L377.02 279.507H377.55L384.016 279.457L385.297 279.44L387.015 279.429L392.398 279.38L400.941 279.308L402.045 279.297L403.967 279.286H404.326L445.579 278.932L476.59 294.669Z" fill="#65617D"/>
<path opacity="0.2" d="M476.59 294.669V301.848L392.702 302.621L391.808 302.637L359.924 302.93L359.162 302.941L349.472 303.024H349.184L290.112 303.57L193.143 304.47H193.06L168.405 304.702L168.14 304.708L58.5867 305.713V297.43L84.346 281.969L136.03 281.539L137.135 281.533L137.499 281.527L138.604 281.511L163.419 281.307L164.529 281.301L164.882 281.296L165.986 281.29L173.943 281.224L174.153 281.218L193.783 281.053H193.943L347.119 279.761L350.869 279.733H351.244L354.104 279.705L374.894 279.534L375.998 279.518L377.02 279.507H377.55L384.016 279.457L385.297 279.44L387.015 279.429L392.398 279.38L400.941 279.308L402.045 279.297L403.967 279.286H404.326L445.579 278.932L476.59 294.669Z" fill="black"/>
<path d="M163.502 267.066V280.589C163.502 281.229 163.32 281.857 162.978 282.398C162.636 282.94 162.148 283.373 161.569 283.648C161.138 283.857 160.667 283.97 160.188 283.979L140.917 284.388C140.403 284.4 139.892 284.292 139.426 284.073C138.838 283.803 138.339 283.37 137.989 282.825C137.64 282.279 137.454 281.645 137.455 280.997V267.066H163.502Z" fill="#3F3D56"/>
<path opacity="0.1" d="M163.502 267.066V280.589C163.502 281.229 163.32 281.857 162.978 282.398C162.636 282.94 162.148 283.373 161.569 283.648C161.138 283.857 160.667 283.97 160.188 283.979L140.917 284.388C140.403 284.4 139.892 284.292 139.426 284.073C138.838 283.803 138.339 283.37 137.989 282.825C137.64 282.279 137.454 281.645 137.455 280.997V267.066H163.502Z" fill="black"/>
<path d="M164.606 267.066V280.589C164.606 281.229 164.425 281.857 164.083 282.398C163.741 282.94 163.252 283.373 162.673 283.648C162.243 283.857 161.772 283.97 161.293 283.979L142.022 284.388C141.507 284.4 140.997 284.292 140.531 284.073C139.942 283.803 139.443 283.37 139.094 282.825C138.744 282.279 138.559 281.645 138.56 280.997V267.066H164.606Z" fill="#3F3D56"/>
<path d="M402.045 267.066H375.999V284.46H402.045V267.066Z" fill="#3F3D56"/>
<path opacity="0.1" d="M402.045 267.066H375.999V284.46H402.045V267.066Z" fill="black"/>
<path d="M400.941 267.066H374.894V284.46H400.941V267.066Z" fill="#3F3D56"/>
<path opacity="0.1" d="M127.334 146.78V149.944L116.842 149.673V146.78H127.334Z" fill="black"/>
<path d="M196.39 57.6473L183.783 148.204C183.703 148.783 183.413 149.311 182.968 149.689C182.523 150.067 181.954 150.268 181.37 150.253L80.431 147.636L78.5149 147.586C78.1813 147.578 77.8531 147.5 77.5517 147.357C77.2503 147.213 76.9825 147.008 76.7658 146.754C76.549 146.501 76.3882 146.204 76.2938 145.884C76.1994 145.564 76.1735 145.228 76.2178 144.897L90.3703 50.099C90.4615 49.5118 90.7696 48.9802 91.2338 48.6091C91.6979 48.238 92.2843 48.0544 92.8772 48.0946L194.181 54.9527C194.508 54.9716 194.827 55.0581 195.119 55.2066C195.411 55.3552 195.668 55.5627 195.876 55.8158C196.083 56.069 196.236 56.3625 196.325 56.6777C196.413 56.993 196.435 57.3231 196.39 57.6473V57.6473Z" fill="#65617D"/>
<path d="M97.1456 54.7539L86.4719 138.315L179.239 141.258L190.647 60.6401L97.1456 54.7539Z" fill="#00BFB8"/>
<path d="M322.442 53.4618H215.313C213.688 53.4618 212.37 54.7795 212.37 56.4049V146.228C212.37 147.853 213.688 149.171 215.313 149.171H322.442C324.068 149.171 325.385 147.853 325.385 146.228V56.4049C325.385 54.7795 324.068 53.4618 322.442 53.4618Z" fill="#65617D"/>
<path d="M320.41 59.9057H217.704V139.601H320.41V59.9057Z" fill="#00BFB8"/>
<path opacity="0.1" d="M409.682 145.123V147.216L399.19 147.431V145.123H409.682Z" fill="black"/>
<path d="M457.02 143.356C457.035 143.585 457.004 143.814 456.928 144.031C456.852 144.247 456.733 144.446 456.578 144.615C456.424 144.784 456.236 144.92 456.027 145.015C455.819 145.11 455.593 145.162 455.364 145.167L351.995 147.304C351.566 147.313 351.149 147.159 350.828 146.873C350.508 146.588 350.307 146.191 350.267 145.764L341.382 53.3955C341.36 53.1664 341.385 52.9351 341.455 52.7158C341.525 52.4966 341.639 52.2938 341.79 52.1198C341.94 51.9458 342.125 51.8042 342.332 51.7036C342.539 51.6031 342.764 51.5456 342.994 51.5347L445.579 46.4326L446.684 46.3773C447.123 46.3542 447.553 46.5025 447.885 46.791C448.217 47.0795 448.423 47.4855 448.462 47.9235L457.02 143.356Z" fill="#65617D"/>
<path d="M347.285 56.9626L440.974 52.3574L448.887 136.288L355.938 138.497L347.285 56.9626Z" fill="#00BFB8"/>
<path opacity="0.1" d="M457.02 143.356C457.035 143.585 457.004 143.814 456.928 144.031C456.852 144.247 456.733 144.446 456.578 144.615C456.423 144.784 456.236 144.92 456.027 145.015C455.819 145.11 455.593 145.162 455.364 145.167L445.579 46.4326L446.683 46.3773C447.122 46.3542 447.553 46.5025 447.885 46.791C448.217 47.0795 448.423 47.4855 448.461 47.9235L457.02 143.356Z" fill="black"/>
<path opacity="0.1" d="M92.8938 48.0891L80.431 147.636L78.5149 147.586C78.1813 147.578 77.8531 147.5 77.5517 147.357C77.2503 147.213 76.9825 147.008 76.7658 146.754C76.549 146.501 76.3882 146.204 76.2938 145.884C76.1994 145.564 76.1735 145.228 76.2178 144.897L90.3703 50.099C90.4605 49.5077 90.7704 48.9723 91.2383 48.5997C91.7061 48.227 92.2973 48.0447 92.8938 48.0891V48.0891Z" fill="black"/>
<path opacity="0.1" d="M127.334 169.193H116.842V178.624H127.334V169.193Z" fill="black"/>
<path opacity="0.1" d="M164.606 267.06V269.805L138.56 270.501V267.06H164.606Z" fill="black"/>
<path d="M210.575 172.478V265.354C210.569 265.921 210.344 266.464 209.948 266.87C209.553 267.276 209.016 267.514 208.449 267.535L102.623 270.351H102.596C102.019 270.344 101.469 270.112 101.061 269.705C100.654 269.297 100.422 268.747 100.415 268.17V172.478C100.422 171.902 100.654 171.351 101.061 170.944C101.469 170.536 102.019 170.304 102.596 170.297H208.394C208.97 170.304 209.521 170.536 209.928 170.944C210.336 171.351 210.568 171.902 210.575 172.478V172.478Z" fill="#65617D"/>
<path opacity="0.1" d="M102.623 170.297V270.351H102.596C102.019 270.344 101.469 270.112 101.061 269.705C100.654 269.297 100.422 268.747 100.415 268.17V172.478C100.422 171.902 100.654 171.351 101.061 170.944C101.469 170.536 102.019 170.304 102.596 170.297H102.623Z" fill="black"/>
<path d="M107.455 176.227H205.468V258.088L107.455 260.296V176.227Z" fill="#D4DFEC"/>
<path opacity="0.1" d="M409.682 169.193H399.19V178.812H409.682V169.193Z" fill="black"/>
<path opacity="0.1" d="M400.941 267.06V270.6L374.894 269.904V267.06H400.941Z" fill="black"/>
<path d="M435.314 172.478V268.17C435.307 268.751 435.071 269.306 434.658 269.714C434.244 270.123 433.686 270.352 433.105 270.351V270.351L327.257 267.535C326.691 267.514 326.154 267.276 325.758 266.87C325.362 266.464 325.138 265.921 325.131 265.354V172.478C325.139 171.902 325.371 171.351 325.778 170.944C326.186 170.536 326.736 170.304 327.312 170.297H433.111C433.691 170.298 434.247 170.528 434.66 170.936C435.072 171.344 435.307 171.898 435.314 172.478V172.478Z" fill="#65617D"/>
<path opacity="0.1" d="M435.314 172.478V268.17C435.307 268.751 435.071 269.306 434.658 269.714C434.244 270.123 433.686 270.352 433.105 270.351V270.351V170.297C433.686 170.297 434.244 170.526 434.658 170.934C435.071 171.342 435.307 171.897 435.314 172.478Z" fill="black"/>
<path d="M428.274 176.227H330.261V258.088L428.274 260.296V176.227Z" fill="#D4DFEC"/>
<path d="M322.393 172.478V265.354C322.386 265.921 322.161 266.464 321.766 266.87C321.37 267.276 320.833 267.514 320.267 267.535L214.441 270.351C213.86 270.352 213.302 270.123 212.889 269.714C212.475 269.306 212.239 268.751 212.232 268.17V172.478C212.239 171.902 212.471 171.351 212.879 170.944C213.286 170.536 213.837 170.304 214.413 170.297H320.211C320.788 170.304 321.338 170.536 321.746 170.944C322.153 171.351 322.385 171.902 322.393 172.478V172.478Z" fill="#65617D"/>
<path d="M219.272 176.227H317.285V258.088L219.272 260.296V176.227Z" fill="#D4DFEC"/>
<path opacity="0.1" d="M476.59 294.669V301.848L392.702 302.621L391.808 302.637L359.924 302.93L359.162 302.941L349.472 303.024H349.184L290.112 303.57L193.143 304.47H193.06L168.405 304.702L168.14 304.708L58.5867 305.713V297.43L170.409 296.696H170.674L193.308 296.541H193.413L349.726 295.509H349.886L349.98 295.503H350.239L352.884 295.487H353.69L394.822 295.21L397.252 295.199L397.793 295.194L476.59 294.669Z" fill="black"/>
<path d="M269.057 178.624C284.711 178.624 297.401 165.934 297.401 150.281C297.401 134.627 284.711 121.937 269.057 121.937C253.403 121.937 240.713 134.627 240.713 150.281C240.713 165.934 253.403 178.624 269.057 178.624Z" fill="#FBBEBE"/>
<path d="M297.406 208.259C297.406 208.259 242.464 214.885 247.71 208.259C249.609 205.863 250.134 198.762 250.029 190.672C249.996 188.215 249.907 185.67 249.78 183.135C249.173 170.987 247.71 159.115 247.71 159.115C247.71 159.115 295.75 136.476 290.228 154.422C288.019 161.672 288.742 171.854 290.421 181.412C290.912 184.201 291.481 186.934 292.077 189.529C293.533 195.859 295.311 202.111 297.406 208.259V208.259Z" fill="#FBBEBE"/>
<path opacity="0.1" d="M297.406 208.259C297.406 208.259 242.464 214.885 247.71 208.259C249.609 205.863 250.134 198.762 250.029 190.672C258.405 187.094 269.062 189.761 269.062 189.761C280.283 187.525 287.478 187.961 292.077 189.529C293.533 195.859 295.311 202.111 297.406 208.259V208.259Z" fill="black"/>
<path d="M193.121 305.094V304.631L290.095 303.576L349.179 303.024H349.345L349.284 303.841L349.367 303.024H349.472V302.93L350.228 295.503L350.515 292.693L350.604 291.815L350.681 291.08L354.093 279.7L357.506 268.336L360.377 258.767L364.762 244.145C364.762 244.145 362.277 238.347 360.896 236.691C359.516 235.034 358.135 223.715 358.135 223.715C358.135 223.715 346.352 212.489 341.2 211.197C339.041 210.645 334.778 209.91 330.25 208.988C328.555 208.646 326.816 208.281 325.142 207.884C324.198 207.668 323.271 207.442 322.382 207.216C320.651 206.783 318.946 206.256 317.274 205.636C316.397 205.318 315.563 204.893 314.789 204.372C310.73 201.396 300.559 201.059 300.167 201.059C300.166 201.046 300.166 201.033 300.167 201.02V200.97C300.181 200.739 300.181 200.506 300.167 200.275C300.167 200.054 300.167 199.794 300.117 199.502C300.117 199.413 300.118 199.319 300.079 199.226C300.051 199.027 300.018 198.817 299.968 198.596C299.952 198.497 299.93 198.4 299.902 198.303C299.742 197.638 299.511 196.992 299.212 196.376C299.173 196.288 299.124 196.194 299.079 196.106C298.809 195.596 298.495 195.11 298.141 194.654C298.069 194.56 297.992 194.46 297.909 194.366C297.456 193.833 296.953 193.345 296.407 192.909C296.258 192.793 296.103 192.671 295.943 192.561C295.854 192.488 295.76 192.422 295.661 192.362L295.17 192.042L294.712 191.777C294.309 191.556 293.883 191.34 293.419 191.136C293.276 191.07 293.121 191.009 292.967 190.948C292.812 190.888 292.569 190.794 292.365 190.716H292.332L291.918 190.551C291.603 190.446 291.283 190.352 290.946 190.258L290.432 190.126L289.88 189.999L289.328 189.883C288.776 189.772 288.185 189.673 287.566 189.596L286.937 189.518L286.291 189.452L285.623 189.397L284.673 189.342L283.569 189.303C278.698 189.302 273.841 189.819 269.079 190.844C265.771 190.107 262.383 189.796 258.996 189.916H258.516L257.964 189.949H257.61L256.898 190.015C256.661 190.015 256.418 190.065 256.18 190.098C255.943 190.131 255.694 190.159 255.457 190.197L255.092 190.258C254.734 190.319 254.369 190.385 253.988 190.463C253.867 190.485 253.745 190.512 253.624 190.545C253.143 190.65 252.663 190.777 252.188 190.921C251.95 190.987 251.713 191.064 251.476 191.147C251.354 191.18 251.238 191.224 251.122 191.269L250.769 191.396L250.421 191.534L250.007 191.699C249.797 191.788 249.593 191.882 249.388 191.981C249.272 192.031 249.156 192.086 249.046 192.147C248.936 192.207 248.82 192.257 248.715 192.318C247.466 192.963 246.312 193.777 245.286 194.736L245.004 195.007L244.728 195.289C244.634 195.382 244.546 195.482 244.457 195.581C244.097 195.975 243.762 196.389 243.452 196.824C243.364 196.94 243.281 197.055 243.198 197.177C242.848 197.694 242.531 198.232 242.249 198.789C242.177 198.922 242.111 199.06 242.044 199.192C241.594 200.125 241.224 201.095 240.94 202.091C240.837 202.459 240.743 202.828 240.658 203.196C240.658 203.196 228.969 208.353 219.272 212.086C216.694 213.08 214.264 213.98 212.232 214.659C211.641 214.858 211.089 215.04 210.575 215.211C209.461 215.614 208.302 215.881 207.124 216.006C206.569 216.015 206.015 216.067 205.468 216.161C201.012 216.884 193.375 220.026 192.541 223.179C192.473 223.431 192.455 223.693 192.486 223.952C192.486 223.952 192.486 223.991 192.486 224.013C193.038 227.878 189.173 227.326 189.173 227.326C189.173 227.326 187.792 237.541 185.86 240.302C184.463 242.29 183.507 246.724 183.386 250.07C183.316 251.113 183.398 252.16 183.629 253.179C183.629 253.206 183.629 253.234 183.629 253.256C183.85 253.996 183.32 256.017 182.42 258.607C181.442 261.45 180.018 264.984 178.648 268.319C176.583 273.355 174.639 277.927 174.518 278.932C174.468 279.38 174.324 280.18 174.126 281.213C173.32 285.42 171.53 293.432 170.647 296.674C169.99 299.092 169.035 302.405 168.377 304.68C168.377 304.747 168.339 304.813 168.322 304.874L193.077 304.631V305.094H193.154H193.121Z" fill="#00BFB8"/>
<path opacity="0.1" d="M202.155 240.009C202.155 240.009 233.629 256.299 244.949 254.366L202.155 240.009Z" fill="black"/>
<path opacity="0.1" d="M266.208 233.383C266.208 233.383 296.854 243.322 307.069 244.703C317.285 246.083 266.208 233.383 266.208 233.383Z" fill="black"/>
<path opacity="0.1" d="M300.2 201.401C284.187 204.35 254.038 203.715 241.006 203.267C245.782 186.15 269.074 191.97 269.074 191.97C297.903 186.216 300.112 198.154 300.2 201.401Z" fill="black"/>
<path d="M300.2 200.297C284.187 203.245 254.038 202.61 241.006 202.163C245.782 185.046 269.074 190.866 269.074 190.866C297.903 185.112 300.112 197.05 300.2 200.297Z" fill="#00BFB8"/>
<path d="M385.203 275.763C385.203 275.763 404.066 272.864 404.436 281.146C404.806 289.429 394.817 295.216 394.817 295.216L385.203 275.763Z" fill="#FBBEBE"/>
<path opacity="0.1" d="M290.421 181.412C289.61 181.775 288.78 182.096 287.936 182.373C281.984 184.427 275.981 186.498 269.714 187.249C263.447 188 256.87 187.337 251.404 184.212C250.83 183.888 250.277 183.528 249.747 183.135C249.14 170.987 247.677 159.115 247.677 159.115C247.677 159.115 295.717 136.476 290.195 154.422C287.997 161.672 288.742 171.854 290.421 181.412Z" fill="black"/>
<path d="M261.282 105.979C260.494 106.187 259.668 106.209 258.871 106.041C258.073 105.873 257.326 105.521 256.688 105.013L257.837 106.609C257.16 106.687 256.474 106.616 255.827 106.402C255.181 106.187 254.589 105.834 254.093 105.366C253.989 106.795 254.048 108.231 254.269 109.646C252.369 109.737 250.498 109.15 248.991 107.989C248.961 108.487 249.085 108.983 249.346 109.408C249.606 109.834 249.991 110.169 250.448 110.369C248.539 110.141 246.612 110.615 245.027 111.704C243.442 112.792 242.307 114.419 241.834 116.283L244.717 116.548C242.451 117.032 240.418 118.272 238.952 120.065C238.068 121.17 237.395 122.583 237.781 123.931C238.168 125.278 240.034 126.139 241.05 125.179C239.605 126.904 238.555 128.924 237.973 131.098C237.391 133.272 237.292 135.546 237.682 137.763C237.944 138.707 238.03 139.692 237.936 140.667C237.754 141.578 237.179 142.368 236.892 143.257C236.34 144.869 236.865 146.62 237.356 148.226L239.946 156.741C240.885 159.817 241.818 162.898 243.044 165.874C243.912 167.756 244.65 169.695 245.252 171.677C245.948 174.35 245.976 177.276 247.461 179.612C248.479 181.082 249.84 182.282 251.426 183.107C256.887 186.233 263.485 186.895 269.736 186.144C275.987 185.393 281.984 183.323 287.931 181.269C289.252 180.871 290.52 180.315 291.708 179.612C295.821 176.918 296.738 171.407 297.505 166.553C298.361 161.142 299.504 155.742 301.531 150.65C302.735 147.619 304.292 144.543 304.027 141.297C303.69 136.984 300.277 133.489 299.433 129.248C299.15 127.831 299.163 126.37 299.471 124.958C299.733 124.116 299.88 123.243 299.907 122.362C299.814 120.584 298.356 119.215 296.986 118.072C294.016 115.591 290.949 113.246 287.787 111.037C287.627 109.933 289.129 109.458 289.808 108.586C290.769 107.354 289.775 105.4 288.317 104.825C286.859 104.251 285.225 104.627 283.706 105.008C283.805 104.23 283.651 103.442 283.266 102.76C282.881 102.077 282.285 101.537 281.569 101.22C280.852 100.903 280.053 100.826 279.289 101C278.525 101.174 277.837 101.59 277.329 102.186C276.925 101.261 276.281 100.462 275.463 99.8712C274.645 99.2806 273.684 98.9206 272.679 98.8287C269.018 98.5415 268.947 101.341 266.605 102.882C264.264 104.422 262.331 102.39 260.531 100.91C260.2 101.747 260.096 102.656 260.228 103.545C260.359 104.435 260.723 105.275 261.282 105.979V105.979Z" fill="#3F3D56"/>
<path d="M399.19 292.328C399.19 292.328 398.699 293.499 397.793 295.194C396.423 297.802 394.756 300.242 392.824 302.466L392.675 302.626H391.78L359.897 302.919H359.135L359.041 302.808L352.857 295.47L350.526 292.704L350.432 292.588L350.234 292.356L350.123 292.223L349.98 292.052L345.446 286.674L347.103 279.772L349.924 268.143L349.996 267.861L350.548 265.652L350.941 263.996L352.255 258.596L356.761 240.015L364.767 244.156L373.21 259.065L377.743 267.072H380.228C380.698 267.072 381.774 267.977 382.857 269.021C383.243 269.391 383.63 269.783 383.961 270.125C384.944 271.141 385.723 272.014 385.723 272.014C385.723 272.014 389.748 272.102 390.83 275.271C390.886 275.425 390.932 275.581 390.968 275.741C391.328 276.987 391.795 278.199 392.365 279.363C393.078 280.915 393.972 282.676 394.878 284.437C396.562 287.668 398.274 290.743 398.903 291.859L398.98 291.997L399.19 292.328Z" fill="#00BFB8"/>
<path opacity="0.1" d="M351.758 267.397L351.703 268.187V268.242L351.609 269.512L350.874 279.733L349.985 292.047L349.731 295.514L349.179 302.935V303.029L290.095 303.582L193.137 304.631V305.094H193.06V304.631V304.476L193.309 296.547L193.783 281.053L194.192 267.916L194.231 266.608C194.255 265.818 194.44 265.041 194.774 264.325C195.109 263.609 195.585 262.969 196.176 262.443C196.766 261.918 197.457 261.518 198.207 261.268C198.956 261.019 199.749 260.925 200.537 260.992C203.143 261.213 206.528 261.484 210.575 261.771L212.232 261.892C235.606 263.516 278.803 265.614 322.393 262.997C323.309 262.947 324.231 262.892 325.154 262.825C331.912 262.4 338.665 261.854 345.352 261.169C346.198 261.08 347.052 261.178 347.856 261.455C348.659 261.733 349.392 262.183 350.003 262.774C350.613 263.365 351.087 264.083 351.39 264.877C351.693 265.671 351.819 266.522 351.758 267.37V267.397Z" fill="black"/>
<path d="M193.121 305.094V304.631L290.095 303.576L349.179 303.024H349.345V302.93L349.897 295.509L350.134 292.196L351.04 279.711L351.752 269.827V269.584C351.785 269.129 351.765 268.671 351.691 268.22C351.695 268.202 351.695 268.183 351.691 268.165C351.54 267.233 351.16 266.353 350.587 265.603C349.979 264.823 349.182 264.211 348.272 263.825C347.362 263.438 346.369 263.29 345.386 263.394C338.699 264.079 331.945 264.625 325.187 265.051C324.264 265.117 323.342 265.172 322.426 265.222C278.836 267.811 235.639 265.713 212.265 264.117L210.609 263.996C206.561 263.709 203.176 263.444 200.57 263.217C199.136 263.096 197.708 263.511 196.562 264.381C195.416 265.25 194.633 266.514 194.363 267.927C194.308 268.226 194.274 268.529 194.264 268.833L193.888 281.069L193.375 296.569L193.132 304.498V304.653V305.117L193.121 305.094Z" fill="#3F3D56"/>
<path opacity="0.1" d="M351.923 271.268L351.244 279.733L350.234 292.35L349.98 295.509L349.427 302.582L349.394 302.935V303.029L349.311 303.847L349.372 303.029H349.212L290.128 303.581L193.137 304.631V304.476L193.408 296.547L193.96 281.053L194.313 270.755C194.331 270.169 194.494 269.597 194.79 269.09C195.085 268.584 195.502 268.159 196.003 267.856C196.628 267.472 197.359 267.298 198.09 267.359C199.25 267.452 200.675 267.563 202.337 267.684C205.037 267.883 208.366 268.115 212.243 268.358C219.421 268.811 228.427 269.297 238.748 269.694C267.461 270.799 306.224 271.169 343.044 267.944C344.701 267.8 346.412 267.64 348.085 267.48C348.748 267.414 349.415 267.541 350.007 267.845C350.175 267.928 350.334 268.028 350.482 268.143C350.963 268.491 351.343 268.959 351.586 269.501C351.643 269.609 351.689 269.722 351.724 269.838C351.89 270.295 351.958 270.783 351.923 271.268V271.268Z" fill="black"/>
<path opacity="0.1" d="M164.606 278.827V280.589C164.606 281.229 164.425 281.857 164.083 282.398C163.741 282.94 163.252 283.373 162.673 283.648L140.531 284.073C139.942 283.803 139.443 283.37 139.094 282.825C138.744 282.279 138.559 281.645 138.56 280.997V279.341L164.606 278.827Z" fill="black"/>
<path d="M164.882 284.686L136.031 285.238V280.451L164.882 279.899V284.686Z" fill="#3F3D56"/>
<path opacity="0.1" d="M164.882 284.686L136.031 285.238V280.451L164.882 279.899V284.686Z" fill="black"/>
<path d="M165.986 284.686L137.135 285.238V280.451L165.986 279.899V284.686Z" fill="#3F3D56"/>
<g opacity="0.1">
<path opacity="0.1" d="M261.509 104.168C260.969 103.467 260.611 102.644 260.465 101.772C260.332 102.625 260.412 103.497 260.697 104.312C260.971 104.287 261.242 104.238 261.509 104.168Z" fill="black"/>
<path opacity="0.1" d="M254.496 107.835C254.392 107.158 254.323 106.476 254.292 105.792C254.292 106.471 254.292 107.155 254.292 107.84L254.496 107.835Z" fill="black"/>
<path opacity="0.1" d="M299.499 126.261C299.529 125.769 299.596 125.28 299.698 124.798C299.959 123.958 300.107 123.087 300.139 122.208C300.127 122.011 300.098 121.815 300.051 121.623C299.957 122.131 299.808 122.639 299.698 123.141C299.477 124.165 299.41 125.217 299.499 126.261Z" fill="black"/>
<path opacity="0.1" d="M288.014 109.199L288.615 109.635C289.123 109.268 289.598 108.858 290.035 108.409C290.242 108.122 290.371 107.785 290.408 107.432C290.445 107.079 290.388 106.723 290.244 106.399C290.189 106.525 290.119 106.644 290.035 106.752C289.355 107.625 287.853 108.105 288.014 109.199Z" fill="black"/>
<path opacity="0.1" d="M242.641 114.51C242.439 114.913 242.278 115.335 242.16 115.769C243.024 115.287 243.954 114.936 244.921 114.726L242.641 114.51Z" fill="black"/>
<path opacity="0.1" d="M250.255 108.503C249.893 108.303 249.546 108.076 249.217 107.824C249.203 108.042 249.22 108.261 249.267 108.475C249.597 108.46 249.927 108.469 250.255 108.503V108.503Z" fill="black"/>
<path opacity="0.1" d="M304.242 141.037C304.016 143.715 302.768 146.294 301.757 148.834C299.731 153.925 298.588 159.325 297.732 164.742C296.964 169.596 296.075 175.106 291.934 177.796C290.751 178.502 289.484 179.059 288.163 179.452C282.21 181.512 276.208 183.577 269.941 184.328C263.673 185.079 257.097 184.422 251.63 181.296C250.045 180.469 248.685 179.27 247.665 177.801C246.191 175.465 246.163 172.539 245.457 169.866C244.854 167.882 244.116 165.941 243.248 164.057C242.028 161.087 241.089 157.983 240.156 154.93C239.291 152.092 238.427 149.252 237.566 146.41C237.282 145.555 237.072 144.677 236.936 143.787C236.721 145.201 237.141 146.68 237.566 148.066C238.427 150.912 239.291 153.752 240.156 156.586C241.089 159.662 242.028 162.743 243.248 165.714C244.116 167.597 244.854 169.538 245.457 171.523C246.152 174.195 246.18 177.122 247.665 179.458C248.685 180.926 250.045 182.126 251.63 182.953C257.097 186.078 263.69 186.735 269.941 185.984C276.191 185.233 282.188 183.168 288.163 181.109C289.484 180.715 290.751 180.159 291.934 179.452C296.048 176.763 296.964 171.252 297.732 166.399C298.588 160.982 299.731 155.581 301.757 150.49C302.961 147.464 304.518 144.389 304.253 141.137C304.253 141.103 304.242 141.07 304.242 141.037Z" fill="black"/>
<path opacity="0.1" d="M238.151 138.9C238.151 138.9 238.151 138.862 238.151 138.839C238.251 137.866 238.165 136.882 237.897 135.941C237.787 135.335 237.715 134.722 237.682 134.107C237.618 135.275 237.691 136.446 237.897 137.597C237.986 138.028 238.085 138.464 238.151 138.9Z" fill="black"/>
<path opacity="0.1" d="M239.836 125.394C240.26 124.68 240.742 124.003 241.277 123.367C240.266 124.334 238.4 123.472 238.008 122.131C237.863 122.673 237.863 123.244 238.008 123.787C238.144 124.192 238.384 124.554 238.705 124.836C239.026 125.119 239.416 125.311 239.836 125.394V125.394Z" fill="black"/>
</g>
<path opacity="0.1" d="M377.749 267.066C377.749 267.066 379.499 273.416 377.749 278.938C375.999 284.46 377.749 267.066 377.749 267.066Z" fill="black"/>
<path opacity="0.1" d="M385.203 273.543C385.203 273.543 385.938 281.605 384.281 283.035C382.625 284.465 385.203 273.543 385.203 273.543Z" fill="black"/>
<path d="M109.879 189.319L165.987 188.767" stroke="#00BFB8" stroke-width="2" stroke-miterlimit="10"/>
<path d="M109.879 196.205L165.987 195.658" stroke="#00BFB8" stroke-width="2" stroke-miterlimit="10"/>
<path d="M109.879 203.096L165.987 202.544" stroke="#00BFB8" stroke-width="2" stroke-miterlimit="10"/>
</g>
<defs>
<clipPath id="clip0">
<rect width="575" height="306" fill="white"/>
</clipPath>
</defs>
</svg>
