<svg width="1440" height="815" viewBox="0 0 1440 815" fill="none" xmlns="http://www.w3.org/2000/svg">
<g clip-path="url(#clip0_205_3)">
<path d="M1440 0H0V814.796H1440V0Z" fill="#EFEDE4"/>
<path d="M992.25 748.39C994.5 747.168 1014.57 739.631 1015.29 740.752C1015.74 741.464 1011.78 764.992 1011.15 765.705C1010.97 766.01 996.75 753.177 992.25 748.39ZM1103.67 233.337C1103.67 233.235 1099.26 223.763 1097.37 218.875C1097.28 218.569 1097.1 217.754 1097.01 217.245C1096.92 216.838 1096.74 216.532 1096.47 216.328C1096.2 216.125 1095.93 216.227 1095.75 216.43L1083.96 228.958C1083.78 229.161 1083.69 229.467 1083.6 229.773C1083.6 230.078 1083.6 230.485 1083.78 230.791C1083.87 230.893 1085.04 233.337 1085.67 234.458C1087.83 238.226 1091.52 246.781 1091.52 246.883C1091.7 247.189 1091.88 247.392 1092.15 247.494C1092.42 247.494 1092.6 247.392 1092.78 247.189C1092.78 247.189 1094.4 244.643 1095.21 243.522C1096.56 241.893 1097.91 240.263 1099.35 238.735C1100.43 237.513 1100.79 237.309 1101.24 237.106C1101.69 236.8 1102.23 236.596 1103.49 235.171C1103.85 234.661 1103.94 233.847 1103.67 233.337ZM29.7001 784.547C29.7001 783.834 29.2501 783.325 28.6201 783.325C28.5301 783.325 28.3501 783.325 28.2601 783.426C26.8201 783.63 15.3901 783.528 8.28011 783.426C8.01011 783.426 7.74011 783.528 7.47011 783.834C7.29011 784.038 7.11011 784.343 7.11011 784.75C7.11011 784.954 7.11011 789.741 7.20011 790.76L7.56011 804.611C7.56011 804.917 7.74011 805.222 7.92011 805.528C8.10011 805.732 8.37011 805.833 8.64011 805.833H8.73011C15.3001 805.12 21.9601 804.917 28.5301 805.222C28.8001 805.222 29.1601 805.12 29.3401 804.917C29.5201 804.713 29.7001 804.306 29.7001 804C29.6101 797.787 29.6101 790.556 29.7001 784.547Z" fill="#EC813A"/>
<path d="M153.99 390.491C155.16 387.945 166.86 368.084 168.03 368.492C168.75 368.797 178.38 390.084 178.38 391C178.29 391.306 160.11 391.102 153.99 390.491ZM536.76 724.965C536.67 724.863 530.73 716.613 528.03 712.234C527.85 711.928 527.58 711.215 527.4 710.706C527.22 710.299 527.04 709.993 526.77 709.891C526.5 709.789 526.23 709.891 526.05 710.197L516.6 725.169C516.42 725.372 516.42 725.678 516.42 726.085C516.42 726.391 516.6 726.798 516.78 727.002C516.87 727.104 518.4 729.243 519.3 730.159C522.09 733.317 527.22 740.853 527.31 740.955C527.49 741.261 527.76 741.363 528.03 741.363C528.3 741.363 528.48 741.159 528.57 740.853C528.57 740.853 529.65 738.002 530.37 736.678C531.36 734.742 532.44 732.909 533.52 731.076C534.33 729.65 534.69 729.344 535.05 729.039C535.5 728.631 535.95 728.326 536.94 726.594C537.21 726.289 537.12 725.474 536.76 724.965ZM654.75 183.227C655.29 183.431 655.92 183.024 656.01 182.412C656.01 182.311 656.01 182.209 656.01 182.005C656.19 180.579 658.53 169.172 660.06 162.144C660.15 161.839 660.06 161.533 659.88 161.33C659.7 161.024 659.43 160.922 659.16 160.82C658.98 160.82 654.93 159.7 654.03 159.496L641.97 156.746C641.7 156.645 641.34 156.746 641.16 156.95C640.98 157.154 640.8 157.358 640.71 157.561V157.663C639.99 164.283 638.73 171.005 637.2 177.422C637.11 177.727 637.2 178.033 637.38 178.339C637.56 178.644 637.83 178.746 638.1 178.848C643.32 180.172 649.53 181.801 654.75 183.227Z" fill="#00BFB8"/>
<path d="M213.484 639.297L212.853 641.652C212.769 641.966 212.598 642.197 212.339 642.347C212.08 642.496 211.794 642.529 211.48 642.445L189.531 636.564C189.217 636.479 188.985 636.308 188.836 636.049C188.686 635.79 188.654 635.504 188.738 635.19L194.619 613.241C194.703 612.927 194.875 612.695 195.133 612.546C195.392 612.397 195.679 612.364 195.993 612.448L198.348 613.079C198.662 613.163 198.893 613.335 199.043 613.594C199.192 613.852 199.225 614.139 199.141 614.453L194.181 632.963L212.691 637.923C213.005 638.007 213.237 638.179 213.386 638.437C213.536 638.696 213.568 638.983 213.484 639.297ZM212.737 597.247L223.856 642.227C223.925 642.532 223.883 642.815 223.729 643.077C223.575 643.338 223.355 643.498 223.07 643.556L220.926 644.118C220.621 644.187 220.338 644.145 220.076 643.991C219.815 643.837 219.649 643.607 219.579 643.303L208.461 598.322C208.391 598.017 208.433 597.734 208.587 597.473C208.741 597.211 208.961 597.051 209.246 596.993L211.39 596.432C211.695 596.362 211.978 596.404 212.24 596.558C212.501 596.712 212.667 596.942 212.737 597.247ZM243.578 605.359L237.697 627.308C237.613 627.622 237.442 627.854 237.183 628.003C236.924 628.153 236.638 628.185 236.324 628.101L233.969 627.47C233.655 627.386 233.423 627.214 233.274 626.956C233.124 626.697 233.091 626.41 233.176 626.096L238.135 607.586L219.625 602.626C219.311 602.542 219.079 602.37 218.93 602.112C218.78 601.853 218.748 601.566 218.832 601.252L219.463 598.897C219.547 598.583 219.719 598.352 219.977 598.202C220.236 598.053 220.523 598.02 220.837 598.104L242.785 603.986C243.099 604.07 243.331 604.241 243.481 604.5C243.63 604.759 243.663 605.045 243.578 605.359Z" fill="white"/>
<path d="M641.484 484.297L640.853 486.652C640.769 486.966 640.598 487.197 640.339 487.347C640.08 487.496 639.794 487.529 639.48 487.445L617.531 481.564C617.217 481.479 616.985 481.308 616.836 481.049C616.686 480.79 616.654 480.504 616.738 480.19L622.619 458.241C622.703 457.927 622.875 457.695 623.133 457.546C623.392 457.397 623.679 457.364 623.993 457.448L626.348 458.079C626.662 458.163 626.893 458.335 627.043 458.593C627.192 458.852 627.225 459.139 627.141 459.453L622.181 477.963L640.691 482.923C641.005 483.007 641.237 483.179 641.386 483.437C641.536 483.696 641.568 483.983 641.484 484.297ZM640.737 442.247L651.856 487.227C651.925 487.532 651.883 487.815 651.729 488.077C651.575 488.338 651.355 488.498 651.07 488.556L648.926 489.118C648.621 489.187 648.338 489.145 648.076 488.991C647.815 488.837 647.649 488.607 647.579 488.302L636.461 443.322C636.391 443.017 636.433 442.734 636.587 442.473C636.741 442.211 636.961 442.051 637.246 441.993L639.39 441.431C639.695 441.362 639.978 441.404 640.24 441.558C640.501 441.712 640.667 441.942 640.737 442.247ZM671.578 450.359L665.697 472.308C665.613 472.622 665.442 472.854 665.183 473.003C664.924 473.153 664.638 473.185 664.324 473.101L661.969 472.47C661.655 472.386 661.423 472.214 661.274 471.956C661.124 471.697 661.091 471.41 661.176 471.096L666.135 452.586L647.625 447.626C647.311 447.542 647.079 447.37 646.93 447.112C646.78 446.853 646.748 446.566 646.832 446.252L647.463 443.897C647.547 443.583 647.719 443.352 647.977 443.202C648.236 443.053 648.523 443.02 648.837 443.104L670.785 448.986C671.099 449.07 671.331 449.241 671.481 449.5C671.63 449.759 671.663 450.045 671.578 450.359Z" fill="white"/>
<path d="M1363.92 280.643C1362.25 280.026 1360.42 280.003 1358.73 280.577C1357.05 281.151 1355.63 282.288 1354.7 283.793C1353.77 285.298 1353.4 287.079 1353.65 288.833C1353.89 290.586 1354.74 292.205 1356.05 293.412C1355.36 294.149 1354.47 294.665 1353.48 294.895C1352.49 295.125 1351.46 295.058 1350.5 294.704L1340.86 291.14C1339.15 290.518 1337.32 290.365 1335.54 290.696L1340.61 276.974C1342.43 277.005 1344.19 276.396 1345.59 275.256C1347 274.116 1347.95 272.517 1348.27 270.743C1348.6 268.969 1348.29 267.133 1347.38 265.561C1346.48 263.988 1345.05 262.78 1343.34 262.149C1341.64 261.519 1339.76 261.506 1338.06 262.115C1336.35 262.723 1334.91 263.913 1334.01 265.474C1333.1 267.034 1332.79 268.866 1333.11 270.644C1333.44 272.423 1334.38 274.033 1335.78 275.192L1328.4 295.177C1326.6 295.157 1324.86 295.762 1323.47 296.888C1322.08 298.014 1321.13 299.589 1320.79 301.342C1320.45 303.095 1320.74 304.914 1321.61 306.484C1322.47 308.054 1323.86 309.276 1325.54 309.939C1327.21 310.601 1329.07 310.663 1330.77 310.112C1332.48 309.561 1333.94 308.433 1334.89 306.923C1335.84 305.413 1336.23 303.617 1335.99 301.845C1335.75 300.073 1334.89 298.437 1333.57 297.222C1334.25 296.488 1335.14 295.973 1336.13 295.742C1337.11 295.51 1338.14 295.573 1339.09 295.921L1348.74 299.485C1350.95 300.3 1353.36 300.34 1355.59 299.6C1357.81 298.859 1359.71 297.382 1360.96 295.415C1362.77 295.468 1364.54 294.883 1365.96 293.765C1367.37 292.647 1368.34 291.066 1368.7 289.301C1369.05 287.537 1368.77 285.701 1367.89 284.117C1367.02 282.533 1365.61 281.303 1363.92 280.643ZM1341.57 266.951C1342.05 267.127 1342.46 267.439 1342.76 267.849C1343.06 268.258 1343.23 268.745 1343.25 269.25C1343.27 269.754 1343.14 270.252 1342.88 270.682C1342.62 271.111 1342.23 271.452 1341.77 271.662C1341.31 271.872 1340.79 271.94 1340.29 271.86C1339.79 271.779 1339.32 271.553 1338.95 271.209C1338.57 270.865 1338.31 270.42 1338.19 269.929C1338.07 269.437 1338.1 268.923 1338.27 268.45C1338.51 267.816 1338.99 267.302 1339.6 267.021C1340.22 266.74 1340.93 266.714 1341.57 266.951ZM1327.44 305.201C1326.96 305.024 1326.55 304.712 1326.25 304.303C1325.95 303.893 1325.78 303.406 1325.76 302.902C1325.73 302.397 1325.86 301.899 1326.13 301.47C1326.39 301.04 1326.78 300.699 1327.24 300.489C1327.7 300.28 1328.22 300.211 1328.72 300.291C1329.22 300.372 1329.69 300.599 1330.06 300.942C1330.43 301.286 1330.7 301.732 1330.82 302.223C1330.94 302.714 1330.91 303.228 1330.73 303.701C1330.5 304.335 1330.02 304.849 1329.4 305.131C1328.78 305.412 1328.08 305.437 1327.44 305.201ZM1360.39 290.205C1359.91 290.029 1359.5 289.716 1359.2 289.307C1358.9 288.898 1358.73 288.41 1358.71 287.906C1358.69 287.402 1358.82 286.904 1359.08 286.474C1359.34 286.045 1359.73 285.704 1360.19 285.494C1360.65 285.284 1361.17 285.215 1361.67 285.296C1362.17 285.377 1362.64 285.603 1363.01 285.947C1363.39 286.291 1363.65 286.736 1363.77 287.227C1363.89 287.718 1363.86 288.233 1363.69 288.706C1363.45 289.34 1362.97 289.854 1362.35 290.135C1361.74 290.416 1361.03 290.442 1360.39 290.205Z" fill="white"/>
<path d="M315.936 196.383C314.378 197.251 313.166 198.627 312.507 200.277C311.847 201.927 311.781 203.749 312.318 205.433C312.856 207.118 313.965 208.56 315.457 209.515C316.948 210.47 318.73 210.879 320.499 210.672C320.609 211.675 320.417 212.69 319.948 213.589C319.479 214.488 318.754 215.231 317.865 215.723L308.876 220.722C307.295 221.61 305.982 222.905 305.075 224.469L297.965 211.684C299.172 210.325 299.861 208.589 299.91 206.782C299.958 204.974 299.364 203.213 298.231 201.809C297.098 200.405 295.5 199.449 293.719 199.109C291.938 198.769 290.089 199.068 288.499 199.953C286.908 200.837 285.679 202.25 285.028 203.942C284.377 205.635 284.347 207.497 284.942 209.2C285.537 210.903 286.719 212.337 288.28 213.249C289.841 214.161 291.679 214.492 293.471 214.184L303.826 232.804C302.639 234.156 301.961 235.874 301.909 237.663C301.858 239.451 302.437 241.196 303.546 242.595C304.654 243.994 306.223 244.96 307.979 245.324C309.736 245.688 311.57 245.429 313.163 244.59C314.757 243.751 316.009 242.386 316.704 240.731C317.398 239.076 317.491 237.236 316.966 235.529C316.441 233.823 315.332 232.357 313.83 231.387C312.328 230.416 310.528 230.002 308.742 230.216C308.632 229.217 308.822 228.206 309.286 227.31C309.751 226.414 310.47 225.672 311.353 225.177L320.342 220.178C322.398 219.034 324.003 217.227 324.889 215.057C325.776 212.887 325.891 210.485 325.215 208.253C326.436 206.912 327.145 205.188 327.219 203.386C327.292 201.583 326.725 199.818 325.617 198.399C324.508 196.981 322.929 196.002 321.159 195.633C319.388 195.264 317.539 195.53 315.936 196.383ZM290.986 204.426C291.431 204.179 291.938 204.068 292.444 204.107C292.949 204.146 293.431 204.334 293.827 204.646C294.224 204.959 294.517 205.382 294.671 205.862C294.824 206.342 294.831 206.858 294.69 207.344C294.549 207.831 294.266 208.266 293.878 208.594C293.49 208.922 293.014 209.129 292.509 209.189C292.005 209.249 291.495 209.159 291.045 208.93C290.594 208.701 290.223 208.344 289.978 207.903C289.649 207.312 289.571 206.614 289.76 205.962C289.949 205.31 290.39 204.757 290.986 204.426ZM310.805 240.063C310.36 240.31 309.853 240.421 309.348 240.382C308.842 240.342 308.36 240.155 307.964 239.842C307.568 239.53 307.274 239.107 307.12 238.627C306.967 238.146 306.96 237.63 307.101 237.144C307.242 236.658 307.525 236.223 307.913 235.895C308.301 235.566 308.777 235.359 309.282 235.299C309.786 235.24 310.296 235.33 310.747 235.559C311.197 235.788 311.568 236.145 311.813 236.586C312.142 237.176 312.22 237.874 312.031 238.527C311.842 239.179 311.401 239.731 310.805 240.063ZM320.891 205.292C320.446 205.539 319.939 205.65 319.433 205.611C318.928 205.572 318.446 205.384 318.05 205.072C317.653 204.76 317.36 204.336 317.206 203.856C317.053 203.376 317.046 202.86 317.187 202.374C317.328 201.887 317.611 201.453 317.999 201.124C318.387 200.796 318.863 200.589 319.368 200.529C319.872 200.469 320.382 200.559 320.832 200.788C321.283 201.017 321.654 201.375 321.899 201.815C322.228 202.406 322.306 203.104 322.117 203.756C321.928 204.408 321.487 204.961 320.891 205.292Z" fill="white"/>
<path d="M833.384 637.559C833.815 636.566 834.624 635.785 835.632 635.388C836.639 634.991 837.763 635.01 838.756 635.442C839.253 635.658 839.815 635.667 840.319 635.469C840.822 635.27 841.227 634.88 841.443 634.383C841.658 633.887 841.668 633.325 841.47 632.821C841.271 632.317 840.881 631.913 840.384 631.697C838.398 630.834 836.15 630.795 834.134 631.589C832.119 632.383 830.502 633.945 829.639 635.931L827.197 641.549C826.766 642.542 825.957 643.323 824.95 643.72C823.942 644.117 822.818 644.098 821.825 643.666C821.328 643.45 820.766 643.44 820.262 643.639C819.759 643.837 819.354 644.228 819.138 644.725C818.923 645.221 818.913 645.783 819.111 646.287C819.31 646.791 819.7 647.195 820.197 647.411C821.19 647.842 821.971 648.651 822.368 649.659C822.765 650.666 822.746 651.79 822.314 652.783L819.873 658.401C819.009 660.387 818.97 662.635 819.765 664.65C820.559 666.665 822.121 668.282 824.107 669.146C824.604 669.362 825.166 669.371 825.67 669.173C826.173 668.974 826.578 668.584 826.793 668.087C827.009 667.591 827.019 667.029 826.82 666.525C826.622 666.021 826.231 665.617 825.735 665.401C824.742 664.969 823.961 664.161 823.564 663.153C823.166 662.146 823.186 661.022 823.618 660.028L826.059 654.411C826.517 653.342 826.741 652.188 826.716 651.025C826.691 649.863 826.419 648.719 825.917 647.671C827.026 647.322 828.048 646.741 828.915 645.966C829.782 645.191 830.473 644.24 830.942 643.176L833.384 637.559ZM859.274 659.943C858.28 659.511 857.499 658.702 857.102 657.695C856.705 656.687 856.725 655.563 857.156 654.57L859.598 648.953C860.461 646.966 860.5 644.718 859.706 642.703C858.912 640.688 857.35 639.071 855.364 638.208C854.867 637.992 854.305 637.982 853.801 638.181C853.297 638.379 852.893 638.77 852.677 639.266C852.461 639.763 852.452 640.325 852.65 640.829C852.849 641.332 853.239 641.737 853.736 641.953C854.729 642.384 855.51 643.193 855.907 644.2C856.304 645.208 856.285 646.332 855.853 647.325L853.412 652.942C852.954 654.011 852.73 655.166 852.755 656.328C852.779 657.49 853.052 658.634 853.554 659.683C852.445 660.031 851.423 660.612 850.556 661.387C849.689 662.162 848.998 663.113 848.529 664.177L846.087 669.794C845.655 670.788 844.847 671.569 843.839 671.966C842.832 672.363 841.708 672.343 840.714 671.912C840.218 671.696 839.656 671.686 839.152 671.885C838.648 672.083 838.244 672.474 838.028 672.97C837.812 673.467 837.803 674.029 838.001 674.533C838.2 675.036 838.59 675.441 839.087 675.657C841.073 676.52 843.321 676.559 845.336 675.765C847.351 674.971 848.969 673.409 849.832 671.422L852.273 665.805C852.705 664.812 853.514 664.031 854.521 663.634C855.529 663.236 856.653 663.256 857.646 663.688C858.143 663.903 858.705 663.913 859.208 663.715C859.712 663.516 860.116 663.126 860.332 662.629C860.548 662.132 860.558 661.57 860.359 661.067C860.161 660.563 859.77 660.159 859.274 659.943Z" fill="white"/>
<path d="M742.386 207.644C742.063 206.611 742.163 205.491 742.665 204.531C743.167 203.572 744.03 202.851 745.064 202.528C745.58 202.366 746.012 202.006 746.263 201.526C746.514 201.046 746.564 200.486 746.402 199.97C746.241 199.453 745.88 199.021 745.4 198.77C744.921 198.519 744.361 198.469 743.844 198.631C741.777 199.278 740.051 200.719 739.047 202.638C738.043 204.557 737.842 206.797 738.489 208.864L740.318 214.709C740.642 215.743 740.541 216.862 740.039 217.822C739.537 218.781 738.674 219.502 737.641 219.826C737.124 219.987 736.693 220.348 736.441 220.827C736.19 221.307 736.14 221.867 736.302 222.384C736.464 222.901 736.824 223.332 737.304 223.583C737.784 223.834 738.343 223.884 738.86 223.723C739.894 223.399 741.013 223.5 741.973 224.002C742.932 224.504 743.653 225.367 743.977 226.4L745.806 232.246C746.453 234.313 747.894 236.038 749.813 237.042C751.732 238.047 753.972 238.247 756.039 237.601C756.555 237.439 756.987 237.079 757.238 236.599C757.489 236.119 757.539 235.559 757.377 235.042C757.216 234.526 756.855 234.094 756.376 233.843C755.896 233.592 755.336 233.542 754.819 233.704C753.786 234.027 752.666 233.927 751.706 233.425C750.747 232.922 750.026 232.06 749.703 231.026L747.874 225.181C747.52 224.073 746.934 223.054 746.155 222.191C745.376 221.328 744.421 220.641 743.355 220.177C743.967 219.187 744.359 218.079 744.508 216.926C744.656 215.773 744.556 214.601 744.215 213.49L742.386 207.644ZM776.611 207.631C775.577 207.954 774.457 207.854 773.498 207.352C772.538 206.85 771.818 205.987 771.494 204.953L769.665 199.108C769.018 197.041 767.577 195.315 765.658 194.311C763.738 193.307 761.499 193.106 759.432 193.753C758.915 193.915 758.484 194.275 758.233 194.755C757.982 195.234 757.932 195.794 758.093 196.311C758.255 196.828 758.615 197.259 759.095 197.51C759.575 197.761 760.135 197.812 760.651 197.65C761.685 197.326 762.805 197.427 763.764 197.929C764.724 198.431 765.444 199.294 765.768 200.327L767.597 206.173C767.951 207.281 768.537 208.3 769.316 209.163C770.095 210.026 771.049 210.713 772.115 211.177C771.504 212.166 771.111 213.274 770.963 214.428C770.815 215.581 770.915 216.752 771.256 217.864L773.085 223.709C773.408 224.743 773.308 225.863 772.806 226.822C772.303 227.782 771.441 228.502 770.407 228.826C769.89 228.987 769.459 229.348 769.208 229.828C768.957 230.307 768.907 230.867 769.068 231.384C769.23 231.901 769.591 232.332 770.07 232.583C770.55 232.834 771.11 232.884 771.627 232.723C773.694 232.076 775.419 230.634 776.423 228.715C777.428 226.796 777.629 224.557 776.982 222.49L775.152 216.644C774.829 215.611 774.929 214.491 775.432 213.532C775.934 212.572 776.796 211.851 777.83 211.528C778.347 211.366 778.778 211.006 779.029 210.526C779.28 210.046 779.33 209.486 779.169 208.97C779.007 208.453 778.647 208.022 778.167 207.77C777.687 207.519 777.127 207.469 776.611 207.631Z" fill="white"/>
<path d="M1166.71 577.912C1166.42 577.623 1166.08 577.394 1165.7 577.237C1165.33 577.081 1164.92 577 1164.52 577C1164.11 577 1163.71 577.081 1163.33 577.237C1162.96 577.394 1162.62 577.623 1162.33 577.912L1146.91 593.329C1146.62 593.615 1146.39 593.956 1146.24 594.332C1146.08 594.708 1146 595.111 1146 595.518C1146 595.925 1146.08 596.328 1146.24 596.704C1146.39 597.079 1146.62 597.42 1146.91 597.707L1162.33 613.124C1162.62 613.413 1162.96 613.642 1163.33 613.799C1163.71 613.955 1164.11 614.036 1164.52 614.036C1164.92 614.036 1165.33 613.955 1165.7 613.799C1166.08 613.642 1166.42 613.413 1166.71 613.124C1167 612.837 1167.23 612.496 1167.38 612.12C1167.54 611.745 1167.62 611.342 1167.62 610.935C1167.62 610.528 1167.54 610.125 1167.38 609.749C1167.23 609.373 1167 609.032 1166.71 608.745L1153.45 595.518L1166.71 582.29C1167 582.004 1167.23 581.663 1167.38 581.287C1167.54 580.911 1167.62 580.508 1167.62 580.101C1167.62 579.694 1167.54 579.291 1167.38 578.915C1167.23 578.54 1167 578.199 1166.71 577.912ZM1200.62 593.329L1185.21 577.912C1184.92 577.625 1184.58 577.397 1184.2 577.241C1183.83 577.085 1183.42 577.005 1183.02 577.005C1182.2 577.005 1181.41 577.331 1180.83 577.912C1180.54 578.2 1180.31 578.541 1180.16 578.916C1180 579.292 1179.92 579.695 1179.92 580.101C1179.92 580.922 1180.25 581.71 1180.83 582.29L1194.09 595.518L1180.83 608.745C1180.54 609.032 1180.31 609.373 1180.15 609.749C1180 610.125 1179.92 610.528 1179.92 610.935C1179.92 611.342 1180 611.745 1180.15 612.12C1180.31 612.496 1180.54 612.837 1180.83 613.124C1181.12 613.413 1181.46 613.642 1181.83 613.799C1182.21 613.955 1182.61 614.036 1183.02 614.036C1183.42 614.036 1183.83 613.955 1184.2 613.799C1184.58 613.642 1184.92 613.413 1185.21 613.124L1200.62 597.707C1200.91 597.42 1201.14 597.079 1201.3 596.704C1201.46 596.328 1201.54 595.925 1201.54 595.518C1201.54 595.111 1201.46 594.708 1201.3 594.332C1201.14 593.956 1200.91 593.615 1200.62 593.329Z" fill="white"/>
</g>
<defs>
<clipPath id="clip0_205_3">
<rect width="1440" height="814.796" fill="white"/>
</clipPath>
</defs>
</svg>
