<svg aria-hidden="true" style="position: absolute; width: 0; height: 0; overflow: hidden;" version="1.1" xmlns="http://www.w3.org/2000/svg" xmlns:xlink="http://www.w3.org/1999/xlink">
<defs>
<symbol id="icon-visit" viewBox="0 0 32 32">
<path d="M22.319 15.055l-4.801-5.335c-0.464-0.516-1.232-0.516-1.696 0s-0.464 1.369 0 1.885l2.753 3.059h-14.707c-0.656 0-1.2 0.605-1.2 1.334s0.544 1.334 1.2 1.334h14.707l-2.753 3.059c-0.464 0.516-0.464 1.369 0 1.885 0.24 0.267 0.544 0.391 0.848 0.391s0.608-0.125 0.848-0.391l4.801-5.335c0.464-0.516 0.464-1.369 0-1.885z"/>
<path d="M25.385 2.667h-4.308c-0.589 0-1.077 0.518-1.077 1.143s0.488 1.143 1.077 1.143h4.308c0.991 0 1.795 0.853 1.795 1.905v18.286c0 1.051-0.804 1.905-1.795 1.905h-4.308c-0.589 0-1.077 0.518-1.077 1.143s0.488 1.143 1.077 1.143h4.308c2.183 0 3.949-1.874 3.949-4.191v-18.286c0-2.316-1.766-4.19-3.949-4.19z"/>
</symbol>
<symbol id="icon-angular" viewBox="0 0 32 32">
<path fill="#f44336" d="M16 10.667l-2.498 4.606h5.224l-2.726-4.606zM15.971 2.667l-11.971 2.667 1.333 18.667 10.638 5.333 10.696-5.333 1.333-18.667-12.029-2.667zM21.591 21.831l-1.804-4.141h-7.365l-1.647 4.085-3.065 0.056 8.291-16.498 8.43 16.498h-2.839z"/>
</symbol>
<symbol id="icon-arrow" viewBox="0 0 32 32">
<path d="M27.91 16.442c0.12-0.284 0.12-0.602 0-0.886-0.057-0.143-0.143-0.274-0.252-0.385l-8.402-8.162c-0.112-0.109-0.245-0.195-0.391-0.254s-0.303-0.089-0.461-0.089c-0.32 0-0.626 0.123-0.852 0.343-0.112 0.109-0.201 0.238-0.261 0.38s-0.092 0.294-0.092 0.448c0 0.31 0.127 0.608 0.353 0.828l6.362 6.168h-18.713c-0.318 0-0.624 0.123-0.849 0.341s-0.352 0.515-0.352 0.825c0 0.309 0.126 0.606 0.352 0.824s0.53 0.341 0.849 0.341h18.713l-6.362 6.168c-0.112 0.108-0.202 0.237-0.263 0.379s-0.092 0.294-0.092 0.448c0 0.154 0.031 0.306 0.092 0.448s0.15 0.271 0.263 0.379c0.112 0.109 0.244 0.196 0.391 0.255s0.303 0.090 0.462 0.090 0.315-0.031 0.462-0.090c0.146-0.059 0.279-0.146 0.391-0.255l8.402-8.162c0.109-0.111 0.195-0.242 0.252-0.385z"/>
</symbol>
<symbol id="icon-chevron" viewBox="0 0 32 32">
<path d="M23.651 27.501c0.224 0.202 0.349 0.475 0.349 0.759s-0.125 0.557-0.349 0.759c-0.11 0.1-0.241 0.179-0.386 0.233s-0.3 0.082-0.457 0.082-0.312-0.028-0.457-0.082c-0.145-0.054-0.276-0.133-0.386-0.233l-13.617-12.26c-0.224-0.202-0.349-0.475-0.349-0.759s0.125-0.557 0.349-0.759l13.617-12.26c0.11-0.1 0.241-0.179 0.386-0.233s0.3-0.082 0.457-0.082 0.312 0.028 0.457 0.082c0.145 0.054 0.276 0.133 0.386 0.233 0.224 0.202 0.349 0.475 0.349 0.759s-0.125 0.557-0.349 0.759l-12.418 11.502 12.418 11.5z"></path>
</symbol>
<symbol id="icon-cloud" viewBox="0 0 32 32">
<path d="M19.080 23.049l-1.722 1.734v-7.458c0-0.354-0.141-0.693-0.391-0.943s-0.59-0.391-0.944-0.391c-0.354 0-0.693 0.141-0.944 0.391s-0.391 0.59-0.391 0.943v7.458l-1.722-1.734c-0.124-0.124-0.272-0.223-0.435-0.29s-0.337-0.102-0.513-0.102c-0.176 0-0.35 0.035-0.513 0.102s-0.31 0.166-0.435 0.29c-0.124 0.124-0.223 0.272-0.29 0.435s-0.102 0.337-0.102 0.513c0 0.176 0.035 0.35 0.102 0.513s0.166 0.31 0.29 0.435l4.004 4.003c0.127 0.121 0.277 0.217 0.44 0.28 0.16 0.071 0.332 0.107 0.507 0.107s0.347-0.036 0.507-0.107c0.164-0.063 0.313-0.159 0.44-0.28l4.004-4.003c0.251-0.251 0.393-0.592 0.393-0.947s-0.141-0.696-0.393-0.947c-0.251-0.251-0.592-0.392-0.947-0.392s-0.696 0.141-0.948 0.392zM24.592 8.279c-0.815-1.873-2.223-3.427-4.006-4.425s-3.845-1.382-5.868-1.096c-2.023 0.286-3.897 1.228-5.334 2.68s-2.358 3.336-2.621 5.362c-1.272 0.305-2.389 1.066-3.137 2.139s-1.076 2.384-0.921 3.683c0.155 1.299 0.781 2.496 1.761 3.363s2.243 1.345 3.552 1.342c0.354 0 0.693-0.141 0.944-0.391s0.391-0.59 0.391-0.943-0.141-0.693-0.391-0.943c-0.25-0.25-0.59-0.391-0.944-0.391-0.708 0-1.387-0.281-1.887-0.781s-0.782-1.179-0.782-1.887c0-0.708 0.281-1.386 0.782-1.887s1.179-0.782 1.887-0.782c0.354 0 0.693-0.141 0.944-0.391s0.391-0.59 0.391-0.943c0.003-1.578 0.566-3.104 1.589-4.306s2.438-2.003 3.995-2.261c1.557-0.258 3.155 0.045 4.511 0.854s2.38 2.072 2.891 3.565c0.076 0.229 0.213 0.434 0.397 0.591s0.406 0.262 0.644 0.303c0.889 0.168 1.695 0.632 2.286 1.316s0.934 1.549 0.971 2.452c0.037 0.904-0.233 1.793-0.766 2.524s-1.298 1.259-2.17 1.499c-0.17 0.044-0.33 0.121-0.47 0.226s-0.259 0.238-0.348 0.389c-0.089 0.151-0.148 0.318-0.172 0.492s-0.015 0.351 0.029 0.521c0.044 0.17 0.121 0.33 0.226 0.47s0.238 0.258 0.389 0.347 0.319 0.148 0.492 0.172c0.174 0.025 0.351 0.015 0.521-0.029 1.404-0.371 2.649-1.19 3.546-2.333s1.395-2.547 1.421-3.999c0.026-1.452-0.423-2.873-1.279-4.047s-2.071-2.036-3.461-2.457z"></path>
</symbol>
<symbol id="icon-code" viewBox="0 0 32 32">
<path d="M10.502 23.673l-0.801 0.874c-0.107 0.117-0.23 0.175-0.369 0.175s-0.262-0.058-0.369-0.175l-7.47-8.145c-0.107-0.117-0.16-0.251-0.16-0.402s0.053-0.285 0.16-0.402l7.47-8.145c0.107-0.117 0.23-0.175 0.369-0.175s0.262 0.058 0.369 0.175l0.801 0.874c0.107 0.117 0.16 0.251 0.16 0.402s-0.053 0.286-0.16 0.402l-6.299 6.869 6.299 6.869c0.107 0.117 0.16 0.251 0.16 0.402s-0.053 0.285-0.16 0.402zM19.975 5.023l-5.979 22.566c-0.043 0.151-0.126 0.265-0.249 0.341s-0.248 0.090-0.377 0.044l-0.994-0.297c-0.139-0.047-0.243-0.137-0.313-0.271s-0.083-0.277-0.040-0.428l5.979-22.566c0.043-0.152 0.126-0.265 0.249-0.341s0.248-0.090 0.377-0.044l0.994 0.297c0.139 0.047 0.243 0.137 0.313 0.271s0.083 0.277 0.040 0.428zM30.506 16.402l-7.47 8.145c-0.107 0.117-0.23 0.175-0.369 0.175s-0.262-0.058-0.369-0.175l-0.801-0.874c-0.107-0.117-0.16-0.251-0.16-0.402s0.053-0.286 0.16-0.402l6.299-6.869-6.299-6.869c-0.107-0.117-0.16-0.251-0.16-0.402s0.053-0.286 0.16-0.402l0.801-0.874c0.107-0.117 0.23-0.175 0.369-0.175s0.262 0.058 0.369 0.175l7.47 8.145c0.107 0.117 0.16 0.251 0.16 0.402s-0.053 0.285-0.16 0.402z"></path>
</symbol>
<symbol id="icon-css" viewBox="0 0 32 32">
<path fill="#2196f3" d="M5.46 2.667c-0.784 0-1.399 0.673-1.328 1.454l1.968 21.617c0.050 0.554 0.44 1.019 0.977 1.165l8.908 2.43 8.936-2.44c0.537-0.147 0.926-0.611 0.977-1.165l1.969-21.607c0.071-0.781-0.544-1.454-1.328-1.454h-21.079zM23.462 8.164l-0.727 7.993 0.002 0.043-0.003 0.099-0.517 5.588-0.057 0.497-6.166 1.671-6.15-1.677-0.416-4.621h3.016l0.214 2.349 3.341 0.888 3.355-0.899 0.355-3.826h-7.013l-0.060-0.647-0.137-1.515-0.072-0.814h7.549l0.275-2.976h-11.497l-0.060-0.646-0.137-1.516-0.072-0.814h15.050l-0.072 0.821z"></path>
</symbol>
<symbol id="icon-diamond" viewBox="0 0 32 32">
<path d="M24.187 4c-0.849 0-15.437 0-16.372 0l-5.148 7.020 13.389 17.646 13.278-17.648-5.147-7.018zM9.986 11.791l3.772 11.269-8.55-11.269h4.778zM11.629 11.791h8.748l-4.344 13.157-4.404-13.157zM22.018 11.791h4.784l-8.524 11.33 3.741-11.33zM23.397 5.558l3.428 4.675h-4.806l-1.534-4.675h2.912zM18.845 5.558l1.534 4.675h-8.756l1.534-4.675h5.689zM8.604 5.558h2.912l-1.534 4.675h-4.806l3.428-4.675z"></path>
</symbol>
<symbol id="icon-figma" viewBox="0 0 32 32">
<path fill="#0acf83" style="fill: var(--color3, #0acf83)" d="M12.333 29.333c1.149 0 2.251-0.468 3.064-1.302s1.269-1.964 1.269-3.143v-4.445h-4.333c-1.149 0-2.251 0.468-3.064 1.302s-1.269 1.964-1.269 3.143c0 1.179 0.457 2.309 1.269 3.143s1.915 1.302 3.064 1.302z"></path>
<path fill="#a259ff" style="fill: var(--color4, #a259ff)" d="M8 16c0-1.179 0.457-2.309 1.269-3.143s1.915-1.302 3.064-1.302h4.333v8.889h-4.333c-1.149 0-2.251-0.468-3.064-1.302s-1.269-1.964-1.269-3.143z"></path>
<path fill="#f24e1e" style="fill: var(--color5, #f24e1e)" d="M8 7.111c0-1.178 0.456-2.308 1.268-3.141s1.913-1.302 3.062-1.303h4.333v8.889h-4.33c-1.149 0-2.251-0.468-3.064-1.302s-1.269-1.964-1.269-3.143z"></path>
<path fill="#ff7262" style="fill: var(--color6, #ff7262)" d="M16.667 2.667h4.333c1.149 0 2.251 0.468 3.064 1.302s1.269 1.964 1.269 3.143c0 1.179-0.457 2.309-1.269 3.143s-1.915 1.302-3.064 1.302h-4.333v-8.889z"></path>
<path fill="#1abcfe" style="fill: var(--color7, #1abcfe)" d="M25.333 16c0 1.179-0.457 2.309-1.269 3.143s-1.915 1.302-3.064 1.302c-1.149 0-2.251-0.468-3.064-1.302s-1.269-1.964-1.269-3.143c0-1.179 0.457-2.309 1.269-3.143s1.915-1.302 3.064-1.302c1.149 0 2.251 0.468 3.064 1.302s1.269 1.964 1.269 3.143z"></path>
</symbol>
<symbol id="icon-framer" viewBox="0 0 32 32">
<path fill="#fff" style="fill: var(--color8, #fff)" d="M16 29.333c7.364 0 13.333-5.969 13.333-13.333s-5.969-13.333-13.333-13.333c-7.364 0-13.333 5.969-13.333 13.333s5.969 13.333 13.333 13.333z"></path>
<path fill="#05f" style="fill: var(--color9, #05f)" d="M10.667 20.444h5.333v5.333l-5.333-5.333z"></path>
<path fill="#0af" style="fill: var(--color10, #0af)" d="M10.667 15.111h5.333v5.333h-5.333v-5.333zM16 15.111l5.333 5.333h-5.333v-5.333z"></path>
<path fill="#8df" style="fill: var(--color11, #8df)" d="M16 9.778h5.333v5.333l-5.333-0v-5.333zM10.667 9.778h5.333v5.333l-5.333-5.333z"></path>
</symbol>
<symbol id="icon-github" viewBox="0 0 32 32">
<path d="M4.148 2.667h23.704c0.816 0 1.481 0.663 1.481 1.481v23.704c-0.001 0.393-0.157 0.769-0.435 1.047s-0.655 0.434-1.048 0.434h-7.407c-1.137 0-1.137-1.049-1.137-1.403 0-0.438 0.015-1.869 0.015-3.647 0-1.24-0.426-2.049-0.904-2.461 2.969-0.329 6.088-1.453 6.088-6.558 0-1.451-0.517-2.637-1.372-3.568 0.138-0.334 0.595-1.686-0.131-3.517 0 0-1.118-0.357-3.663 1.362-1.066-0.294-2.207-0.442-3.34-0.447-1.133 0.005-2.274 0.153-3.337 0.447-2.548-1.72-3.667-1.362-3.667-1.362-0.724 1.831-0.268 3.183-0.129 3.517-0.853 0.931-1.374 2.117-1.374 3.568 0 5.093 3.113 6.232 6.075 6.568-0.382 0.332-0.727 0.919-0.847 1.778-0.761 0.339-2.691 0.927-3.88-1.105 0 0-0.705-1.276-2.044-1.37 0 0-1.301-0.017-0.091 0.808 0 0 0.874 0.409 1.48 1.945 0 0 0.783 2.372 4.492 1.568 0.006 1.11 0.018 2.157 0.018 2.475 0 0.351-0.4 1.403-1.14 1.403h-7.407c-0.82 0-1.481-0.663-1.481-1.481v-23.704c0-0.816 0.663-1.481 1.481-1.481zM7.717 21.75c0.033-0.066-0.021-0.157-0.119-0.201-0.096-0.045-0.201-0.027-0.23 0.042-0.031 0.066 0.023 0.156 0.12 0.2 0.095 0.045 0.199 0.025 0.229-0.040zM8.257 22.35c0.067-0.060 0.050-0.182-0.038-0.276s-0.208-0.12-0.273-0.062c-0.065 0.060-0.048 0.184 0.039 0.276 0.084 0.093 0.209 0.12 0.272 0.061zM8.783 23.116c0.083-0.058 0.083-0.2 0.002-0.32-0.083-0.117-0.215-0.168-0.298-0.111s-0.083 0.198-0.001 0.317c0.083 0.119 0.216 0.171 0.298 0.115zM9.503 23.855c0.078-0.079 0.043-0.232-0.073-0.34-0.115-0.109-0.271-0.131-0.345-0.051s-0.041 0.232 0.076 0.34c0.114 0.11 0.27 0.131 0.343 0.051zM10.496 24.285c0.031-0.106-0.067-0.227-0.218-0.272-0.152-0.047-0.303 0.002-0.334 0.107s0.068 0.227 0.219 0.273c0.151 0.044 0.301-0.004 0.333-0.107zM11.587 24.364c0-0.109-0.13-0.197-0.288-0.194-0.16 0.003-0.285 0.093-0.285 0.203 0.002 0.108 0.131 0.197 0.29 0.193 0.159-0.002 0.286-0.093 0.283-0.203zM12.603 24.192c-0.020-0.109-0.161-0.173-0.319-0.146-0.155 0.029-0.267 0.138-0.247 0.248 0.020 0.106 0.163 0.172 0.318 0.144 0.157-0.029 0.267-0.139 0.249-0.246z"></path>
</symbol>
<symbol id="icon-github-round" viewBox="0 0 32 32">
<path d="M16 2.667c-3.166 0-6.229 1.155-8.64 3.259s-4.014 5.018-4.521 8.222c-0.507 3.204 0.114 6.489 1.753 9.266s4.188 4.866 7.191 5.893c0.667 0.12 0.917-0.291 0.917-0.649 0-0.325-0.017-1.401-0.017-2.546-3.35 0.632-4.217-0.837-4.483-1.606-0.296-0.748-0.765-1.411-1.367-1.931-0.467-0.256-1.133-0.889-0.017-0.906 0.426 0.047 0.835 0.2 1.192 0.443s0.651 0.572 0.858 0.958c0.182 0.336 0.428 0.632 0.722 0.87s0.631 0.415 0.992 0.52c0.361 0.105 0.738 0.136 1.11 0.091s0.732-0.165 1.059-0.353c0.058-0.695 0.36-1.345 0.85-1.828-2.967-0.342-6.067-1.521-6.067-6.75-0.019-1.359 0.47-2.673 1.367-3.674-0.408-1.181-0.36-2.477 0.133-3.623 0 0 1.117-0.359 3.667 1.401 2.182-0.615 4.485-0.615 6.667 0 2.55-1.777 3.667-1.401 3.667-1.401 0.493 1.146 0.541 2.442 0.133 3.623 0.899 0.999 1.389 2.315 1.367 3.674 0 5.246-3.117 6.408-6.083 6.75 0.318 0.331 0.563 0.728 0.719 1.164s0.217 0.902 0.181 1.365c0 1.829-0.017 3.298-0.017 3.759 0 0.359 0.25 0.786 0.917 0.649 2.998-1.035 5.54-3.129 7.172-5.908s2.247-6.062 1.737-9.263c-0.511-3.201-2.114-6.112-4.525-8.213s-5.47-3.255-8.634-3.257z"></path>
</symbol>
<symbol id="icon-graphql" viewBox="0 0 32 32">
<path fill="#e535ab" style="fill: var(--color12, #e535ab)" d="M7.608 8.464c-0.274-0.156-0.577-0.258-0.892-0.298s-0.635-0.020-0.941 0.061c-0.306 0.081-0.593 0.22-0.843 0.411s-0.459 0.427-0.614 0.696c-0.114 0.197-0.198 0.409-0.251 0.629-0.311 1.279 0.485 2.564 1.776 2.871l-0.001 6.332c-0.449 0.109-0.856 0.341-1.173 0.67-0.441 0.46-0.679 1.069-0.664 1.697s0.281 1.226 0.743 1.665c0.227 0.215 0.495 0.384 0.79 0.497s0.61 0.167 0.927 0.16c0.317-0.007 0.629-0.076 0.918-0.202s0.549-0.307 0.765-0.533l5.546 3.163c-0.066 0.22-0.099 0.448-0.099 0.677 0.001 1.312 1.078 2.374 2.405 2.373 0.256 0 0.509-0.041 0.753-0.12 1.262-0.412 1.947-1.758 1.529-3.007l5.511-3.147c0.251 0.28 0.568 0.497 0.924 0.633s0.74 0.187 1.12 0.149c0.38-0.038 0.745-0.165 1.065-0.369s0.584-0.48 0.77-0.805c0.118-0.201 0.207-0.419 0.261-0.645 0.307-1.273-0.488-2.551-1.775-2.855v-6.332c0.22-0.053 0.432-0.136 0.627-0.248 0.557-0.321 0.963-0.841 1.13-1.449s0.082-1.256-0.237-1.804c-0.115-0.195-0.257-0.374-0.424-0.53-0.228-0.215-0.497-0.384-0.793-0.497s-0.612-0.166-0.929-0.158c-0.317 0.008-0.63 0.078-0.919 0.205s-0.55 0.309-0.765 0.536l-5.545-3.167c0.066-0.221 0.102-0.453 0.101-0.686-0.001-1.311-1.078-2.372-2.405-2.371-0.232 0-0.464 0.032-0.686 0.098-1.27 0.372-1.997 1.693-1.619 2.952l-5.548 3.167c-0.157-0.165-0.338-0.306-0.538-0.419zM17.778 25.357c-0.224-0.244-0.497-0.439-0.804-0.572s-0.638-0.203-0.974-0.203c-0.681 0-1.295 0.277-1.73 0.726l-5.55-3.169 0.024-0.092h14.512c0.013 0.053 0.026 0.105 0.042 0.158l-5.52 3.153zM17.725 6.698l5.558 3.176-0.022 0.080c-0.319 1.273 0.464 2.561 1.751 2.876v6.341c-0.030 0.008-0.063 0.016-0.093 0.026l-7.259-12.433c0.023-0.020 0.045-0.042 0.065-0.064zM15.331 7.327c0.437 0.124 0.901 0.124 1.339 0l7.261 12.429c-0.334 0.317-0.569 0.719-0.678 1.16h-14.506c-0.109-0.439-0.343-0.84-0.674-1.157l7.258-12.432zM8.713 9.866l5.558-3.169 0.067 0.067-7.257 12.432-0.095-0.026v-6.342l0.086-0.023c1.274-0.363 2.009-1.678 1.641-2.939z"></path>
</symbol>
<symbol id="icon-html" viewBox="0 0 32 32">
<path fill="#e44d26" style="fill: var(--color13, #e44d26)" d="M5.46 2.667c-0.784 0-1.399 0.673-1.328 1.454l1.968 21.633c0.051 0.555 0.441 1.020 0.979 1.166l8.558 2.319c0.228 0.062 0.468 0.062 0.696 0l8.584-2.317c0.539-0.145 0.93-0.611 0.98-1.166l1.97-21.635c0.071-0.781-0.544-1.454-1.328-1.454h-21.080zM23.457 8.351l-0.137 1.536-0.060 0.704h-11.497l0.274 2.999h10.95l-0.073 0.743-0.706 7.737-0.052 0.486-6.163 1.664-6.151-1.59-0.418-4.542h3.016l0.214 2.339 3.347 0.874v-0.117l3.352-0.83 0.35-3.765h-10.413l-0.739-8.165-0.072-0.832h15.050l-0.072 0.758z"></path>
</symbol>
<symbol id="icon-js" viewBox="0 0 32 32">
<path fill="#f7df1e" style="fill: var(--color14, #f7df1e)" d="M2.667 28c0 0.736 0.597 1.333 1.333 1.333h24c0.736 0 1.333-0.597 1.333-1.333v-24c0-0.736-0.597-1.333-1.333-1.333h-24c-0.736 0-1.333 0.597-1.333 1.333v24zM24.649 23.366c-0.283-1.068-2.501-1.317-4.018-2.45-1.533-1.033-1.899-3.533-0.632-4.968 0.433-0.533 1.149-0.933 1.9-1.117l0.783-0.099c1.517-0.035 2.449 0.365 3.149 1.149 0.202 0.199 0.351 0.4 0.651 0.867-0.801 0.499-0.801 0.499-1.95 1.25-0.251-0.533-0.651-0.867-1.085-1-0.667-0.2-1.517 0.016-1.683 0.733-0.065 0.217-0.050 0.417 0.051 0.783 0.27 0.617 1.179 0.883 1.997 1.267 2.35 0.953 3.142 1.976 3.337 3.192l-0.051-0.074c0.185 1.050-0.050 1.733-0.082 1.833-0.868 2.967-5.701 3.067-7.635 1.115-0.4-0.467-0.667-0.699-0.9-1.232l2.033-1.168c0.55 0.833 1.049 1.285 1.95 1.485 1.218 0.15 2.451-0.267 2.185-1.567zM11.703 23.751c0.019 0 0.071 0.101 0.141 0.218 0.259 0.432 0.482 0.732 0.922 0.95 0.429 0.134 1.373 0.232 1.74-0.533 0.223-0.387 0.153-1.643 0.153-3.012 0-2.157 0.010-4.297 0.010-6.45h2.498l-0.004 0.062c0 2.3 0.013 4.583 0 6.865 0.006 1.418 0.126 2.685-0.441 3.718-0.392 0.8-1.142 1.317-2.012 1.568-1.337 0.3-2.613 0.117-3.563-0.45-0.638-0.383-1.132-0.986-1.471-1.686l2.028-1.25z"></path>
</symbol>
<symbol id="icon-linkedin" viewBox="0 0 32 32">
<path d="M27.361 2.667h-22.723c-0.255-0.004-0.509 0.043-0.746 0.137s-0.454 0.233-0.637 0.41c-0.183 0.177-0.329 0.388-0.43 0.621s-0.155 0.484-0.158 0.738v22.853c0.003 0.254 0.057 0.505 0.158 0.738s0.247 0.444 0.43 0.621c0.183 0.177 0.4 0.316 0.637 0.41s0.491 0.14 0.746 0.137h22.723c0.255 0.003 0.509-0.043 0.746-0.137s0.454-0.233 0.637-0.41c0.183-0.177 0.329-0.388 0.43-0.621s0.155-0.484 0.158-0.738v-22.853c-0.003-0.254-0.057-0.505-0.158-0.738s-0.247-0.444-0.43-0.621c-0.183-0.177-0.4-0.317-0.637-0.41s-0.491-0.14-0.746-0.137zM10.755 24.987h-4.024v-12h4.024v12zM8.743 11.307c-0.555 0-1.087-0.219-1.48-0.609s-0.613-0.919-0.613-1.471c0-0.552 0.22-1.081 0.613-1.471s0.925-0.609 1.48-0.609c0.295-0.033 0.593-0.004 0.876 0.085s0.543 0.237 0.764 0.433c0.221 0.196 0.398 0.437 0.519 0.706s0.184 0.561 0.184 0.855c0 0.295-0.063 0.586-0.184 0.855s-0.298 0.51-0.519 0.706c-0.221 0.196-0.482 0.344-0.764 0.433s-0.581 0.118-0.876 0.085zM25.269 24.987h-4.024v-6.44c0-1.613-0.577-2.667-2.039-2.667-0.452 0.003-0.893 0.144-1.262 0.404s-0.65 0.626-0.803 1.049c-0.105 0.313-0.15 0.643-0.134 0.973v6.667h-4.024c0 0 0-10.907 0-12h4.024v1.693c0.366-0.631 0.897-1.15 1.538-1.502s1.366-0.524 2.097-0.498c2.683 0 4.628 1.72 4.628 5.413v6.907z"></path>
</symbol>
<symbol id="icon-nextjs" viewBox="0 0 32 32">
<path d="M15.127 2.674c-0.057 0.005-0.24 0.023-0.404 0.037-3.787 0.341-7.335 2.385-9.582 5.525-1.251 1.746-2.051 3.727-2.354 5.825-0.107 0.732-0.12 0.949-0.12 1.942s0.013 1.209 0.12 1.942c0.725 5.007 4.288 9.213 9.121 10.772 0.865 0.279 1.778 0.469 2.815 0.584 0.404 0.044 2.151 0.044 2.555 0 1.791-0.198 3.308-0.641 4.804-1.405 0.229-0.117 0.274-0.149 0.242-0.175-0.021-0.016-0.998-1.327-2.171-2.911l-2.132-2.88-2.672-3.954c-1.47-2.174-2.68-3.951-2.69-3.951-0.010-0.003-0.021 1.754-0.026 3.899-0.008 3.756-0.010 3.907-0.057 3.995-0.068 0.128-0.12 0.18-0.229 0.237-0.083 0.042-0.156 0.050-0.55 0.050h-0.451l-0.12-0.076c-0.078-0.050-0.136-0.115-0.175-0.19l-0.055-0.117 0.005-5.226 0.008-5.228 0.081-0.102c0.042-0.055 0.13-0.125 0.193-0.159 0.107-0.052 0.149-0.057 0.6-0.057 0.532 0 0.62 0.021 0.759 0.172 0.039 0.042 1.486 2.221 3.217 4.845s4.098 6.208 5.26 7.968l2.111 3.198 0.107-0.070c0.946-0.615 1.947-1.491 2.74-2.403 1.687-1.937 2.774-4.298 3.139-6.816 0.107-0.732 0.12-0.949 0.12-1.942s-0.013-1.209-0.12-1.942c-0.725-5.007-4.288-9.213-9.121-10.772-0.852-0.276-1.759-0.467-2.776-0.581-0.25-0.026-1.973-0.055-2.19-0.034zM20.585 10.738c0.125 0.063 0.227 0.182 0.263 0.308 0.021 0.068 0.026 1.517 0.021 4.783l-0.008 4.686-0.826-1.267-0.829-1.267v-3.406c0-2.202 0.010-3.44 0.026-3.5 0.042-0.146 0.133-0.261 0.258-0.328 0.107-0.055 0.146-0.060 0.555-0.060 0.386 0 0.454 0.005 0.54 0.052z"></path>
</symbol>
<symbol id="icon-prisma" viewBox="0 0 32 32">
<path fill="#fff" d="M24.523 23.807l-11.556 3.538c-0.353 0.108-0.691-0.208-0.617-0.577l4.128-20.465c0.077-0.383 0.588-0.443 0.749-0.089l7.644 16.802c0.144 0.317-0.020 0.691-0.348 0.791zM26.504 22.972l-8.85-19.455c-0.583-1.13-1.964-1.089-2.503-0.143l-9.599 16.093c-0.297 0.502-0.292 1.12 0.017 1.615l4.692 7.524c0.484 0.597 0.931 0.879 1.695 0.645l13.619-4.17c0.907-0.281 1.345-1.189 0.929-2.11z"/>
</symbol>
<symbol id="icon-react" viewBox="0 0 32 32">
<path fill="#61dafb" style="fill: var(--color16, #61dafb)" d="M18.387 15.977c0 1.331-1.067 2.409-2.383 2.409s-2.383-1.079-2.383-2.409c0-1.331 1.067-2.409 2.383-2.409s2.383 1.079 2.383 2.409z"></path>
<path fill="#61dafb" style="fill: var(--color16, #61dafb)" d="M16.003 21.495c-0.199 0.005-0.433 0.008-0.668 0.008-2.78 0-5.46-0.425-7.983-1.214l0.191 0.051c-1.336-0.436-2.494-1.079-3.501-1.903l0.021 0.016c-0.78-0.571-1.305-1.455-1.394-2.467l-0.001-0.013c0-1.594 1.727-3.153 4.629-4.171 2.484-0.827 5.343-1.304 8.311-1.304 0.137 0 0.275 0.001 0.412 0.003h-0.021c0.115-0.002 0.249-0.003 0.385-0.003 2.932 0 5.755 0.469 8.401 1.337l-0.193-0.055c1.29 0.424 2.411 1.036 3.395 1.814l-0.024-0.018c0.766 0.546 1.283 1.404 1.371 2.386l0.001 0.013c0 1.656-1.932 3.331-5.046 4.373-2.337 0.729-5.023 1.149-7.807 1.149-0.168 0-0.335-0.002-0.502-0.005h0.025v0.002zM16.003 11.657c-0.105-0.002-0.229-0.002-0.354-0.002-2.849 0-5.593 0.452-8.167 1.289l0.189-0.053c-2.668 0.941-3.864 2.228-3.864 3.086 0 0.893 1.286 2.3 4.107 3.273 2.224 0.697 4.78 1.099 7.429 1.099 0.232 0 0.464-0.003 0.694-0.009l-0.034 0.001c0.144 0.003 0.315 0.005 0.485 0.005 2.654 0 5.215-0.4 7.629-1.143l-0.185 0.049c2.927-0.984 4.272-2.391 4.272-3.279-0.101-0.638-0.457-1.176-0.955-1.515l-0.008-0.005c-0.856-0.674-1.855-1.217-2.937-1.574l-0.069-0.020c-2.342-0.766-5.036-1.208-7.832-1.208-0.14 0-0.28 0.001-0.419 0.003h0.021l-0.001 0.002z"></path>
<path fill="#61dafb" style="fill: var(--color16, #61dafb)" d="M10.596 27.986c-0.016 0-0.035 0.001-0.052 0.001-0.448 0-0.868-0.119-1.231-0.327l0.013 0.007c-1.363-0.8-1.837-3.091-1.266-6.14 0.689-3.127 1.807-5.893 3.307-8.398l-0.068 0.124c1.482-2.654 3.273-4.925 5.364-6.871l0.020-0.018c0.913-0.844 1.981-1.537 3.151-2.028l0.072-0.027c0.402-0.196 0.875-0.31 1.374-0.31 0.495 0 0.965 0.113 1.384 0.314l-0.020-0.008c1.419 0.826 1.89 3.359 1.224 6.605-0.712 2.966-1.798 5.579-3.226 7.957l0.069-0.123c-1.436 2.629-3.173 4.881-5.207 6.818l-0.014 0.013c-0.947 0.877-2.060 1.59-3.284 2.082l-0.073 0.026c-0.455 0.181-0.981 0.292-1.532 0.305h-0.006l-0.001-0.002zM11.788 13.542l0.493 0.288c-1.366 2.279-2.437 4.925-3.071 7.738l-0.034 0.18c-0.527 2.808-0.019 4.497 0.712 4.925 0.189 0.102 0.412 0.161 0.65 0.161 0.020 0 0.041 0 0.060-0.001h-0.003c0.944 0 2.431-0.605 4.149-2.121 1.954-1.867 3.613-4.022 4.917-6.403l0.067-0.135c1.303-2.155 2.345-4.652 2.991-7.305l0.038-0.182c0.622-3.057 0.085-4.929-0.678-5.377-0.235-0.094-0.508-0.148-0.793-0.148-0.36 0-0.7 0.087-1.001 0.24l0.013-0.006c-1.106 0.465-2.055 1.086-2.875 1.846l0.007-0.006c-2.018 1.881-3.73 4.056-5.079 6.467l-0.068 0.132-0.495-0.292z"></path>
<path fill="#61dafb" style="fill: var(--color16, #61dafb)" d="M21.411 28c-1.291 0-2.927-0.787-4.638-2.275-2.151-1.983-3.972-4.281-5.403-6.833l-0.071-0.137c-1.414-2.349-2.522-5.074-3.179-7.973l-0.036-0.185c-0.16-0.709-0.252-1.522-0.252-2.357 0-0.527 0.037-1.044 0.107-1.551l-0.007 0.058c0.084-0.998 0.601-1.858 1.357-2.399l0.010-0.007c1.414-0.83 3.822 0.024 6.271 2.228 1.999 1.914 3.706 4.112 5.061 6.539l0.071 0.138c1.412 2.296 2.528 4.96 3.206 7.796l0.038 0.186c0.161 0.709 0.254 1.524 0.254 2.359 0 0.577-0.043 1.143-0.129 1.696l0.008-0.062c-0.102 1.022-0.637 1.901-1.413 2.455l-0.011 0.007c-0.344 0.199-0.755 0.316-1.193 0.316-0.018 0-0.036 0-0.053-0.001l0.003 0.001zM12.286 18.179c1.442 2.57 3.181 4.77 5.212 6.655l0.020 0.018c2.142 1.863 3.841 2.266 4.576 1.834 0.764-0.446 1.324-2.276 0.746-5.232-0.694-2.889-1.767-5.433-3.183-7.739l0.064 0.112c-1.364-2.456-2.993-4.561-4.893-6.383l-0.012-0.011c-2.308-2.074-4.178-2.539-4.942-2.094-0.468 0.385-0.775 0.952-0.816 1.593v0.007c-0.054 0.39-0.085 0.84-0.085 1.298 0 0.757 0.085 1.493 0.245 2.201l-0.013-0.066c0.665 2.951 1.727 5.558 3.146 7.922l-0.065-0.117-0.001 0.003z"></path>
</symbol>
<symbol id="icon-redux" viewBox="0 0 32 32">
<path fill="#8459e4" style="fill: var(--color17, #8459e4)" d="M12.605 7.35c0.949-1.185 2.736-1.771 3.954-1.801 3.416-0.065 4.84 4.188 4.95 5.878l1.581 0.474c-0.364-5.182-3.589-7.901-6.675-7.901-2.893-0.001-5.565 2.101-6.642 5.182-1.47 4.108-0.506 8.058 1.297 11.219-0.157 0.206-0.252 0.568-0.221 0.915 0.031 0.949 0.837 1.739 1.803 1.739h0.063c0.239-0.007 0.474-0.061 0.692-0.159s0.413-0.238 0.575-0.412c0.162-0.174 0.287-0.378 0.369-0.6s0.117-0.458 0.104-0.694c0-0.949-0.822-1.736-1.787-1.736h-0.064c-0.063 0-0.157 0-0.238 0.030-1.312-2.212-1.866-4.583-1.659-7.141 0.126-1.928 0.759-3.603 1.897-4.993z"></path>
<path fill="#8459e4" style="fill: var(--color17, #8459e4)" d="M4.983 25.285c1.060 1.58 3.227 2.59 5.599 2.59 0.632 0 1.297-0.046 1.945-0.205 4.113-0.79 7.229-3.255 9.016-6.888l0.015-0.032c0.917-0.079 1.629-0.886 1.582-1.85-0.049-0.964-0.839-1.737-1.803-1.737h-0.064c-0.995 0.032-1.771 0.869-1.74 1.866 0.032 0.505 0.239 0.916 0.521 1.216-1.106 2.15-2.767 3.729-5.282 5.057-1.692 0.884-3.479 1.217-5.219 0.98-1.455-0.205-2.593-0.855-3.289-1.896-1.043-1.581-1.138-3.286-0.269-4.992 0.634-1.232 1.582-2.133 2.216-2.577-0.158-0.41-0.348-1.105-0.443-1.626-4.684 3.349-4.208 7.93-2.785 10.095z"></path>
<path fill="#8459e4" style="fill: var(--color17, #8459e4)" d="M28.769 24.588c0.948-1.896 0.87-5.087-1.551-7.821l-0.015 0.031c-2.45-2.876-6.057-4.456-10.171-4.456h-0.538c-0.267-0.584-0.883-0.949-1.58-0.949h-0.048c-0.995 0-1.771 0.855-1.739 1.849 0.032 0.947 0.838 1.738 1.803 1.738h0.078c0.343-0.014 0.675-0.127 0.955-0.323s0.498-0.468 0.626-0.783h0.586c2.437 0 4.745 0.711 6.85 2.101 1.612 1.059 2.768 2.449 3.416 4.108 0.568 1.359 0.537 2.686-0.047 3.793-0.901 1.737-2.421 2.655-4.428 2.655-1.266 0-2.499-0.395-3.132-0.679-0.379 0.314-1.012 0.836-1.472 1.153 1.391 0.63 2.799 0.995 4.159 0.995 3.085 0 5.376-1.736 6.247-3.412z"></path>
</symbol>
<symbol id="icon-scss" viewBox="0 0 32 32">
<path fill="#cb6699" style="fill: var(--color18, #cb6699)" d="M2.667 14.229c0 0.16 0.044 0.265 0.069 0.368 0.161 0.666 0.506 1.238 0.915 1.76 0.583 0.743 1.298 1.342 2.029 1.905 0.635 0.488 1.282 0.965 1.919 1.449 0.109 0.083 0.213 0.179 0.332 0.281-0.102 0.059-0.187 0.111-0.275 0.159-0.841 0.456-1.65 0.968-2.396 1.587-0.449 0.374-0.884 0.77-1.191 1.289-0.494 0.834-0.669 1.723-0.301 2.672 0.107 0.277 0.271 0.517 0.503 0.694 0.075 0.057 0.159 0.114 0.247 0.136 0.225 0.057 0.454 0.094 0.681 0.138l0.644-0c0.712-0.068 1.361-0.329 1.947-0.762 0.916-0.676 1.533-1.583 1.798-2.746 0.193-0.846 0.201-1.692-0.027-2.534-0.021-0.078-0.048-0.155-0.075-0.23s-0.060-0.149-0.098-0.244l1.46-0.898 0.022 0.020c-0.027 0.093-0.055 0.186-0.079 0.279-0.174 0.678-0.289 1.368-0.247 2.071 0.044 0.75 0.24 1.451 0.65 2.078 0.332 0.507 1.122 0.525 1.475 0.017 0.125-0.181 0.246-0.369 0.338-0.571 0.238-0.526 0.459-1.061 0.686-1.593l0.040-0.097c-0.016 0.252-0.035 0.473-0.044 0.694-0.014 0.346 0.005 0.689 0.116 1.018 0.095 0.281 0.255 0.491 0.557 0.529 0.206 0.025 0.37-0.076 0.522-0.204 0.237-0.2 0.429-0.446 0.572-0.727 0.404-0.793 0.818-1.581 1.184-2.395 0.396-0.879 0.742-1.785 1.11-2.679l0.061-0.159c0.087 0.365 0.147 0.723 0.259 1.061 0.13 0.393 0.29 0.776 0.465 1.149 0.083 0.176 0.073 0.29-0.041 0.438-0.479 0.618-0.95 1.243-1.421 1.868-0.104 0.138-0.208 0.278-0.295 0.429-0.052 0.092-0.087 0.203-0.102 0.31-0.028 0.204 0.090 0.401 0.294 0.448 0.186 0.043 0.385 0.059 0.575 0.044 0.658-0.052 1.255-0.299 1.783-0.717 0.684-0.542 0.904-1.282 0.738-2.159-0.045-0.238-0.124-0.469-0.201-0.698-0.035-0.103-0.037-0.176 0.026-0.272 0.547-0.835 1.014-1.722 1.449-2.628 0.017-0.036 0.035-0.071 0.065-0.11 0.141 0.784 0.353 1.539 0.733 2.225-0.194 0.2-0.385 0.381-0.559 0.58-0.382 0.439-0.713 0.916-0.886 1.498-0.074 0.251-0.131 0.506-0.098 0.774 0.051 0.416 0.37 0.686 0.753 0.592 0.819-0.203 1.525-0.615 2.041-1.346 0.347-0.492 0.379-1.041 0.234-1.616-0.040-0.156-0.087-0.31-0.138-0.489 0.202-0.067 0.399-0.147 0.603-0.197 1.057-0.258 2.103-0.213 3.123 0.195 0.595 0.239 1.076 0.638 1.361 1.266 0.348 0.768 0.156 1.496-0.521 1.981-0.063 0.045-0.135 0.081-0.188 0.137-0.032 0.035-0.051 0.104-0.043 0.152 0.004 0.028 0.073 0.063 0.113 0.063 0.222-0.002 0.403-0.127 0.576-0.255 0.434-0.321 0.75-0.753 0.818-1.322l0.013-0.043-0.016-0.37c-0.007-0.021 0.005-0.042 0.003-0.059-0.092-0.828-0.506-1.47-1.107-1.974-0.697-0.583-1.519-0.823-2.389-0.861-0.709-0.031-1.406 0.082-2.074 0.341-0.191 0.074-0.379 0.161-0.571 0.244-0.026-0.050-0.053-0.097-0.076-0.147-0.197-0.431-0.435-0.842-0.488-1.336-0.037-0.351-0.083-0.701-0.005-1.048 0.075-0.334 0.173-0.662 0.265-0.991 0.047-0.169 0.014-0.264-0.137-0.341-0.053-0.027-0.11-0.050-0.167-0.059-0.372-0.058-0.738-0.025-1.098 0.087-0.127 0.040-0.22 0.116-0.248 0.267-0.016 0.087-0.049 0.169-0.072 0.255-0.094 0.355-0.161 0.717-0.313 1.055-0.381 0.849-0.816 1.665-1.261 2.476-0.048 0.087-0.099 0.173-0.16 0.279-0.156-0.35-0.323-0.664-0.374-1.032-0.057-0.416-0.102-0.832-0.005-1.245 0.072-0.308 0.166-0.61 0.253-0.914 0.041-0.145 0.022-0.22-0.1-0.297-0.062-0.038-0.132-0.072-0.201-0.084-0.386-0.061-0.765-0.029-1.137 0.1-0.115 0.040-0.176 0.12-0.211 0.247-0.104 0.375-0.192 0.76-0.338 1.117-0.589 1.445-1.195 2.882-1.801 4.32-0.126 0.3-0.274 0.59-0.417 0.882-0.036 0.074-0.089 0.139-0.134 0.209-0.036-0.046-0.050-0.077-0.050-0.108 0.001-0.185-0.019-0.375 0.013-0.553 0.1-0.54 0.214-1.078 0.335-1.613 0.1-0.442 0.216-0.88 0.327-1.319 0.037-0.147 0.038-0.284-0.061-0.408-0.166-0.207-0.513-0.252-0.718-0.093l-0.091 0.055 0.018-0.157c0.043-0.336 0.052-0.671-0.034-1.002-0.107-0.413-0.383-0.65-0.783-0.637-0.187 0.006-0.382 0.040-0.555 0.113-0.726 0.305-1.285 0.844-1.76 1.492-0.043 0.059-0.1 0.112-0.161 0.149-0.614 0.364-1.231 0.724-1.847 1.085l-0.686 0.402c-0.184-0.188-0.351-0.382-0.541-0.547-0.579-0.505-1.168-0.998-1.751-1.498-0.517-0.443-1.018-0.904-1.401-1.49-0.285-0.436-0.469-0.913-0.486-1.453-0.022-0.687 0.16-1.315 0.487-1.9 0.418-0.748 0.989-1.348 1.617-1.892 0.664-0.575 1.382-1.063 2.126-1.508 1.041-0.623 2.112-1.175 3.26-1.539 1.177-0.373 2.371-0.587 3.603-0.438 0.484 0.059 0.955 0.177 1.386 0.431 0.331 0.194 0.602 0.448 0.728 0.844 0.125 0.39 0.121 0.786 0.034 1.182-0.175 0.803-0.586 1.465-1.103 2.056-0.848 0.969-1.883 1.629-3.048 2.065-0.672 0.251-1.364 0.409-2.074 0.473-0.58 0.052-1.147-0.003-1.696-0.219-0.363-0.143-0.68-0.361-0.934-0.679-0.045-0.057-0.104-0.118-0.188-0.065-0.083 0.052-0.098 0.137-0.070 0.222 0.047 0.142 0.089 0.29 0.162 0.418 0.182 0.319 0.448 0.551 0.74 0.749 0.561 0.382 1.189 0.51 1.839 0.54 0.987 0.046 1.95-0.112 2.9-0.395 1.356-0.404 2.535-1.119 3.48-2.246 0.787-0.938 1.349-1.997 1.47-3.276 0.059-0.624-0.004-1.235-0.277-1.805-0.296-0.617-0.767-1.075-1.331-1.392-0.82-0.46-1.705-0.728-2.619-0.728h-0.915c-1.107 0-2.176 0.339-3.216 0.744-0.787 0.306-1.559 0.668-2.308 1.068-1.632 0.872-3.151 1.924-4.4 3.37-0.622 0.72-1.148 1.515-1.451 2.451-0.089 0.274-0.173 0.568-0.236 0.851zM8.598 22c-0.071 1.013-0.5 1.834-1.202 2.499-0.395 0.374-0.847 0.64-1.374 0.734-0.191 0.034-0.387 0.042-0.572-0.043-0.264-0.121-0.324-0.372-0.329-0.639-0.008-0.426 0.132-0.812 0.323-1.178 0.25-0.478 0.616-0.842 1.007-1.183 0.616-0.536 1.284-0.99 1.968-1.419l0.052-0.023c0.106 0.418 0.156 0.831 0.127 1.251zM13.941 17.597c-0.050 0.323-0.112 0.647-0.201 0.961-0.305 1.085-0.698 2.137-1.122 3.174-0.078 0.192-0.192 0.367-0.292 0.549-0.015 0.028-0.038 0.052-0.060 0.076-0.123 0.13-0.239 0.123-0.301-0.047-0.072-0.197-0.117-0.408-0.155-0.617-0.026-0.14-0.020-0.287-0.028-0.431 0.008-1.021 0.299-1.949 0.793-2.813 0.204-0.356 0.425-0.696 0.764-0.921 0.104-0.069 0.221-0.125 0.339-0.16 0.181-0.054 0.291 0.035 0.261 0.229zM17.587 22.565l1.31-1.637c0.055 0.608-0.911 1.821-1.31 1.637zM21.772 21.464c-0.093 0.057-0.194 0.098-0.289 0.15-0.087 0.048-0.115-0-0.118-0.080-0.002-0.054 0.006-0.111 0.020-0.164 0.177-0.667 0.503-1.237 0.987-1.701l0.034-0.019c0.23 0.69-0.036 1.447-0.634 1.813z"></path>
</symbol>
<symbol id="icon-seo" viewBox="0 0 32 32">
<path d="M5.905 14.451c0.098-0.024 9.414-2.204 17.731-5.598l-0.666 1.621c-0.211 0.509 0.034 1.102 0.549 1.303 0.588 0.235 1.161-0.132 1.303-0.549l1.7-4.158c0.103-0.245 0.098-0.524-0.005-0.769s-0.299-0.441-0.549-0.539l-4.188-1.69c-0.514-0.206-1.097 0.039-1.303 0.553s0.039 1.097 0.553 1.303l2.243 0.906c-8.253 3.424-17.721 5.642-17.819 5.667-0.539 0.122-0.877 0.661-0.749 1.2 0.108 0.46 0.602 0.896 1.2 0.749z"></path>
<path d="M26.918 26.006v-11.672c0-0.553-0.446-0.999-0.999-0.999s-0.999 0.446-0.999 0.999v11.667h-4.697v-10.173c0-0.553-0.446-0.999-0.999-0.999s-0.999 0.446-0.999 0.999v10.178h-4.697v-8.689c0-0.554-0.446-0.999-0.999-0.999s-0.999 0.446-0.999 0.999v8.689h-4.702v-6.7c0-0.553-0.446-0.999-0.999-0.999s-0.999 0.446-0.999 0.999v6.715c-0.47 0.083-0.828 0.49-0.828 0.985 0 0.553 0.446 0.999 0.999 0.999h22.002c0.553 0 0.999-0.446 0.999-0.999s-0.475-1.029-1.082-0.999z"></path>
</symbol>
<symbol id="icon-ts" viewBox="0 0 32 32">
<path fill="#2196f3" style="fill: var(--color15, #2196f3)" d="M2.667 16v12c0 0.736 0.597 1.333 1.333 1.333h24c0.736 0 1.333-0.597 1.333-1.333v-24c0-0.736-0.597-1.333-1.333-1.333h-24c-0.736 0-1.333 0.597-1.333 1.333v12zM18.848 24.473c0.12-0.068 0.568-0.327 0.991-0.572l0.767-0.444 0.161 0.238c0.224 0.342 0.714 0.812 1.011 0.969 0.851 0.449 2.019 0.386 2.595-0.131 0.214-0.181 0.349-0.45 0.349-0.75 0-0.018 0-0.035-0.001-0.052v0.002c0-0.309-0.039-0.445-0.2-0.678-0.207-0.295-0.63-0.544-1.832-1.067-1.375-0.592-1.968-0.96-2.51-1.544-0.327-0.371-0.579-0.818-0.725-1.309l-0.007-0.024c-0.101-0.377-0.127-1.321-0.047-1.701 0.283-1.33 1.287-2.256 2.734-2.531 0.47-0.089 1.562-0.055 2.023 0.059 0.678 0.169 1.193 0.471 1.668 0.962 0.246 0.262 0.61 0.74 0.639 0.855 0.009 0.033-1.151 0.811-1.853 1.248-0.026 0.017-0.128-0.093-0.241-0.262-0.345-0.5-0.703-0.716-1.253-0.753-0.809-0.056-1.329 0.368-1.325 1.074 0 0.012-0.001 0.027-0.001 0.041 0 0.168 0.042 0.325 0.117 0.463l-0.002-0.006c0.178 0.368 0.509 0.589 1.545 1.037 1.91 0.822 2.727 1.363 3.234 2.133 0.567 0.859 0.694 2.231 0.309 3.251-0.422 1.109-1.472 1.862-2.95 2.111-0.457 0.081-1.54 0.069-2.031-0.020-1.071-0.191-2.087-0.72-2.713-1.415-0.245-0.27-0.724-0.978-0.694-1.028 0.012-0.018 0.122-0.086 0.244-0.157zM8.509 16.072c0-0.593 0.012-1.089 0.029-1.1 0.013-0.018 2.126-0.027 4.686-0.022l4.661 0.013 0.012 1.088 0.009 1.092h-3.472v9.862h-2.456v-9.862h-3.469v-1.071z"></path>
</symbol>
<symbol id="icon-vscode" viewBox="0 0 32 32">
<path fill="#0065a9" d="M28.391 5.492l-5.491-2.659c-0.31-0.15-0.659-0.2-0.998-0.142s-0.652 0.221-0.896 0.466l-17.975 16.484c-0.218 0.199-0.349 0.477-0.363 0.773s0.089 0.585 0.287 0.805c0.024 0.026 0.048 0.051 0.073 0.074l1.467 1.341c0.192 0.175 0.439 0.278 0.698 0.289s0.514-0.068 0.72-0.226l21.651-16.514c0.163-0.125 0.358-0.201 0.563-0.221s0.41 0.019 0.594 0.111c0.184 0.092 0.339 0.233 0.447 0.409s0.166 0.378 0.166 0.584v-0.064c0-0.315-0.089-0.624-0.255-0.891s-0.405-0.481-0.687-0.618z"></path>
<path fill="#007acc"  d="M28.391 26.508l-5.491 2.66c-0.31 0.15-0.659 0.199-0.998 0.141s-0.652-0.221-0.896-0.465l-17.975-16.485c-0.218-0.199-0.349-0.477-0.363-0.773s0.089-0.585 0.287-0.805c0.024-0.026 0.048-0.051 0.073-0.074l1.467-1.341c0.192-0.176 0.439-0.279 0.699-0.291s0.515 0.069 0.722 0.228l21.648 16.514c0.163 0.125 0.358 0.201 0.563 0.221s0.41-0.019 0.594-0.111c0.184-0.092 0.339-0.233 0.447-0.409s0.166-0.378 0.166-0.584v0.069c-0.001 0.314-0.090 0.622-0.257 0.888s-0.405 0.479-0.686 0.616z"></path>
<path fill="#1f9cf0" d="M22.9 29.168c-0.31 0.15-0.659 0.199-0.998 0.141s-0.652-0.221-0.896-0.465c0.137 0.136 0.31 0.228 0.499 0.265s0.384 0.017 0.561-0.057c0.177-0.074 0.329-0.199 0.436-0.36s0.165-0.349 0.165-0.542v-24.3c0-0.194-0.057-0.384-0.164-0.546s-0.26-0.287-0.438-0.362c-0.178-0.074-0.375-0.094-0.564-0.056s-0.363 0.132-0.499 0.269c0.243-0.245 0.556-0.408 0.896-0.466s0.688-0.009 0.999 0.141l5.49 2.655c0.283 0.136 0.523 0.35 0.69 0.617s0.257 0.576 0.257 0.892v18.009c0 0.316-0.089 0.625-0.255 0.892s-0.406 0.481-0.688 0.618l-5.49 2.654z"></path>
</symbol>
<symbol id="icon-wordpress" viewBox="0 0 32 32">
<path fill="#fff" d="M4.562 15.999c0 4.528 2.631 8.44 6.446 10.294l-5.456-14.949c-0.654 1.465-0.992 3.051-0.99 4.655zM23.721 15.422c0-1.414-0.508-2.393-0.943-3.155-0.58-0.942-1.123-1.74-1.123-2.682 0-1.051 0.797-2.030 1.92-2.030 0.051 0 0.099 0.006 0.148 0.009-2.035-1.864-4.746-3.003-7.724-3.003-3.996 0-7.511 2.050-9.557 5.156 0.268 0.008 0.521 0.014 0.736 0.014 1.196 0 3.048-0.145 3.048-0.145 0.617-0.036 0.689 0.869 0.074 0.942 0 0-0.62 0.073-1.309 0.109l4.165 12.389 2.503-7.507-1.782-4.882c-0.616-0.036-1.199-0.109-1.199-0.109-0.616-0.036-0.544-0.979 0.072-0.942 0 0 1.889 0.145 3.013 0.145 1.196 0 3.048-0.145 3.048-0.145 0.617-0.036 0.689 0.869 0.073 0.942 0 0-0.621 0.073-1.309 0.109l4.133 12.296 1.141-3.813c0.495-1.582 0.871-2.718 0.871-3.698z"></path>
<path fill="#fff" d="M16.2 17l-3.432 9.972c1.049 0.309 2.137 0.466 3.231 0.466 1.332 0 2.609-0.231 3.798-0.648-0.032-0.050-0.059-0.103-0.081-0.158l-3.516-9.632zM26.036 10.512c0.049 0.364 0.077 0.756 0.077 1.176 0 1.161-0.217 2.466-0.87 4.097l-3.494 10.101c3.4-1.983 5.688-5.667 5.688-9.887 0.003-1.918-0.479-3.806-1.401-5.488z"></path>
<path fill="#fff" d="M16 2.667c-7.352 0-13.333 5.981-13.333 13.333s5.981 13.334 13.333 13.334c7.351 0 13.334-5.981 13.334-13.334s-5.982-13.333-13.334-13.333zM16 28.722c-7.015 0-12.722-5.707-12.722-12.722s5.707-12.721 12.722-12.721c7.014 0 12.721 5.707 12.721 12.721s-5.707 12.722-12.721 12.722z"></path>
</symbol>
</defs>
</svg>
