<svg aria-hidden="true" style="position: absolute; width: 0; height: 0; overflow: hidden;" version="1.1" xmlns="http://www.w3.org/2000/svg" xmlns:xlink="http://www.w3.org/1999/xlink">
<defs>
<symbol id="icon-chevron" viewBox="0 0 32 32">
<path d="M23.651 27.501c0.224 0.202 0.349 0.475 0.349 0.759s-0.125 0.557-0.349 0.759c-0.11 0.1-0.241 0.179-0.386 0.233s-0.3 0.082-0.457 0.082-0.312-0.028-0.457-0.082c-0.145-0.054-0.276-0.133-0.386-0.233l-13.617-12.26c-0.224-0.202-0.349-0.475-0.349-0.759s0.125-0.557 0.349-0.759l13.617-12.26c0.11-0.1 0.241-0.179 0.386-0.233s0.3-0.082 0.457-0.082 0.312 0.028 0.457 0.082c0.145 0.054 0.276 0.133 0.386 0.233 0.224 0.202 0.349 0.475 0.349 0.759s-0.125 0.557-0.349 0.759l-12.418 11.502 12.418 11.5z"></path>
</symbol>
<symbol id="icon-arrow" viewBox="0 0 32 32">
<path d="M29.227 16.512c0.133-0.325 0.133-0.689 0-1.013-0.063-0.164-0.159-0.313-0.28-0.44l-9.333-9.333c-0.124-0.124-0.272-0.223-0.434-0.29s-0.336-0.102-0.512-0.102c-0.355 0-0.696 0.141-0.947 0.392-0.124 0.124-0.223 0.272-0.29 0.434s-0.102 0.337-0.102 0.512c0 0.355 0.141 0.696 0.392 0.947l7.067 7.053h-20.787c-0.354 0-0.693 0.14-0.943 0.391s-0.391 0.589-0.391 0.943 0.14 0.693 0.391 0.943c0.25 0.25 0.589 0.391 0.943 0.391h20.787l-7.067 7.053c-0.125 0.124-0.224 0.271-0.292 0.434s-0.103 0.337-0.103 0.513 0.035 0.35 0.103 0.513c0.068 0.162 0.167 0.31 0.292 0.434s0.271 0.224 0.434 0.292c0.163 0.068 0.337 0.103 0.513 0.103s0.35-0.035 0.513-0.103c0.162-0.068 0.31-0.167 0.434-0.292l9.333-9.333c0.121-0.127 0.217-0.276 0.28-0.44z"></path>
</symbol>
<symbol id="icon-seo" viewBox="0 0 32 32">
<path d="M5.905 14.451c0.098-0.024 9.414-2.204 17.731-5.598l-0.666 1.621c-0.211 0.509 0.034 1.102 0.549 1.303 0.588 0.235 1.161-0.132 1.303-0.549l1.7-4.158c0.103-0.245 0.098-0.524-0.005-0.769s-0.299-0.441-0.549-0.539l-4.188-1.69c-0.514-0.206-1.097 0.039-1.303 0.553s0.039 1.097 0.553 1.303l2.243 0.906c-8.253 3.424-17.721 5.642-17.819 5.667-0.539 0.122-0.877 0.661-0.749 1.2 0.108 0.46 0.602 0.896 1.2 0.749z"></path>
<path d="M26.918 26.006v-11.672c0-0.553-0.446-0.999-0.999-0.999s-0.999 0.446-0.999 0.999v11.667h-4.697v-10.173c0-0.553-0.446-0.999-0.999-0.999s-0.999 0.446-0.999 0.999v10.178h-4.697v-8.689c0-0.554-0.446-0.999-0.999-0.999s-0.999 0.446-0.999 0.999v8.689h-4.702v-6.7c0-0.553-0.446-0.999-0.999-0.999s-0.999 0.446-0.999 0.999v6.715c-0.47 0.083-0.828 0.49-0.828 0.985 0 0.553 0.446 0.999 0.999 0.999h22.002c0.553 0 0.999-0.446 0.999-0.999s-0.475-1.029-1.082-0.999z"></path>
</symbol>
<symbol id="icon-code" viewBox="0 0 32 32">
<path d="M10.502 22.581l-0.801 0.825c-0.107 0.11-0.23 0.165-0.369 0.165s-0.262-0.055-0.369-0.165l-7.47-7.693c-0.107-0.11-0.16-0.237-0.16-0.38s0.053-0.27 0.16-0.38l7.47-7.693c0.107-0.11 0.23-0.165 0.369-0.165s0.262 0.055 0.369 0.165l0.801 0.825c0.107 0.11 0.16 0.237 0.16 0.38s-0.053 0.27-0.16 0.38l-6.299 6.488 6.299 6.488c0.107 0.11 0.16 0.237 0.16 0.38s-0.053 0.27-0.16 0.38zM19.975 4.966l-5.979 21.312c-0.043 0.143-0.126 0.25-0.249 0.322s-0.248 0.085-0.377 0.041l-0.994-0.281c-0.139-0.044-0.243-0.129-0.313-0.256s-0.083-0.261-0.040-0.404l5.979-21.312c0.043-0.143 0.126-0.25 0.249-0.322s0.248-0.085 0.377-0.041l0.994 0.281c0.139 0.044 0.243 0.129 0.313 0.256s0.083 0.261 0.040 0.404zM30.506 15.713l-7.47 7.693c-0.107 0.11-0.23 0.165-0.369 0.165s-0.262-0.055-0.369-0.165l-0.801-0.825c-0.107-0.11-0.16-0.237-0.16-0.38s0.053-0.27 0.16-0.38l6.299-6.488-6.299-6.488c-0.107-0.11-0.16-0.237-0.16-0.38s0.053-0.27 0.16-0.38l0.801-0.825c0.107-0.11 0.23-0.165 0.369-0.165s0.262 0.055 0.369 0.165l7.47 7.693c0.107 0.11 0.16 0.237 0.16 0.38s-0.053 0.27-0.16 0.38z"></path>
</symbol>
<symbol id="icon-diamond" viewBox="0 0 32 32">
<path d="M24.187 4c-0.849 0-15.437 0-16.372 0l-5.148 7.020 13.389 17.646 13.278-17.648-5.147-7.018zM9.986 11.791l3.772 11.269-8.55-11.269h4.778zM11.629 11.791h8.748l-4.344 13.157-4.404-13.157zM22.018 11.791h4.784l-8.524 11.33 3.741-11.33zM23.397 5.558l3.428 4.675h-4.806l-1.534-4.675h2.912zM18.845 5.558l1.534 4.675h-8.756l1.534-4.675h5.689zM8.604 5.558h2.912l-1.534 4.675h-4.806l3.428-4.675z"></path>
</symbol>
<symbol id="icon-angular" viewBox="0 0 32 32">
<path fill='#F44336' d="M16 10.667l-2.498 4.606h5.224l-2.726-4.606zM15.971 2.667l-11.971 2.667 1.333 18.667 10.638 5.333 10.696-5.333 1.333-18.667-12.029-2.667zM21.591 21.831l-1.804-4.141h-7.365l-1.647 4.085-3.065 0.056 8.291-16.498 8.43 16.498h-2.839z"/>
</symbol>
<symbol id="icon-cloud" viewBox="0 0 32 32">
<path d="M19.080 23.049l-1.722 1.734v-7.458c0-0.354-0.141-0.693-0.391-0.943s-0.59-0.391-0.944-0.391c-0.354 0-0.693 0.141-0.944 0.391s-0.391 0.59-0.391 0.943v7.458l-1.722-1.734c-0.124-0.124-0.272-0.223-0.435-0.29s-0.337-0.102-0.513-0.102c-0.176 0-0.35 0.035-0.513 0.102s-0.31 0.166-0.435 0.29c-0.124 0.124-0.223 0.272-0.29 0.435s-0.102 0.337-0.102 0.513c0 0.176 0.035 0.35 0.102 0.513s0.166 0.31 0.29 0.435l4.004 4.003c0.127 0.121 0.277 0.217 0.44 0.28 0.16 0.071 0.332 0.107 0.507 0.107s0.347-0.036 0.507-0.107c0.164-0.063 0.313-0.159 0.44-0.28l4.004-4.003c0.251-0.251 0.393-0.592 0.393-0.947s-0.141-0.696-0.393-0.947c-0.251-0.251-0.592-0.392-0.947-0.392s-0.696 0.141-0.948 0.392zM24.592 8.279c-0.815-1.873-2.223-3.427-4.006-4.425s-3.845-1.382-5.868-1.096c-2.023 0.286-3.897 1.228-5.334 2.68s-2.358 3.336-2.621 5.362c-1.272 0.305-2.389 1.066-3.137 2.139s-1.076 2.384-0.921 3.683c0.155 1.299 0.781 2.496 1.761 3.363s2.243 1.345 3.552 1.342c0.354 0 0.693-0.141 0.944-0.391s0.391-0.59 0.391-0.943-0.141-0.693-0.391-0.943c-0.25-0.25-0.59-0.391-0.944-0.391-0.708 0-1.387-0.281-1.887-0.781s-0.782-1.179-0.782-1.887c0-0.708 0.281-1.386 0.782-1.887s1.179-0.782 1.887-0.782c0.354 0 0.693-0.141 0.944-0.391s0.391-0.59 0.391-0.943c0.003-1.578 0.566-3.104 1.589-4.306s2.438-2.003 3.995-2.261c1.557-0.258 3.155 0.045 4.511 0.854s2.38 2.072 2.891 3.565c0.076 0.229 0.213 0.434 0.397 0.591s0.406 0.262 0.644 0.303c0.889 0.168 1.695 0.632 2.286 1.316s0.934 1.549 0.971 2.452c0.037 0.904-0.233 1.793-0.766 2.524s-1.298 1.259-2.17 1.499c-0.17 0.044-0.33 0.121-0.47 0.226s-0.259 0.238-0.348 0.389c-0.089 0.151-0.148 0.318-0.172 0.492s-0.015 0.351 0.029 0.521c0.044 0.17 0.121 0.33 0.226 0.47s0.238 0.258 0.389 0.347 0.319 0.148 0.492 0.172c0.174 0.025 0.351 0.015 0.521-0.029 1.404-0.371 2.649-1.19 3.546-2.333s1.395-2.547 1.421-3.999c0.026-1.452-0.423-2.873-1.279-4.047s-2.071-2.036-3.461-2.457z"/>
</symbol>
<symbol id="icon-css" viewBox="0 0 32 32">
<path d="M5.729 2.667c-0.783 0-1.398 0.672-1.328 1.452l1.924 21.597c0.049 0.553 0.436 1.017 0.97 1.166l8.333 2.324c0.234 0.065 0.482 0.065 0.717 0l8.36-2.334c0.534-0.149 0.92-0.613 0.97-1.166l1.925-21.587c0.070-0.78-0.545-1.452-1.328-1.452h-20.541zM23.293 8.158l-0.711 7.984 0.003 0.043-0.003 0.099-0.505 5.581-0.056 0.496-6.026 1.67-6.010-1.675-0.407-4.615h2.947l0.209 2.347 3.266 0.886 3.278-0.898 0.347-3.822h-6.854l-0.059-0.646-0.134-1.514-0.070-0.813h7.377l0.269-2.972h-11.237l-0.059-0.645-0.134-1.514-0.070-0.813h14.71l-0.070 0.82z" fill='#2196F3'/>
</symbol>
<symbol id="icon-github" viewBox="0 0 32 32">
<path d="M5.333 4h21.333c0.734 0 1.333 0.597 1.333 1.333v21.333c-0 0.354-0.141 0.693-0.391 0.943s-0.589 0.391-0.943 0.391h-6.666c-1.024 0-1.024-0.944-1.024-1.263 0-0.394 0.014-1.682 0.014-3.283 0-1.116-0.384-1.844-0.814-2.215 2.672-0.296 5.479-1.308 5.479-5.902 0-1.306-0.466-2.373-1.235-3.211 0.125-0.301 0.536-1.518-0.118-3.165 0 0-1.006-0.322-3.297 1.226-0.959-0.265-1.986-0.398-3.006-0.402-1.020 0.004-2.046 0.137-3.004 0.402-2.293-1.548-3.301-1.226-3.301-1.226-0.652 1.648-0.241 2.864-0.116 3.165-0.768 0.838-1.237 1.905-1.237 3.211 0 4.583 2.802 5.609 5.467 5.911-0.343 0.299-0.654 0.827-0.762 1.6-0.685 0.305-2.422 0.834-3.492-0.995 0 0-0.635-1.148-1.84-1.233 0 0-1.171-0.015-0.082 0.727 0 0 0.787 0.368 1.332 1.75 0 0 0.705 2.135 4.043 1.411 0.005 0.999 0.016 1.942 0.016 2.227 0 0.316-0.36 1.263-1.026 1.263h-6.667c-0.738 0-1.333-0.597-1.333-1.333v-21.333c0-0.734 0.597-1.333 1.333-1.333zM8.545 21.175c0.030-0.060-0.019-0.142-0.107-0.181-0.087-0.041-0.181-0.024-0.207 0.037-0.028 0.060 0.021 0.141 0.108 0.18 0.086 0.041 0.179 0.023 0.206-0.036zM9.031 21.715c0.060-0.054 0.045-0.164-0.034-0.248s-0.187-0.108-0.246-0.055c-0.058 0.054-0.043 0.165 0.035 0.249 0.076 0.084 0.188 0.108 0.245 0.055zM9.504 22.404c0.075-0.052 0.075-0.18 0.002-0.288-0.075-0.106-0.194-0.151-0.268-0.1s-0.075 0.178-0.001 0.285c0.074 0.107 0.195 0.154 0.268 0.103zM10.152 23.070c0.070-0.071 0.038-0.209-0.066-0.306s-0.244-0.118-0.311-0.046c-0.066 0.072-0.037 0.209 0.068 0.306 0.103 0.099 0.243 0.118 0.308 0.046zM11.047 23.456c0.028-0.095-0.061-0.204-0.196-0.245-0.137-0.043-0.272 0.002-0.3 0.096s0.061 0.204 0.197 0.246c0.136 0.040 0.271-0.003 0.3-0.097zM12.029 23.528c0-0.098-0.117-0.177-0.259-0.175s-0.256 0.083-0.256 0.183c0.002 0.097 0.118 0.177 0.261 0.174 0.143-0.002 0.258-0.084 0.254-0.182zM12.943 23.373c-0.018-0.098-0.145-0.156-0.287-0.131-0.139 0.026-0.24 0.124-0.223 0.223 0.018 0.096 0.147 0.155 0.286 0.13 0.142-0.026 0.241-0.125 0.224-0.221z"></path>
</symbol>
<symbol id="icon-github-round" viewBox="0 0 32 32">
<path d="M16 2.667c-3.166 0-6.229 1.155-8.64 3.259s-4.014 5.018-4.521 8.222c-0.507 3.204 0.114 6.489 1.753 9.266s4.188 4.866 7.191 5.893c0.667 0.12 0.917-0.291 0.917-0.649 0-0.325-0.017-1.401-0.017-2.546-3.35 0.632-4.217-0.837-4.483-1.606-0.296-0.748-0.765-1.411-1.367-1.931-0.467-0.256-1.133-0.889-0.017-0.906 0.426 0.047 0.835 0.2 1.192 0.443s0.651 0.572 0.858 0.958c0.182 0.336 0.428 0.632 0.722 0.87s0.631 0.415 0.992 0.52c0.361 0.105 0.738 0.136 1.11 0.091s0.732-0.165 1.059-0.353c0.058-0.695 0.36-1.345 0.85-1.828-2.967-0.342-6.067-1.521-6.067-6.75-0.019-1.359 0.47-2.673 1.367-3.674-0.408-1.181-0.36-2.477 0.133-3.623 0 0 1.117-0.359 3.667 1.401 2.182-0.615 4.485-0.615 6.667 0 2.55-1.777 3.667-1.401 3.667-1.401 0.493 1.146 0.541 2.442 0.133 3.623 0.899 0.999 1.389 2.315 1.367 3.674 0 5.246-3.117 6.408-6.083 6.75 0.318 0.331 0.563 0.728 0.719 1.164s0.217 0.902 0.181 1.365c0 1.829-0.017 3.298-0.017 3.759 0 0.359 0.25 0.786 0.917 0.649 2.998-1.035 5.54-3.129 7.172-5.908s2.247-6.062 1.737-9.263c-0.511-3.201-2.114-6.112-4.525-8.213s-5.47-3.255-8.634-3.257z"></path>
</symbol>
<symbol id="icon-graphql" viewBox="0 0 32 32">
<path fill='#E535AB' d="M8.54 9.218c-0.243-0.141-0.513-0.232-0.793-0.269s-0.564-0.018-0.836 0.055c-0.272 0.073-0.527 0.198-0.749 0.369s-0.408 0.384-0.545 0.626c-0.101 0.177-0.176 0.368-0.223 0.566-0.276 1.151 0.431 2.308 1.579 2.584l-0.001 5.699c-0.399 0.098-0.761 0.307-1.042 0.603-0.392 0.414-0.604 0.962-0.591 1.527s0.25 1.103 0.661 1.499c0.202 0.194 0.44 0.346 0.702 0.447s0.542 0.151 0.824 0.144 0.559-0.068 0.816-0.182c0.257-0.114 0.488-0.277 0.68-0.479l4.93 2.847c-0.059 0.198-0.088 0.403-0.088 0.609 0.001 1.181 0.958 2.137 2.137 2.136 0.228 0 0.452-0.037 0.669-0.108 1.121-0.371 1.731-1.582 1.359-2.706l4.899-2.832c0.223 0.252 0.505 0.448 0.821 0.57s0.658 0.168 0.996 0.134c0.338-0.035 0.663-0.149 0.947-0.333s0.519-0.432 0.685-0.724c0.105-0.181 0.184-0.377 0.232-0.581 0.273-1.146-0.434-2.296-1.578-2.569v-5.699c0.196-0.048 0.384-0.123 0.558-0.223 0.496-0.288 0.856-0.757 1.005-1.304s0.073-1.13-0.211-1.624c-0.102-0.176-0.229-0.337-0.377-0.477-0.202-0.194-0.442-0.346-0.705-0.447s-0.544-0.15-0.826-0.143c-0.282 0.007-0.56 0.070-0.817 0.184s-0.489 0.278-0.68 0.482l-4.929-2.85c0.059-0.199 0.090-0.408 0.089-0.617-0.001-1.18-0.958-2.135-2.137-2.134-0.206 0-0.412 0.029-0.609 0.088-1.129 0.335-1.775 1.524-1.439 2.657l-4.932 2.85c-0.14-0.148-0.301-0.275-0.478-0.377zM17.58 24.421c-0.199-0.219-0.442-0.395-0.715-0.515s-0.568-0.183-0.866-0.183c-0.605 0-1.151 0.249-1.538 0.653l-4.933-2.852 0.021-0.083h12.899c0.011 0.048 0.023 0.095 0.038 0.142l-4.907 2.838zM17.534 7.628l4.94 2.858-0.019 0.072c-0.283 1.146 0.412 2.305 1.556 2.588v5.707c-0.026 0.007-0.056 0.014-0.082 0.023l-6.453-11.19c0.021-0.018 0.040-0.037 0.058-0.058zM15.405 8.194c0.388 0.112 0.801 0.112 1.191 0l6.454 11.186c-0.297 0.285-0.506 0.647-0.602 1.044h-12.894c-0.097-0.395-0.305-0.756-0.599-1.041l6.452-11.189zM9.523 10.479l4.94-2.852 0.060 0.060-6.451 11.189-0.084-0.023v-5.708l0.076-0.021c1.133-0.327 1.786-1.51 1.459-2.645z"></path>
</symbol>
<symbol id="icon-html" viewBox="0 0 32 32" >
<path d="M5.756 2.667c-0.783 0-1.398 0.672-1.328 1.452l1.918 21.517c0.049 0.553 0.436 1.018 0.971 1.166l8.312 2.307c0.233 0.065 0.48 0.065 0.713 0l8.338-2.311c0.535-0.148 0.922-0.613 0.972-1.166l1.92-21.513c0.070-0.78-0.545-1.452-1.328-1.452h-20.488zM23.067 10.48h-11.211l0.268 3h10.677l-0.804 8.995-6.010 1.666-6.001-1.666-0.411-4.6h2.941l0.208 2.337 3.266 0.88 3.268-0.882 0.34-3.8h-10.154l-0.79-8.86h14.676l-0.262 2.93z" fill='#E44D26'/>
</symbol>
<symbol id="icon-js" viewBox="0 0 32 32">
<path fill='#F7DF1E' d="M4 26.667c0 0.736 0.597 1.333 1.333 1.333h21.333c0.736 0 1.333-0.597 1.333-1.333v-21.333c0-0.736-0.597-1.333-1.333-1.333h-21.333c-0.736 0-1.333 0.597-1.333 1.333v21.333zM23.784 22.629c-0.255-0.961-2.251-1.185-3.616-2.205-1.38-0.93-1.709-3.18-0.569-4.471 0.39-0.48 1.034-0.84 1.71-1.005l0.705-0.089c1.365-0.031 2.204 0.329 2.834 1.034 0.182 0.179 0.316 0.36 0.586 0.78-0.721 0.449-0.721 0.449-1.755 1.125-0.226-0.48-0.586-0.78-0.976-0.9-0.6-0.18-1.365 0.014-1.515 0.66-0.059 0.195-0.045 0.375 0.046 0.705 0.243 0.555 1.061 0.795 1.797 1.14 2.115 0.858 2.828 1.778 3.003 2.873l-0.046-0.067c0.166 0.945-0.045 1.56-0.074 1.65-0.781 2.67-5.131 2.76-6.871 1.004-0.36-0.42-0.6-0.629-0.81-1.109l1.83-1.051c0.495 0.75 0.944 1.156 1.755 1.336 1.096 0.135 2.206-0.24 1.966-1.41zM12.133 22.976c0.017 0 0.064 0.091 0.127 0.196 0.233 0.389 0.434 0.659 0.83 0.855 0.386 0.121 1.236 0.209 1.566-0.48 0.201-0.348 0.138-1.479 0.138-2.711 0-1.941 0.009-3.867 0.009-5.805h2.248l-0.004 0.056c0 2.070 0.012 4.125 0 6.179 0.005 1.276 0.113 2.416-0.397 3.346-0.353 0.72-1.028 1.185-1.811 1.411-1.203 0.27-2.352 0.105-3.207-0.405-0.574-0.345-1.019-0.887-1.324-1.517l1.825-1.125z"></path>
</symbol>
<symbol id="icon-linkedin" viewBox="0 0 32 32">
<path d="M26.225 4h-20.451c-0.23-0.003-0.458 0.039-0.672 0.123s-0.408 0.21-0.573 0.369c-0.165 0.159-0.296 0.349-0.387 0.559s-0.139 0.436-0.142 0.664v20.568c0.003 0.229 0.052 0.454 0.142 0.664s0.223 0.4 0.387 0.559 0.36 0.285 0.573 0.369c0.214 0.084 0.442 0.126 0.672 0.123h20.451c0.23 0.003 0.458-0.039 0.672-0.123s0.408-0.21 0.573-0.369 0.296-0.349 0.387-0.559c0.091-0.21 0.139-0.435 0.142-0.664v-20.568c-0.003-0.229-0.052-0.454-0.142-0.664s-0.223-0.4-0.387-0.559-0.36-0.285-0.573-0.369c-0.214-0.085-0.442-0.126-0.672-0.123zM11.28 24.088h-3.622v-10.8h3.622v10.8zM9.469 11.776c-0.499 0-0.979-0.197-1.332-0.548s-0.552-0.827-0.552-1.324c0-0.496 0.198-0.973 0.552-1.324s0.832-0.548 1.332-0.548c0.265-0.030 0.534-0.004 0.788 0.077s0.489 0.213 0.688 0.39c0.199 0.177 0.358 0.393 0.467 0.635s0.165 0.504 0.165 0.77c0 0.265-0.056 0.528-0.165 0.77s-0.268 0.459-0.467 0.635c-0.199 0.177-0.434 0.31-0.688 0.39s-0.523 0.107-0.788 0.077zM24.342 24.088h-3.622v-5.796c0-1.452-0.519-2.4-1.835-2.4-0.407 0.003-0.804 0.13-1.136 0.364s-0.585 0.563-0.723 0.944c-0.094 0.282-0.135 0.579-0.121 0.876v6h-3.622c0 0 0-9.816 0-10.8h3.622v1.524c0.329-0.567 0.807-1.035 1.384-1.352s1.229-0.472 1.888-0.448c2.415 0 4.165 1.548 4.165 4.872v6.216z"></path>
</symbol>
<symbol id="icon-nextjs" viewBox="0 0 32 32">
<path d="M15.127 2.674c-0.057 0.005-0.24 0.023-0.404 0.037-3.787 0.341-7.335 2.385-9.582 5.525-1.251 1.746-2.051 3.727-2.354 5.825-0.107 0.732-0.12 0.949-0.12 1.942s0.013 1.209 0.12 1.942c0.725 5.007 4.288 9.213 9.121 10.772 0.865 0.279 1.778 0.469 2.815 0.584 0.404 0.044 2.151 0.044 2.555 0 1.791-0.198 3.308-0.641 4.804-1.405 0.229-0.117 0.274-0.149 0.242-0.175-0.021-0.016-0.998-1.327-2.171-2.911l-2.132-2.88-2.672-3.954c-1.47-2.174-2.68-3.951-2.69-3.951-0.010-0.003-0.021 1.754-0.026 3.899-0.008 3.756-0.010 3.907-0.057 3.995-0.068 0.128-0.12 0.18-0.229 0.237-0.083 0.042-0.156 0.050-0.55 0.050h-0.451l-0.12-0.076c-0.078-0.050-0.136-0.115-0.175-0.19l-0.055-0.117 0.005-5.226 0.008-5.228 0.081-0.102c0.042-0.055 0.13-0.125 0.193-0.159 0.107-0.052 0.149-0.057 0.6-0.057 0.532 0 0.62 0.021 0.759 0.172 0.039 0.042 1.486 2.221 3.217 4.845s4.098 6.208 5.26 7.968l2.111 3.198 0.107-0.070c0.946-0.615 1.947-1.491 2.74-2.403 1.687-1.937 2.774-4.298 3.139-6.816 0.107-0.732 0.12-0.949 0.12-1.942s-0.013-1.209-0.12-1.942c-0.725-5.007-4.288-9.213-9.121-10.772-0.852-0.276-1.759-0.467-2.776-0.581-0.25-0.026-1.973-0.055-2.19-0.034zM20.585 10.738c0.125 0.063 0.227 0.182 0.263 0.308 0.021 0.068 0.026 1.517 0.021 4.783l-0.008 4.686-0.826-1.267-0.829-1.267v-3.406c0-2.202 0.010-3.44 0.026-3.5 0.042-0.146 0.133-0.261 0.258-0.328 0.107-0.055 0.146-0.060 0.555-0.060 0.386 0 0.454 0.005 0.54 0.052z"></path>
</symbol>
<symbol id="icon-react" viewBox="0 0 32 32">
<path fill='#61DAFB' d="M18.387 15.977c0 1.331-1.067 2.409-2.383 2.409s-2.383-1.079-2.383-2.409c0-1.331 1.067-2.409 2.383-2.409s2.383 1.079 2.383 2.409z"/>
<path fill='#61DAFB' d="M16.003 21.495c-0.199 0.005-0.433 0.008-0.668 0.008-2.78 0-5.46-0.425-7.983-1.214l0.191 0.051c-1.336-0.436-2.494-1.079-3.501-1.903l0.021 0.016c-0.78-0.571-1.305-1.455-1.394-2.467l-0.001-0.013c0-1.594 1.727-3.153 4.629-4.171 2.484-0.827 5.343-1.304 8.311-1.304 0.137 0 0.275 0.001 0.412 0.003h-0.021c0.115-0.002 0.249-0.003 0.385-0.003 2.932 0 5.755 0.469 8.401 1.337l-0.193-0.055c1.29 0.424 2.411 1.036 3.395 1.814l-0.024-0.018c0.766 0.546 1.283 1.404 1.371 2.386l0.001 0.013c0 1.656-1.932 3.331-5.046 4.373-2.337 0.729-5.023 1.149-7.807 1.149-0.168 0-0.335-0.002-0.502-0.005h0.025v0.002zM16.003 11.657c-0.105-0.002-0.229-0.002-0.354-0.002-2.849 0-5.593 0.452-8.167 1.289l0.189-0.053c-2.668 0.941-3.864 2.228-3.864 3.086 0 0.893 1.286 2.3 4.107 3.273 2.224 0.697 4.78 1.099 7.429 1.099 0.232 0 0.464-0.003 0.694-0.009l-0.034 0.001c0.144 0.003 0.315 0.005 0.485 0.005 2.654 0 5.215-0.4 7.629-1.143l-0.185 0.049c2.927-0.984 4.272-2.391 4.272-3.279-0.101-0.638-0.457-1.176-0.955-1.515l-0.008-0.005c-0.856-0.674-1.855-1.217-2.937-1.574l-0.069-0.020c-2.342-0.766-5.036-1.208-7.832-1.208-0.14 0-0.28 0.001-0.419 0.003h0.021l-0.001 0.002z"/>
<path fill='#61DAFB' d="M10.596 27.986c-0.016 0-0.035 0.001-0.052 0.001-0.448 0-0.868-0.119-1.231-0.327l0.013 0.007c-1.363-0.8-1.837-3.091-1.266-6.14 0.689-3.127 1.807-5.893 3.307-8.398l-0.068 0.124c1.482-2.654 3.273-4.925 5.364-6.871l0.020-0.018c0.913-0.844 1.981-1.537 3.151-2.028l0.072-0.027c0.402-0.196 0.875-0.31 1.375-0.31 0.495 0 0.965 0.113 1.384 0.314l-0.020-0.008c1.419 0.826 1.89 3.359 1.224 6.605-0.712 2.966-1.798 5.579-3.226 7.957l0.069-0.123c-1.436 2.629-3.173 4.881-5.207 6.818l-0.014 0.013c-0.947 0.877-2.060 1.59-3.284 2.082l-0.073 0.026c-0.455 0.181-0.981 0.292-1.532 0.305h-0.006l-0.001-0.002zM11.788 13.542l0.493 0.288c-1.366 2.279-2.437 4.925-3.071 7.738l-0.034 0.18c-0.527 2.808-0.019 4.497 0.712 4.925 0.189 0.102 0.412 0.161 0.65 0.161 0.020 0 0.041 0 0.060-0.001h-0.003c0.944 0 2.431-0.605 4.149-2.121 1.954-1.867 3.613-4.022 4.917-6.403l0.067-0.135c1.303-2.155 2.345-4.652 2.991-7.305l0.038-0.182c0.622-3.057 0.085-4.929-0.678-5.377-0.235-0.094-0.508-0.148-0.793-0.148-0.36 0-0.7 0.087-1.001 0.24l0.013-0.006c-1.106 0.465-2.055 1.086-2.875 1.846l0.007-0.006c-2.018 1.881-3.73 4.056-5.079 6.467l-0.068 0.132-0.495-0.292z"/>
<path fill='#61DAFB' d="M21.411 28c-1.291 0-2.927-0.787-4.638-2.275-2.151-1.983-3.972-4.281-5.403-6.833l-0.071-0.137c-1.414-2.349-2.522-5.074-3.179-7.973l-0.036-0.185c-0.16-0.709-0.252-1.522-0.252-2.357 0-0.527 0.037-1.044 0.107-1.551l-0.007 0.058c0.084-0.998 0.601-1.858 1.357-2.399l0.010-0.007c1.414-0.83 3.822 0.024 6.271 2.228 1.999 1.914 3.706 4.112 5.061 6.539l0.071 0.138c1.412 2.296 2.528 4.96 3.206 7.796l0.038 0.186c0.161 0.709 0.254 1.524 0.254 2.359 0 0.577-0.043 1.143-0.129 1.696l0.008-0.062c-0.102 1.022-0.637 1.901-1.413 2.455l-0.011 0.007c-0.344 0.199-0.755 0.316-1.193 0.316-0.018 0-0.036 0-0.053-0.001l0.003 0.001zM12.286 18.179c1.442 2.57 3.181 4.77 5.212 6.655l0.020 0.018c2.142 1.863 3.841 2.266 4.576 1.834 0.764-0.446 1.324-2.276 0.746-5.232-0.694-2.889-1.767-5.433-3.183-7.739l0.064 0.112c-1.364-2.456-2.993-4.561-4.893-6.383l-0.012-0.011c-2.308-2.074-4.178-2.539-4.942-2.094-0.468 0.385-0.775 0.952-0.816 1.593v0.007c-0.054 0.39-0.085 0.84-0.085 1.298 0 0.757 0.085 1.493 0.245 2.201l-0.013-0.066c0.665 2.951 1.727 5.558 3.146 7.922l-0.065-0.117-0.001 0.003z"/>
</symbol>
<symbol id="icon-redux" viewBox="0 0 32 32">
<path fill='#8459E4' d="M12.605 7.35c0.949-1.185 2.736-1.771 3.954-1.801 3.416-0.065 4.84 4.188 4.95 5.878l1.581 0.474c-0.364-5.182-3.589-7.901-6.675-7.901-2.893-0.001-5.565 2.101-6.642 5.182-1.47 4.108-0.506 8.058 1.297 11.219-0.157 0.206-0.252 0.568-0.221 0.915 0.031 0.949 0.837 1.739 1.803 1.739h0.063c0.239-0.007 0.474-0.061 0.692-0.159s0.413-0.238 0.575-0.412c0.162-0.174 0.287-0.378 0.369-0.6s0.117-0.458 0.104-0.694c0-0.949-0.822-1.736-1.787-1.736h-0.064c-0.063 0-0.157 0-0.238 0.030-1.312-2.212-1.866-4.583-1.659-7.141 0.126-1.928 0.759-3.603 1.897-4.993z"/>
<path fill='#8459E4' d="M4.983 25.285c1.060 1.58 3.227 2.59 5.599 2.59 0.632 0 1.297-0.046 1.945-0.205 4.113-0.79 7.229-3.255 9.016-6.888l0.015-0.032c0.917-0.079 1.629-0.886 1.582-1.85-0.049-0.964-0.839-1.737-1.803-1.737h-0.064c-0.995 0.032-1.771 0.869-1.74 1.866 0.032 0.505 0.239 0.916 0.521 1.216-1.106 2.15-2.767 3.729-5.282 5.057-1.692 0.884-3.479 1.217-5.219 0.98-1.455-0.205-2.593-0.855-3.289-1.896-1.043-1.581-1.138-3.286-0.269-4.992 0.634-1.232 1.582-2.133 2.216-2.577-0.158-0.41-0.348-1.105-0.443-1.626-4.684 3.349-4.208 7.93-2.785 10.095z"></path>
<path fill='#8459E4' d="M28.769 24.588c0.948-1.896 0.87-5.087-1.551-7.821l-0.015 0.031c-2.45-2.876-6.057-4.456-10.171-4.456h-0.538c-0.267-0.584-0.883-0.949-1.58-0.949h-0.048c-0.995 0-1.771 0.855-1.739 1.849 0.032 0.947 0.838 1.738 1.803 1.738h0.078c0.343-0.014 0.675-0.127 0.955-0.323s0.498-0.468 0.626-0.783h0.586c2.437 0 4.745 0.711 6.85 2.101 1.612 1.059 2.768 2.449 3.416 4.108 0.568 1.359 0.537 2.686-0.047 3.793-0.901 1.737-2.421 2.655-4.428 2.655-1.266 0-2.499-0.395-3.132-0.679-0.379 0.314-1.012 0.836-1.472 1.153 1.391 0.63 2.799 0.995 4.159 0.995 3.085 0 5.376-1.736 6.247-3.412z"></path>
</symbol>
<symbol id="icon-scss" viewBox="0 0 32 32">
<path fill='#CB6699' d="M29.322 19.877c-0.087-0.721-0.481-1.28-1.083-1.719 0.149 0.108 0.275 0.2-0.003-0.002-0.374-0.272-0.176-0.128-0.002-0.002-1.484-1.077-3.421-0.837-5.038-0.239-0.648-1.076-0.676-1.898-0.303-3.072 0.048-0.148 0.015-0.231-0.137-0.297-0.369-0.161-0.901-0.076-1.272 0.025-0.128 0.034-0.222 0.101-0.25 0.232-0.268 1.286-1.094 2.463-1.814 3.547-0.507-0.989-0.467-1.755-0.126-2.785 0.042-0.125 0.023-0.192-0.101-0.259-0.378-0.199-0.958-0.101-1.344 0.015-0.443 0.132-1.109 2.365-1.321 2.808-0.444 0.925-0.838 2.369-1.593 3.102-0.641-0.838 1.173-2.732 0.567-3.492-0.205-0.257-0.576-0.251-0.812-0.033 0.057-0.403 0.086-0.669-0.017-1.011-0.108-0.36-0.383-0.567-0.786-0.556-0.937 0.028-1.763 0.733-2.325 1.4-0.535 0.642-1.947 1.041-2.706 1.428-1.304-1.156-4.126-2.384-4.2-4.353-0.080-2.219 2.517-3.725 4.25-4.626 2.254-1.172 5.727-2.631 8.288-1.349 0.68 0.34 0.953 1.070 0.766 1.768-0.488 1.822-2.458 3.038-4.172 3.596-0.843 0.274-1.769 0.479-2.661 0.426-1.196-0.071-2.127-0.807-2.254-0.853-0.107-0.021-0.098 0.12-0.070 0.194 1.24 3.311 7.522 0.885 9.164-0.815 0.791-0.818 1.272-1.61 1.477-2.858 0.24-1.463-0.814-2.378-1.615-2.755-4.058-1.913-9.669 0.592-12.737 3.146-1.332 1.108-2.998 2.869-2.233 4.717 0.83 2.005 3.372 3.033 5.026 4.259-1.339 0.677-3.014 1.378-3.881 2.648-0.496 0.728-0.672 1.504-0.303 2.332 0.655 1.462 3.036 0.828 4.040 0.184 0.92-0.59 1.54-1.383 1.807-2.398 0.232-0.881 0.184-1.796-0.201-2.626l1.489-0.767c-0.401 1.224-0.578 2.758 0.254 3.863 0.333 0.442 1.199 0.46 1.553 0.017 0.459-0.58 0.764-1.307 1.068-1.973-0.035 0.497-0.097 1.060 0.072 1.494 0.193 0.497 0.632 0.599 1.083 0.283 1.381-0.965 2.26-3.641 2.941-5.2 0.185 0.68 0.389 1.302 0.727 1.929 0.083 0.154 0.073 0.253-0.041 0.382-0.505 0.566-1.71 1.51-1.827 2.275-0.027 0.179 0.089 0.35 0.296 0.391 0.811 0.165 1.71-0.134 2.369-0.587 0.687-0.473 0.909-1.118 0.742-1.883-0.238-1.101 0.573-2.332 1.344-3.236 0.142 0.685 0.355 1.343 0.737 1.941-0.681 0.609-1.697 1.472-1.551 2.489 0.051 0.364 0.372 0.599 0.756 0.516 0.822-0.176 1.532-0.536 2.051-1.174 0.47-0.576 0.302-1.204 0.097-1.837 1.243-0.361 2.501-0.434 3.741-0.001 0.599 0.207 1.081 0.557 1.367 1.104 0.35 0.671 0.153 1.288-0.523 1.729-0.171 0.112-0.29 0.203-0.232 0.252s0.255 0.112 0.692-0.167c0.437-0.279 0.704-0.657 0.772-1.152 0.014-0.137 0.013-0.275-0.001-0.411zM8.549 21.216c-0.071 0.884-0.502 1.601-1.207 2.18-0.397 0.327-0.891 0.593-1.381 0.641s-0.872-0.077-0.905-0.596c-0.092-1.458 2.131-2.886 3.366-3.316 0.105 0.364 0.157 0.725 0.127 1.092l0.001-0.002zM13.919 17.374c-0.203 1.183-0.772 3.306-1.683 4.154-0.123 0.114-0.24 0.107-0.303-0.041-0.539-1.276 0.191-3.907 1.723-4.313 0.18-0.047 0.292 0.031 0.263 0.2zM17.581 21.71c0.439-0.475 0.877-0.95 1.316-1.428 0.054 0.531-0.915 1.589-1.316 1.428zM21.785 20.772c-0.122 0.067-0.397 0.133-0.408 0.044-0.077-0.641 0.615-1.319 1.045-1.637 0.232 0.602-0.043 1.264-0.637 1.593z"></path>
</symbol>
<symbol id="icon-ts" viewBox="0 0 32 32">
<path fill='#2196F3' d="M4 16v10.667c0 0.736 0.597 1.333 1.333 1.333h21.333c0.736 0 1.333-0.597 1.333-1.333v-21.333c0-0.736-0.597-1.333-1.333-1.333h-21.333c-0.736 0-1.333 0.597-1.333 1.333v10.667zM18.563 23.626c0.108-0.061 0.511-0.294 0.892-0.515l0.69-0.4 0.145 0.214c0.202 0.308 0.643 0.731 0.91 0.872 0.766 0.404 1.817 0.347 2.335-0.118 0.193-0.163 0.314-0.405 0.314-0.675 0-0.016-0-0.031-0.001-0.047v0.002c0-0.278-0.035-0.4-0.18-0.61-0.186-0.266-0.567-0.49-1.649-0.96-1.238-0.533-1.771-0.864-2.259-1.39-0.294-0.334-0.521-0.736-0.653-1.178l-0.006-0.022c-0.091-0.339-0.114-1.189-0.042-1.531 0.255-1.197 1.158-2.030 2.461-2.278 0.423-0.080 1.406-0.050 1.821 0.053 0.61 0.152 1.074 0.424 1.501 0.866 0.221 0.236 0.549 0.666 0.575 0.77 0.008 0.030-1.036 0.73-1.668 1.123-0.023 0.015-0.115-0.084-0.217-0.236-0.31-0.45-0.633-0.644-1.128-0.678-0.728-0.050-1.196 0.331-1.192 0.967 0 0.011-0.001 0.024-0.001 0.037 0 0.151 0.038 0.293 0.105 0.417l-0.002-0.005c0.16 0.331 0.458 0.53 1.39 0.933 1.719 0.74 2.454 1.227 2.911 1.92 0.51 0.773 0.625 2.008 0.278 2.926-0.38 0.998-1.325 1.676-2.655 1.9-0.411 0.073-1.386 0.062-1.828-0.018-0.964-0.172-1.878-0.648-2.442-1.273-0.221-0.243-0.652-0.88-0.625-0.925 0.011-0.016 0.11-0.077 0.22-0.141zM9.258 16.065c0-0.534 0.011-0.98 0.026-0.99 0.012-0.016 1.913-0.024 4.217-0.020l4.195 0.012 0.011 0.979 0.008 0.983h-3.125v8.876h-2.21v-8.876h-3.122v-0.964z"></path>
</symbol>
<symbol id="icon-visit" viewBox="0 0 32 32">
<path stroke-width="2.6667" stroke-miterlimit="4" stroke-linecap="round" stroke-linejoin="round" d="M18 6h-11.333v20.667h17.333v-12.667M16 15.333l10.667-11.333M26.667 4v4.667M26.667 4h-4.667"></path>
</symbol>
<symbol id="icon-wordpress" viewBox="0 0 32 32">
<path d="M5.706 16c0 4.075 2.368 7.596 5.802 9.265l-4.911-13.455c-0.589 1.318-0.892 2.746-0.891 4.19zM22.95 15.48c0-1.272-0.457-2.153-0.849-2.839-0.522-0.848-1.011-1.566-1.011-2.414 0-0.946 0.717-1.827 1.728-1.827 0.046 0 0.089 0.006 0.134 0.008-1.832-1.678-4.272-2.702-6.952-2.702-3.596 0-6.761 1.845-8.601 4.64 0.242 0.007 0.469 0.012 0.662 0.012 1.077 0 2.744-0.131 2.744-0.131 0.555-0.033 0.62 0.782 0.066 0.848 0 0-0.558 0.066-1.178 0.098l3.749 11.151 2.253-6.757-1.604-4.394c-0.554-0.033-1.080-0.098-1.080-0.098-0.555-0.033-0.49-0.881 0.065-0.848 0 0 1.7 0.131 2.712 0.131 1.077 0 2.744-0.131 2.744-0.131 0.555-0.033 0.621 0.782 0.066 0.848 0 0-0.559 0.066-1.178 0.098l3.72 11.066 1.027-3.431c0.445-1.424 0.784-2.447 0.784-3.328z"/>
<path d="M16.181 16.9l-3.089 8.975c0.944 0.278 1.924 0.42 2.908 0.42 1.199 0 2.348-0.207 3.419-0.584-0.029-0.045-0.053-0.092-0.073-0.142l-3.165-8.669zM25.033 11.061c0.044 0.328 0.069 0.68 0.069 1.059 0 1.045-0.195 2.219-0.783 3.687l-3.145 9.092c3.061-1.785 5.119-5.1 5.119-8.898 0.003-1.726-0.431-3.425-1.261-4.939z"/>
<path d="M16 4c-6.617 0-12 5.383-12 12s5.383 12.001 12 12.001c6.617 0 12.001-5.383 12.001-12.001s-5.384-12-12.001-12zM16 27.45c-6.313 0-11.45-5.137-11.45-11.45s5.136-11.449 11.45-11.449c6.313 0 11.449 5.136 11.449 11.449s-5.137 11.45-11.449 11.45z"/>
</symbol>
</defs>
</svg>
