<svg width="24" height="24" viewBox="0 0 24 24" fill="none" xmlns="http://www.w3.org/2000/svg">
<path d="M14.3101 17.2867L13.0189 18.5875V12.9939C13.0189 12.7285 12.9134 12.474 12.7257 12.2863C12.538 12.0987 12.2834 11.9932 12.0179 11.9932C11.7525 11.9932 11.4979 12.0987 11.3101 12.2863C11.1224 12.474 11.017 12.7285 11.017 12.9939V18.5875L9.72575 17.2867C9.63243 17.1934 9.52163 17.1194 9.3997 17.0689C9.27776 17.0184 9.14707 16.9924 9.01508 16.9924C8.8831 16.9924 8.75241 17.0184 8.63047 17.0689C8.50853 17.1194 8.39774 17.1934 8.30441 17.2867C8.21108 17.38 8.13705 17.4908 8.08654 17.6127C8.03603 17.7346 8.01004 17.8652 8.01004 17.9972C8.01004 18.1291 8.03603 18.2598 8.08654 18.3817C8.13705 18.5036 8.21108 18.6143 8.30441 18.7076L11.3073 21.7096C11.4024 21.8007 11.5147 21.8721 11.6376 21.9197C11.7574 21.9727 11.8869 22 12.0179 22C12.1489 22 12.2785 21.9727 12.3983 21.9197C12.5212 21.8721 12.6334 21.8007 12.7286 21.7096L15.7314 18.7076C15.9199 18.5192 16.0258 18.2636 16.0258 17.9972C16.0258 17.7307 15.9199 17.4751 15.7314 17.2867C15.543 17.0983 15.2873 16.9924 15.0208 16.9924C14.7542 16.9924 14.4986 17.0983 14.3101 17.2867ZM18.444 6.20946C17.8324 4.80455 16.7769 3.63886 15.4392 2.89102C14.1016 2.14318 12.5555 1.85445 11.038 2.06907C9.52044 2.28368 8.11515 2.98981 7.03746 4.07924C5.95977 5.16868 5.26912 6.58132 5.07135 8.10069C4.11703 8.32916 3.27987 8.90005 2.71885 9.70493C2.15784 10.5098 1.91204 11.4926 2.02813 12.4668C2.14422 13.4409 2.61411 14.3385 3.34858 14.989C4.08305 15.6396 5.03094 15.9979 6.01224 15.9958C6.2777 15.9958 6.5323 15.8904 6.72001 15.7028C6.90773 15.5151 7.01319 15.2606 7.01319 14.9952C7.01319 14.7298 6.90773 14.4753 6.72001 14.2876C6.5323 14.1 6.2777 13.9945 6.01224 13.9945C5.4813 13.9945 4.97211 13.7837 4.59668 13.4084C4.22125 13.0331 4.01034 12.524 4.01034 11.9932C4.01034 11.4625 4.22125 10.9534 4.59668 10.5781C4.97211 10.2028 5.4813 9.99193 6.01224 9.99193C6.2777 9.99193 6.5323 9.8865 6.72001 9.69884C6.90773 9.51119 7.01319 9.25667 7.01319 8.99128C7.01574 7.80778 7.43787 6.66351 8.20458 5.76175C8.97129 4.85999 10.0329 4.25914 11.2009 4.06593C12.3689 3.87273 13.5675 4.09969 14.5839 4.70649C15.6003 5.31328 16.3687 6.26063 16.7524 7.38022C16.8096 7.55218 16.9125 7.70537 17.05 7.82345C17.1875 7.94152 17.3545 8.02006 17.5332 8.05066C18.1998 8.17661 18.8042 8.52457 19.2478 9.03784C19.6914 9.55111 19.948 10.1994 19.9759 10.8771C20.0037 11.5549 19.8012 12.2221 19.4012 12.77C19.0013 13.3179 18.4275 13.7143 17.7734 13.8945C17.6459 13.9273 17.5261 13.985 17.4209 14.0641C17.3157 14.1432 17.227 14.2423 17.1601 14.3557C17.0932 14.469 17.0493 14.5944 17.0308 14.7248C17.0124 14.8551 17.0198 14.9878 17.0527 15.1153C17.0856 15.2427 17.1432 15.3625 17.2224 15.4677C17.3015 15.5729 17.4006 15.6614 17.514 15.7283C17.6274 15.7952 17.7529 15.8392 17.8832 15.8576C18.0136 15.876 18.1464 15.8686 18.2739 15.8357C19.3272 15.5575 20.261 14.9432 20.9334 14.0861C21.6057 13.229 21.98 12.176 21.9992 11.0869C22.0185 9.99786 21.6817 8.93228 21.04 8.05198C20.3984 7.17169 19.4869 6.52476 18.444 6.20946Z" fill="black"/>
</svg>
