<svg width="24" height="24" viewBox="0 0 24 24" fill="none" xmlns="http://www.w3.org/2000/svg">
<path d="M4.29712 2C3.70982 2 3.24897 2.50373 3.30107 3.08871L4.74371 19.2863C4.78062 19.7007 5.07033 20.049 5.47114 20.1608L11.7207 21.9036C11.8965 21.9527 12.0824 21.9526 12.2582 21.9036L18.5279 20.1534C18.9285 20.0416 19.2181 19.6934 19.2551 19.2791L20.6988 3.08882C20.751 2.5038 20.2901 2 19.7028 2H4.29712ZM17.4701 6.11832L16.937 12.1066L16.9389 12.1389L16.9364 12.213L16.5576 16.3991L16.5158 16.7711L12 18.02L11.9963 18.0238L7.48851 16.7673L7.18309 13.3058H9.39372L9.55048 15.0662L12.0006 15.7298L12 15.731L14.4588 15.0574L14.7188 12.1911H9.57849L9.53437 11.7066L9.43355 10.5714L9.38137 9.96184H14.9142L15.1156 7.73253H6.68802L6.64374 7.24857L6.54359 6.11279L6.49073 5.50324H17.5229L17.4701 6.11832Z" fill="black"/>
</svg>
