<svg width="24" height="24" viewBox="0 0 24 24" fill="none" xmlns="http://www.w3.org/2000/svg">
<path fill-rule="evenodd" clip-rule="evenodd" d="M4 3C3.4475 3 3 3.4495 3 4V20C3 20.5525 3.44625 21 4 21H9C9.5 21 9.76975 20.29 9.76975 20.053C9.76975 19.839 9.7615 19.1322 9.7575 18.3827C7.25375 18.9252 6.72525 17.3243 6.72525 17.3243C6.316 16.2873 5.726 16.0115 5.726 16.0115C4.9095 15.4547 5.7875 15.466 5.7875 15.466C6.69125 15.5292 7.16725 16.3905 7.16725 16.3905C7.96975 17.7622 9.27275 17.3655 9.78625 17.1365C9.867 16.5565 10.1002 16.1607 10.3577 15.9365C8.35875 15.7097 6.25725 14.9405 6.25725 11.503C6.25725 10.5235 6.60875 9.723 7.18475 9.09475C7.091 8.869 6.783 7.9565 7.27175 6.72075C7.27175 6.72075 8.0275 6.4795 9.74725 7.64025C10.4652 7.4415 11.2353 7.34175 12 7.3385C12.765 7.34175 13.5355 7.4415 14.2548 7.64025C15.9725 6.4795 16.7273 6.72075 16.7273 6.72075C17.2172 7.9565 16.909 8.869 16.8155 9.09475C17.3925 9.72325 17.7417 10.5235 17.7417 11.503C17.7417 14.9487 15.6362 15.7075 13.6322 15.9295C13.955 16.208 14.2428 16.754 14.2428 17.591C14.2428 18.7915 14.2323 19.7575 14.2323 20.053C14.2323 20.2917 14.2323 21 15 21H19.9995C20.2647 20.9998 20.519 20.8944 20.7066 20.7069C20.8941 20.5194 20.9997 20.2652 21 20V4C21 3.4475 20.5505 3 20 3H4ZM6.40875 15.8813C6.38875 15.9258 6.31875 15.939 6.2545 15.9085C6.18925 15.8792 6.1525 15.8185 6.17375 15.7738C6.19325 15.7278 6.26375 15.715 6.32875 15.7458C6.39425 15.775 6.43125 15.8365 6.40875 15.8813ZM6.77325 16.2863C6.7305 16.3263 6.6465 16.3077 6.5895 16.245C6.53075 16.1825 6.5195 16.0988 6.56325 16.0585C6.6075 16.0188 6.68875 16.0375 6.74775 16.1C6.80675 16.1632 6.81825 16.246 6.77325 16.2863ZM7.12825 16.8032C7.07325 16.8412 6.983 16.8057 6.92725 16.7257C6.872 16.6458 6.872 16.5503 6.92825 16.512C6.98425 16.4738 7.07325 16.508 7.1295 16.5872C7.1845 16.6685 7.1845 16.764 7.12825 16.8032ZM7.61425 17.3022C7.565 17.3565 7.46 17.342 7.383 17.268C7.30425 17.1955 7.2825 17.093 7.332 17.0387C7.382 16.9845 7.4875 16.9998 7.565 17.073C7.643 17.1455 7.667 17.2487 7.61425 17.3022ZM8.285 17.5922C8.26325 17.6622 8.162 17.6945 8.06 17.6647C7.95825 17.6337 7.89175 17.5515 7.9125 17.4805C7.9335 17.4097 8.035 17.3765 8.13775 17.4085C8.2395 17.439 8.306 17.5208 8.285 17.5922ZM9.0215 17.646C9.024 17.72 8.93775 17.7812 8.83075 17.7827C8.72325 17.785 8.636 17.7252 8.63475 17.6522C8.63475 17.5775 8.71925 17.5168 8.827 17.515C8.934 17.513 9.0215 17.5725 9.0215 17.646ZM9.707 17.5297C9.71975 17.6017 9.6455 17.676 9.53925 17.6958C9.43475 17.7148 9.338 17.6702 9.32475 17.5985C9.31175 17.5245 9.38725 17.4505 9.49175 17.4312C9.59825 17.4127 9.69375 17.4563 9.707 17.5297Z" fill="black"/>
</svg>
