<svg width="24" height="24" viewBox="0 0 24 24" fill="none" xmlns="http://www.w3.org/2000/svg">
<path d="M12 2C9.62545 2.0001 7.32845 2.86649 5.51997 4.44414C3.71148 6.02179 2.50952 8.20776 2.12916 10.6109C1.74879 13.014 2.21484 15.4775 3.44392 17.5606C4.67299 19.6437 6.58488 21.2104 8.8375 21.9804C9.3375 22.0701 9.52499 21.7625 9.52499 21.4934C9.52499 21.2499 9.51248 20.4424 9.51248 19.5838C6.99999 20.0579 6.35 18.9558 6.15 18.3791C5.92808 17.8182 5.57628 17.3211 5.12501 16.9308C4.77501 16.7386 4.27501 16.2644 5.1125 16.2516C5.43228 16.2872 5.73899 16.4013 6.00663 16.5842C6.27427 16.7671 6.49496 17.0135 6.64999 17.3025C6.78676 17.5544 6.97067 17.7762 7.19118 17.9551C7.41169 18.134 7.66446 18.2665 7.93502 18.3451C8.20557 18.4237 8.48859 18.4468 8.76786 18.413C9.04712 18.3792 9.31715 18.2893 9.56245 18.1483C9.60574 17.6271 9.83231 17.1398 10.2 16.7771C7.97499 16.5207 5.65 15.6364 5.65 11.7147C5.63595 10.6957 6.00268 9.7098 6.67499 8.9592C6.36928 8.07357 6.40505 7.10166 6.77499 6.24218C6.77499 6.24218 7.61246 5.97303 9.52497 7.2931C11.1613 6.83169 12.8887 6.83169 14.5249 7.2931C16.4374 5.96022 17.2749 6.24218 17.2749 6.24218C17.6449 7.10165 17.6807 8.07358 17.3749 8.9592C18.0493 9.70851 18.4163 10.6953 18.3999 11.7147C18.3999 15.6492 16.0624 16.5207 13.8374 16.7771C14.0761 17.0251 14.2599 17.3228 14.3764 17.6501C14.4928 17.9774 14.5392 18.3265 14.5124 18.6738C14.5124 20.0452 14.4999 21.1473 14.4999 21.4934C14.4999 21.7625 14.6874 22.0829 15.1874 21.9804C17.4361 21.2041 19.3425 19.6338 20.5663 17.5496C21.7901 15.4655 22.2518 13.0033 21.8688 10.6024C21.4858 8.20163 20.2831 6.0185 18.4754 4.44277C16.6677 2.86704 14.3726 2.00127 12 2Z" fill="black"/>
</svg>
