<svg width="24" height="24" viewBox="0 0 24 24" fill="none" xmlns="http://www.w3.org/2000/svg">
<path d="M6.40522 6.9135C6.22269 6.80808 6.02062 6.73958 5.81085 6.71203C5.60109 6.68448 5.38784 6.69842 5.18362 6.75304C4.9794 6.80767 4.78831 6.90187 4.62155 7.03014C4.45479 7.1584 4.31572 7.31814 4.21249 7.5C4.13665 7.63305 4.08023 7.77596 4.04487 7.9245C3.83764 8.78775 4.36792 9.6555 5.22886 9.8625L5.22809 14.1367C4.92864 14.2101 4.65715 14.3671 4.44639 14.589C4.15259 14.8992 3.99363 15.3103 4.00345 15.7343C4.01328 16.1583 4.1911 16.5618 4.49896 16.8585C4.65008 17.0038 4.82918 17.1179 5.02574 17.194C5.22229 17.2702 5.43233 17.3069 5.64351 17.302C5.85468 17.2971 6.06274 17.2507 6.25543 17.1656C6.44813 17.0804 6.62158 16.9581 6.76559 16.806L10.4631 18.9412C10.4191 19.0896 10.3968 19.2434 10.3968 19.398C10.3975 20.2837 11.1152 21.0007 11.9998 21C12.1705 21 12.3388 20.9722 12.5019 20.919C13.343 20.6407 13.8002 19.7325 13.5213 18.8895L17.1952 16.7655C17.3628 16.9545 17.5741 17.1012 17.8113 17.193C18.0485 17.2849 18.3047 17.3193 18.5582 17.2934C18.8117 17.2674 19.0552 17.1819 19.2682 17.0439C19.4811 16.906 19.6573 16.7197 19.7818 16.5007C19.8603 16.365 19.9197 16.218 19.9555 16.065C20.1604 15.2055 19.6302 14.343 18.7723 14.1382V9.864C18.9191 9.82829 19.06 9.77196 19.1905 9.69675C19.5622 9.4804 19.8328 9.12918 19.9442 8.71856C20.0556 8.30794 19.9989 7.87069 19.7863 7.50075C19.7099 7.36884 19.6148 7.24837 19.5037 7.143C19.352 6.99763 19.1723 6.88361 18.9751 6.80765C18.778 6.7317 18.5674 6.69534 18.3557 6.70072C18.1441 6.7061 17.9357 6.75311 17.7428 6.83899C17.5499 6.92486 17.3764 7.04787 17.2325 7.20075L13.5358 5.06325C13.58 4.914 13.6036 4.75725 13.6028 4.6005C13.6021 3.7155 12.8844 2.99925 11.9998 3C11.8451 3 11.6905 3.02175 11.5427 3.066C10.6962 3.31725 10.2116 4.209 10.4631 5.05875L6.76407 7.19625C6.6594 7.08496 6.53845 6.98967 6.40522 6.9135ZM13.1853 18.3157C13.0363 18.1512 12.8536 18.0196 12.6494 17.9294C12.4451 17.8391 12.2237 17.7924 11.9998 17.7922C11.5457 17.7922 11.1366 17.979 10.8463 18.282L7.14654 16.143L7.16254 16.0807H16.8371C16.8454 16.1167 16.8546 16.152 16.8653 16.1872L13.1853 18.3157ZM13.1503 5.721L16.8553 7.8645L16.8409 7.9185C16.6283 8.778 17.1502 9.64725 18.0081 9.8595V14.1397C17.9883 14.145 17.9662 14.1503 17.9464 14.157L13.1068 5.7645C13.1223 5.75095 13.1368 5.73642 13.1503 5.721ZM11.5541 6.1455C11.8451 6.2295 12.1545 6.2295 12.447 6.1455L17.2873 14.535C17.0648 14.7489 16.9081 15.0203 16.8355 15.318H7.16483C7.09205 15.0215 6.93632 14.751 6.71531 14.5373L11.5541 6.1455ZM7.14197 7.85925L10.8471 5.72025L10.892 5.76525L6.05399 14.157L5.99075 14.1397V9.85875L6.04789 9.843C6.8974 9.59775 7.3873 8.7105 7.14197 7.85925Z" fill="black"/>
</svg>
