<svg width="24" height="24" viewBox="0 0 24 24" fill="none" xmlns="http://www.w3.org/2000/svg">
<path d="M4.317 2C3.72966 2 3.26879 2.50378 3.32095 3.0888L4.75972 19.2266C4.7967 19.6415 5.08695 19.99 5.48827 20.1014L11.722 21.8319C11.8969 21.8805 12.0817 21.8805 12.2566 21.832L18.5098 20.0985C18.9112 19.9872 19.2016 19.6387 19.2387 19.2237L20.6789 3.08891C20.7311 2.50385 20.2703 2 19.6829 2H4.317ZM17.3001 7.85964H8.89149L9.09232 10.1098H17.1001L16.4971 16.856L12 18.1023L11.9899 18.1055L7.4888 16.856L7.18092 13.4058H9.38671L9.54307 15.1583L11.9903 15.8191L11.9923 15.8186L14.4431 15.1569L14.6982 12.3071H7.08275L6.49009 5.6623H17.4968L17.3001 7.85964Z" fill="black"/>
</svg>
