<svg width="24" height="24" viewBox="0 0 24 24" fill="none" xmlns="http://www.w3.org/2000/svg">
<path d="M3 20C3 20.5523 3.44772 21 4 21H20C20.5523 21 21 20.5523 21 20V4C21 3.44772 20.5523 3 20 3H4C3.44772 3 3 3.44772 3 4V20ZM17.838 16.9718C17.6468 16.251 16.1497 16.083 15.126 15.318C14.091 14.6205 13.8443 12.933 14.6993 11.9648C14.9918 11.6048 15.4748 11.3348 15.9818 11.211L16.5105 11.1442C17.5343 11.121 18.1635 11.391 18.636 11.9198C18.7725 12.054 18.873 12.1898 19.0755 12.5048C18.5347 12.8415 18.5348 12.8415 17.7593 13.3485C17.5898 12.9885 17.3197 12.7635 17.0273 12.6735C16.5772 12.5385 16.0035 12.684 15.891 13.1685C15.8468 13.3148 15.8572 13.4497 15.9255 13.6973C16.1077 14.1135 16.7212 14.2935 17.2732 14.5523C18.8595 15.1958 19.3943 15.8857 19.5255 16.707L19.491 16.6568C19.6155 17.3655 19.4573 17.8267 19.4355 17.8942C18.8497 19.8967 15.5873 19.9643 14.2823 18.6473C14.0123 18.3323 13.8323 18.1755 13.6748 17.8155L15.0473 17.0273C15.4185 17.5897 15.7553 17.8942 16.3635 18.0293C17.1855 18.1305 18.018 17.8493 17.838 16.9718ZM9.09975 17.232C9.1125 17.232 9.14775 17.3003 9.195 17.379C9.36975 17.6708 9.5205 17.8733 9.8175 18.0203C10.107 18.111 10.7445 18.177 10.992 17.6603C11.1428 17.3993 11.0955 16.551 11.0955 15.627C11.0955 14.1713 11.1023 12.7268 11.1023 11.2733H12.7882L12.7852 11.3153C12.7852 12.8678 12.7943 14.409 12.7852 15.9495C12.789 16.9065 12.87 17.7615 12.4875 18.459C12.2227 18.999 11.7165 19.3477 11.1292 19.5173C10.227 19.7197 9.36525 19.596 8.724 19.2135C8.2935 18.9548 7.95975 18.5483 7.731 18.0758L9.09975 17.232Z" fill="black"/>
</svg>
