<svg width="24" height="24" viewBox="0 0 24 24" fill="none" xmlns="http://www.w3.org/2000/svg">
<path d="M13.7903 11.9824C13.7903 12.9804 12.9901 13.7895 12.003 13.7895C11.0159 13.7895 10.2157 12.9804 10.2157 11.9824C10.2157 10.9843 11.0159 10.1753 12.003 10.1753C12.9901 10.1753 13.7903 10.9843 13.7903 11.9824Z" fill="black"/>
<path d="M12.0022 16.1215C11.8532 16.1253 11.6774 16.1275 11.5009 16.1275C9.4162 16.1275 7.40567 15.8088 5.51379 15.2172L5.65693 15.2554C4.655 14.9285 3.78656 14.4464 3.03085 13.8285L3.04643 13.8405C2.46129 13.4123 2.06749 12.7495 2.00074 11.9906L2 11.9809C2 10.7856 3.29561 9.61587 5.47152 8.85253C7.33447 8.23241 9.47849 7.87473 11.7048 7.87473C11.8079 7.87473 11.911 7.87548 12.0141 7.87698H11.9985C12.0845 7.87548 12.1854 7.87473 12.287 7.87473C14.4859 7.87473 16.6032 8.22641 18.5878 8.87728L18.4432 8.83603C19.411 9.15397 20.2513 9.61287 20.9892 10.1963L20.9714 10.1828C21.5461 10.5922 21.934 11.2355 21.9993 11.9726L22 11.9824C22 13.2241 20.5509 14.4809 18.2155 15.2622C16.4631 15.8088 14.4481 16.1238 12.3604 16.1238C12.2344 16.1238 12.109 16.1223 11.9837 16.12H12.0022V16.1215ZM12.0022 8.74305C11.9236 8.74155 11.8302 8.74155 11.7367 8.74155C9.60012 8.74155 7.54212 9.08048 5.61169 9.7081L5.75334 9.66836C3.75245 10.374 2.85509 11.339 2.85509 11.9831C2.85509 12.6527 3.81993 13.7078 5.93503 14.4381C7.60294 14.9608 9.52002 15.2622 11.5068 15.2622C11.6811 15.2622 11.8546 15.2599 12.0274 15.2554L12.0022 15.2562C12.1105 15.2584 12.2381 15.2599 12.3656 15.2599C14.3561 15.2599 16.2769 14.96 18.0872 14.4029L17.9485 14.4396C20.1437 13.7018 21.1523 12.6467 21.1523 11.9801C21.0767 11.5017 20.8097 11.0983 20.4359 10.8441L20.43 10.8404C19.7877 10.335 19.0387 9.92781 18.2274 9.66011L18.1755 9.64512C16.4193 9.07074 14.3984 8.7393 12.3018 8.7393C12.1965 8.7393 12.092 8.74005 11.9874 8.74155H12.003L12.0022 8.74305Z" fill="black"/>
<path d="M7.94705 20.9895C7.93518 20.9895 7.92109 20.9903 7.90774 20.9903C7.57179 20.9903 7.2566 20.901 6.98443 20.7451L6.99407 20.7503C5.97212 20.1504 5.61614 18.4318 6.04479 16.1455C6.5617 13.8 7.39973 11.7259 8.52477 9.84682L8.4736 9.9398C9.58529 7.94897 10.9284 6.24607 12.4969 4.78688L12.5117 4.77338C13.1962 4.14051 13.9972 3.62087 14.8753 3.2527L14.9294 3.23245C15.2312 3.08548 15.5857 3 15.9603 3C16.3318 3 16.6841 3.08473 16.9985 3.23545L16.9837 3.22945C18.0479 3.84882 18.4009 5.74893 17.9018 8.18292C17.3678 10.4077 16.5535 12.367 15.4826 14.1509L15.5346 14.0587C14.4577 16.0308 13.1547 17.7194 11.6292 19.1719L11.6188 19.1816C10.9083 19.8392 10.074 20.3739 9.15589 20.7428L9.10101 20.7623C8.75986 20.898 8.36532 20.9813 7.95224 20.991H7.94779L7.94705 20.9895ZM8.8407 10.1565L9.21077 10.3725C8.18659 12.0821 7.38268 14.0662 6.9073 16.1763L6.88208 16.3112C6.4868 18.4175 6.86799 19.684 7.41605 20.005C7.5577 20.0814 7.7253 20.1257 7.90329 20.1257C7.91813 20.1257 7.9337 20.1257 7.94853 20.1249H7.94631C8.65455 20.1249 9.76921 19.6713 11.0581 18.5338C12.5236 17.1338 13.768 15.5171 14.7455 13.7318L14.7959 13.6305C15.7734 12.0139 16.5543 10.1415 17.0393 8.15143L17.0675 8.01496C17.534 5.72193 17.1313 4.31823 16.5587 3.9823C16.3822 3.91181 16.1775 3.87132 15.964 3.87132C15.694 3.87132 15.4389 3.93655 15.2134 4.05128L15.2231 4.04678C14.3939 4.39546 13.682 4.86111 13.0672 5.43099L13.0724 5.42649C11.5587 6.83695 10.275 8.46861 9.26342 10.2765L9.21225 10.3755L8.8407 10.1565Z" fill="black"/>
<path d="M16.0581 21C15.0896 21 13.8629 20.4099 12.5799 19.2934C10.9669 17.8064 9.60086 16.0825 8.52774 14.1689L8.47434 14.0662C7.41382 12.3048 6.58247 10.2607 6.09003 8.08619L6.06333 7.94747C5.94319 7.41583 5.87422 6.80621 5.87422 6.18009C5.87422 5.78492 5.90166 5.39725 5.95432 5.01708L5.94913 5.06057C6.01216 4.31223 6.40003 3.66736 6.96663 3.2617L6.97404 3.25645C8.03456 2.63408 9.8404 3.27444 11.6774 4.9271C13.177 6.3623 14.457 8.01121 15.473 9.83108L15.5264 9.93456C16.5854 11.6569 17.4227 13.6545 17.9307 15.7818L17.9589 15.9213C18.0798 16.4529 18.1495 17.0641 18.1495 17.6909C18.1495 18.1236 18.1169 18.548 18.0531 18.9627L18.059 18.9162C17.9826 19.6825 17.5814 20.3416 16.9993 20.7578L16.9911 20.7631C16.733 20.9123 16.4245 21 16.096 21C16.0826 21 16.0693 21 16.0559 20.9993L16.0581 21ZM9.21448 13.6343C10.2958 15.5621 11.6003 17.2118 13.1236 18.6252L13.1384 18.6387C14.7447 20.0357 16.0188 20.3379 16.5706 20.014C17.1439 19.6795 17.5636 18.3073 17.1298 16.09C16.6092 13.923 15.8045 12.0154 14.7425 10.2855L14.7907 10.3695C13.768 8.52785 12.5458 6.94868 11.1212 5.58246L11.1123 5.57421C9.38134 4.01904 7.97894 3.66961 7.40567 4.00404C7.05488 4.29273 6.82424 4.71789 6.79383 5.19854V5.20379C6.75304 5.49623 6.73005 5.83366 6.73005 6.17709C6.73005 6.74472 6.79383 7.2966 6.91397 7.82749L6.90433 7.778C7.40344 9.99154 8.19994 11.9464 9.26417 13.7198L9.21522 13.632L9.21448 13.6343Z" fill="black"/>
</svg>
