<svg width="24" height="24" viewBox="0 0 24 24" fill="none" xmlns="http://www.w3.org/2000/svg">
<path d="M9.45362 5.51228C10.1654 4.6232 11.5057 4.18414 12.4193 4.16144C14.9813 4.11292 16.0493 7.30219 16.1316 8.57007L17.3175 8.92539C17.0444 5.03878 14.6258 3 12.3116 3C10.1416 2.99922 8.13782 4.57546 7.33029 6.8866C6.22746 9.96787 6.95107 12.9302 8.30329 15.3008C8.18533 15.455 8.11407 15.7266 8.13782 15.9872C8.16078 16.6986 8.76564 17.2911 9.49004 17.2911H9.53754C9.71678 17.286 9.89318 17.2455 10.0564 17.1721C10.2196 17.0986 10.3662 16.9937 10.4878 16.8634C10.6094 16.733 10.7033 16.58 10.7642 16.4133C10.8251 16.2466 10.8516 16.0695 10.8423 15.8925C10.8423 15.1811 10.2255 14.5902 9.50192 14.5902H9.45362C9.40612 14.5902 9.33566 14.5902 9.27549 14.6129C8.29141 12.9536 7.87577 11.1755 8.03095 9.25723C8.12516 7.8109 8.60018 6.55476 9.45362 5.51228Z" fill="black"/>
<path d="M3.73757 18.9636C4.53244 20.1485 6.15779 20.9061 7.93673 20.9061C8.41096 20.9061 8.90973 20.8716 9.39583 20.7527C12.4803 20.1602 14.8174 18.3116 16.1577 15.5865L16.1688 15.5622C16.8568 15.5027 17.3904 14.8977 17.3555 14.1746C17.3191 13.4514 16.7262 12.8715 16.0033 12.8715H15.955C15.2085 12.8957 14.6266 13.5234 14.6503 14.2708C14.6741 14.6496 14.8292 14.958 15.0414 15.1826C14.2117 16.7949 12.9664 17.979 11.0798 18.9753C9.81068 19.6382 8.47034 19.8879 7.16562 19.7102C6.07466 19.5568 5.22121 19.0692 4.69869 18.2881C3.9165 17.1024 3.84524 15.8236 4.49681 14.544C4.97262 13.6197 5.68356 12.9443 6.15858 12.6116C6.03983 12.3041 5.89732 11.7828 5.82607 11.3923C2.31331 13.9038 2.67037 17.3396 3.73757 18.9636Z" fill="black"/>
<path d="M21.5769 18.4408C22.2878 17.0187 22.2292 14.6254 20.4139 12.5749L20.4028 12.5983C18.5653 10.4414 15.86 9.25645 12.7748 9.25645H12.371C12.1707 8.81817 11.7084 8.54502 11.1859 8.54502H11.1502C10.4037 8.54502 9.82176 9.18601 9.84631 9.93187C9.87006 10.6425 10.4749 11.2357 11.1985 11.2357H11.2571C11.5146 11.2249 11.7634 11.1408 11.9737 10.9937C12.1841 10.8466 12.3471 10.6425 12.4431 10.4061H12.8825C14.7105 10.4061 16.4411 10.9391 18.0198 11.9816C19.2287 12.776 20.0956 13.8185 20.5817 15.0629C21.0076 16.0819 20.9847 17.0774 20.5461 17.9078C19.87 19.2109 18.7307 19.8988 17.2249 19.8988C16.2757 19.8988 15.351 19.6022 14.876 19.3893C14.5917 19.6249 14.1167 20.0162 13.7723 20.2541C14.8158 20.7269 15.8719 21 16.8916 21C19.205 21 20.9237 19.6977 21.5769 18.4408Z" fill="black"/>
</svg>
