<svg width="24" height="24" viewBox="0 0 24 24" fill="none" xmlns="http://www.w3.org/2000/svg">
<path d="M21.9916 14.9077C21.9263 14.3668 21.6308 13.9474 21.1793 13.6184C21.2909 13.6996 21.3853 13.7682 21.1771 13.6168C20.8963 13.4127 21.0451 13.5209 21.1753 13.6155C20.062 12.8081 18.6098 12.9876 17.3967 13.4361C16.9104 12.6289 16.8894 12.0129 17.1695 11.1318C17.2058 11.0205 17.181 10.9586 17.067 10.9089C16.7902 10.7884 16.3915 10.8522 16.113 10.9273C16.0168 10.953 15.9468 11.0029 15.9255 11.1016C15.7242 12.0658 15.1048 12.9489 14.565 13.7618C14.1849 13.02 14.215 12.4459 14.4707 11.6731C14.5019 11.579 14.4876 11.529 14.3951 11.4791C14.1115 11.3296 13.6763 11.403 13.3872 11.49C13.0549 11.5888 12.5556 13.2637 12.3962 13.5958C12.0629 14.2896 11.7676 15.3723 11.2014 15.9226C10.721 15.2939 12.0813 13.8737 11.6265 13.3036C11.4727 13.1107 11.1944 13.1157 11.0177 13.2791C11.0601 12.9765 11.082 12.7776 11.0052 12.5209C10.9239 12.2508 10.7176 12.0958 10.4157 12.1037C9.71279 12.1246 9.09373 12.6531 8.67193 13.1535C8.27049 13.635 7.21173 13.9342 6.64252 14.2245C5.6647 13.3572 3.54794 12.4368 3.49283 10.9599C3.43314 9.29559 5.38029 8.16609 6.68021 7.49063C8.37084 6.61149 10.9756 5.51759 12.8965 6.47897C13.4063 6.73407 13.6113 7.28123 13.471 7.80531C13.1051 9.17214 11.6274 10.084 10.342 10.5022C9.70963 10.708 9.0151 10.8612 8.34592 10.8214C7.44924 10.768 6.75099 10.2159 6.65525 10.1816C6.57521 10.1661 6.5815 10.2715 6.60263 10.3273C7.53295 12.8105 12.2439 10.9908 13.4759 9.71599C14.0692 9.10265 14.4296 8.50829 14.5834 7.57248C14.7637 6.47543 13.9727 5.789 13.3723 5.50601C10.3286 4.07133 6.12087 5.95019 3.81943 7.8656C2.82068 8.69689 1.5713 10.0177 2.14466 11.4032C2.76693 12.9068 4.67341 13.6778 5.91431 14.5974C4.91025 15.1055 3.65408 15.6309 3.00345 16.5834C2.63142 17.1294 2.49943 17.7113 2.77646 18.3321C3.26755 19.4285 5.05322 18.9534 5.80666 18.4701C6.49689 18.0274 6.96146 17.4332 7.16213 16.6713C7.33615 16.0107 7.30045 15.3243 7.0115 14.702L8.1281 14.127C7.82744 15.0448 7.69463 16.1953 8.31877 17.0246C8.56884 17.3563 9.21787 17.3697 9.48349 17.037C9.82787 16.6018 10.0563 16.0564 10.2844 15.5572C10.2578 15.93 10.2119 16.3525 10.3382 16.6774C10.4831 17.0502 10.8119 17.1265 11.1504 16.8899C12.1863 16.166 12.8456 14.1595 13.356 12.9898C13.4947 13.5 13.6479 13.9661 13.9012 14.4365C13.9637 14.552 13.9561 14.6264 13.8701 14.7227C13.4917 15.1473 12.5878 15.8554 12.5002 16.4289C12.4797 16.563 12.5671 16.6914 12.7223 16.722C13.3306 16.8456 14.005 16.6214 14.4989 16.2814C15.0141 15.9266 15.1804 15.4427 15.0554 14.8689C14.8766 14.0428 15.4848 13.1197 16.0632 12.4416C16.1694 12.955 16.3295 13.449 16.6157 13.8975C16.1049 14.3542 15.343 15.0017 15.4524 15.7644C15.491 16.0374 15.7312 16.2138 16.0194 16.1516C16.6359 16.0194 17.1685 15.7494 17.5573 15.2708C17.9097 14.8391 17.7835 14.3679 17.6298 13.8933C18.5623 13.6222 19.5056 13.568 20.4357 13.8922C20.8847 14.0477 21.2464 14.3098 21.461 14.7202C21.7237 15.2231 21.5758 15.6863 21.0684 16.0169C20.94 16.1006 20.8512 16.1694 20.8946 16.2056C20.938 16.2418 21.086 16.2896 21.4135 16.0802C21.741 15.8707 21.9412 15.5877 21.9925 15.2161C22.0028 15.1136 22.0025 15.0102 21.9916 14.9077ZM6.41197 15.9123C6.35892 16.5755 6.03556 17.1132 5.5067 17.5475C5.20916 17.7925 4.83865 17.992 4.47076 18.0285C4.10287 18.0649 3.81642 17.9704 3.79193 17.5818C3.72302 16.4884 5.39048 15.4172 6.31634 15.0947C6.39525 15.3676 6.43396 15.6383 6.41134 15.9135L6.41197 15.9123ZM10.4394 13.0307C10.2869 13.918 9.8601 15.5104 9.17713 16.1463C9.08509 16.2315 8.99705 16.2266 8.95021 16.1156C8.54611 15.1588 9.09361 13.1856 10.2425 12.881C10.3775 12.8457 10.4613 12.9042 10.4394 13.0307ZM13.1859 16.2828C13.5149 15.9264 13.8435 15.5702 14.173 15.2119C14.2137 15.6104 13.4866 16.4036 13.1859 16.2828ZM16.3388 15.579C16.2471 15.6296 16.0411 15.679 16.0331 15.6122C15.9752 15.1315 16.4946 14.6229 16.8169 14.3845C16.9909 14.8357 16.785 15.3325 16.3388 15.579Z" fill="#231F20"/>
</svg>
