<svg width="24" height="24" viewBox="0 0 24 24" fill="none" xmlns="http://www.w3.org/2000/svg">
<path d="M3 20C2.44772 20 2 20.4477 2 21C2 21.5523 2.44772 22 3 22V20ZM21 22C21.5523 22 22 21.5523 22 21C22 20.4477 21.5523 20 21 20V22ZM5 16.8764C5 16.3241 4.55228 15.8764 4 15.8764C3.44772 15.8764 3 16.3241 3 16.8764H5ZM13 12.9531C13 12.4008 12.5523 11.9531 12 11.9531C11.4477 11.9531 11 12.4008 11 12.9531H13ZM8.98239 14.9917C8.9778 14.4394 8.52639 13.9955 7.97412 14C7.42186 14.0046 6.97787 14.456 6.98246 15.0083L8.98239 14.9917ZM16.9881 11C16.9881 10.4477 16.5404 10 15.9881 10C15.4358 10 14.9881 10.4477 14.9881 11H16.9881ZM21 9C21 8.44772 20.5523 8 20 8C19.4477 8 19 8.44772 19 9H21ZM3.9005 10.505C3.35095 10.5599 2.95001 11.05 3.00496 11.5995C3.05992 12.149 3.54996 12.55 4.0995 12.495L3.9005 10.505ZM18 3.5H19C19 3.01116 18.6466 2.59397 18.1644 2.51361L18 3.5ZM17 6.5C17 7.05228 17.4477 7.5 18 7.5C18.5523 7.5 19 7.05228 19 6.5H17ZM15.1644 2.01361C14.6196 1.92281 14.1044 2.29083 14.0136 2.8356C13.9228 3.38037 14.2908 3.8956 14.8356 3.98639L15.1644 2.01361ZM3 22H21V20H3V22ZM5 21V16.8764H3V21H5ZM13 20.7654V12.9531H11V20.7654H13ZM9.03219 20.9917L8.98239 14.9917L6.98246 15.0083L7.03226 21.0083L9.03219 20.9917ZM16.9881 21V11H14.9881V21H16.9881ZM21 21V9H19V21H21ZM4.0995 12.495C7.71974 12.133 12.9898 9.92444 18.7071 4.20711L17.2929 2.79289C11.8102 8.27556 6.94693 10.2003 3.9005 10.505L4.0995 12.495ZM17 3.5V6.5H19V3.5H17ZM18.1644 2.51361L15.1644 2.01361L14.8356 3.98639L17.8356 4.48639L18.1644 2.51361Z" fill="black"/>
</svg>
