<svg width="24" height="24" viewBox="0 0 24 24" fill="none" xmlns="http://www.w3.org/2000/svg">
<path d="M3 12V20C3 20.5523 3.44772 21 4 21H20C20.5523 21 21 20.5523 21 20V4C21 3.44772 20.5523 3 20 3H4C3.44772 3 3 3.44772 3 4V12ZM13.9222 17.7195C14.0032 17.6737 14.3055 17.499 14.5912 17.3332L15.1087 17.0332L15.2175 17.1937C15.369 17.4247 15.6997 17.742 15.9 17.8477C16.4745 18.1507 17.2627 18.108 17.6512 17.7592C17.796 17.637 17.8868 17.4555 17.8868 17.253C17.8868 17.241 17.8867 17.2298 17.886 17.2178V17.2192C17.886 17.0107 17.8597 16.9192 17.751 16.7618C17.6115 16.5623 17.3257 16.3942 16.5142 16.0417C15.5857 15.642 15.186 15.3937 14.82 14.9992C14.5995 14.7487 14.4292 14.4472 14.3302 14.1157L14.3257 14.0992C14.2575 13.845 14.2402 13.2075 14.2942 12.951C14.4855 12.0532 15.1628 11.4285 16.14 11.2425C16.4572 11.1825 17.1945 11.205 17.5057 11.2823C17.9632 11.3962 18.3112 11.6003 18.6315 11.9317C18.7972 12.1087 19.0432 12.4312 19.0627 12.5092C19.0688 12.5317 18.2858 13.0567 17.8118 13.3515C17.7945 13.3627 17.7255 13.2885 17.649 13.1745C17.4165 12.837 17.1742 12.6915 16.803 12.666C16.257 12.6285 15.906 12.9142 15.909 13.3912C15.909 13.3995 15.9082 13.4093 15.9082 13.419C15.9082 13.5322 15.9367 13.6388 15.987 13.7317L15.9855 13.728C16.1055 13.9762 16.329 14.1255 17.028 14.4277C18.3173 14.9827 18.8685 15.348 19.2112 15.8677C19.5937 16.4475 19.68 17.3737 19.4197 18.0622C19.1347 18.8107 18.426 19.3192 17.4285 19.4872C17.1203 19.542 16.389 19.5338 16.0575 19.4737C15.3345 19.3447 14.649 18.9877 14.226 18.519C14.0602 18.3367 13.737 17.859 13.7572 17.8252C13.7655 17.8132 13.8397 17.7675 13.9222 17.7195ZM6.9435 12.0487C6.9435 11.6482 6.95175 11.3137 6.963 11.3062C6.972 11.2942 8.39775 11.2882 10.1258 11.2912L13.272 11.3003L13.2802 12.0345L13.2863 12.7717H10.9425V19.4288H9.285V12.7717H6.9435V12.0487Z" fill="black"/>
</svg>
