<svg width="24" height="24" viewBox="0 0 24 24" fill="none" xmlns="http://www.w3.org/2000/svg">
<path d="M4.27927 11.9998C4.27927 15.056 6.0553 17.6969 8.63067 18.9486L4.94772 8.85765C4.50622 9.84631 4.27844 10.917 4.27927 11.9998ZM17.2123 11.6102C17.2123 10.656 16.8695 9.99519 16.5755 9.48085C16.1842 8.84487 15.8175 8.30629 15.8175 7.6703C15.8175 6.96057 16.3556 6.2999 17.1138 6.2999C17.1481 6.2999 17.1805 6.30416 17.214 6.30607C15.8403 5.04762 14.0102 4.27927 12.0001 4.27927C9.3028 4.27927 6.92972 5.66319 5.54918 7.75933C5.73033 7.76477 5.90119 7.76844 6.04604 7.76844C6.85362 7.76844 8.1037 7.67045 8.1037 7.67045C8.5199 7.64592 8.56897 8.25722 8.15335 8.30643C8.15335 8.30643 7.73495 8.35565 7.26953 8.38004L10.0811 16.743L11.7709 11.6756L10.5679 8.37989C10.1521 8.3555 9.75822 8.30629 9.75822 8.30629C9.34217 8.2819 9.39094 7.64577 9.807 7.6703C9.807 7.6703 11.0821 7.76829 11.8407 7.76829C12.6481 7.76829 13.8984 7.6703 13.8984 7.6703C14.3149 7.64577 14.3638 8.25707 13.9479 8.30629C13.9479 8.30629 13.5287 8.3555 13.0642 8.37989L15.8544 16.6796L16.6243 14.1061C16.9583 13.0382 17.2123 12.2712 17.2123 11.6102Z" fill="black"/>
<path d="M12.1357 12.6752L9.81916 19.4065C10.5274 19.6152 11.2619 19.7212 12.0002 19.7212C12.8993 19.7212 13.7615 19.5656 14.5641 19.2835C14.5426 19.2498 14.5242 19.2142 14.5092 19.1771L12.1357 12.6752ZM18.7749 8.29564C18.8081 8.54157 18.8269 8.80572 18.8269 9.08956C18.8269 9.87304 18.6806 10.7538 18.2399 11.855L15.8815 18.6737C18.1769 17.3352 19.7208 14.8484 19.7208 11.9999C19.7228 10.7051 19.3975 9.43091 18.7749 8.29564Z" fill="black"/>
<path d="M12.0001 3C7.03759 3 3 7.0373 3 11.9999C3 16.963 7.03745 21.0003 12.0001 21.0003C16.9626 21.0003 21.0007 16.9631 21.0007 11.9999C21.0006 7.0373 16.9626 3 12.0001 3ZM12.0001 20.5876C7.26516 20.5876 3.41268 16.7351 3.41268 11.9999C3.41268 7.26501 7.26501 3.41282 12.0001 3.41282C16.735 3.41282 20.5872 7.26501 20.5872 11.9999C20.5872 16.7351 16.7348 20.5876 12.0001 20.5876Z" fill="black"/>
</svg>
